Amiri-Bold.sfdir
StartChar: exclam
Encoding: 33 33 5778
Width: 540
Flags: HW
LayerCount: 3
Fore
SplineSet
276 1374 m 0
 309.33 1374 338.33 1361.67 363 1337 c 0
 387.67 1312.33 400 1279.33 400 1238 c 0
 400 1211.33 389.33 1095.33 368 890 c 0
 349.33 732 332 582.67 316 442 c 0
 312 408 298 391 274 391 c 0
 246.67 391 231 408.67 227 444 c 0
 206.33 596 189.33 737.33 176 868 c 0
 154.67 1069.33 144 1193.33 144 1240 c 0
 144 1281.33 156.67 1314 182 1338 c 0
 207.33 1362 238.67 1374 276 1374 c 0
EndSplineSet
Refer: 296 -1 N 1 0 0 1 -56 0 2
EndChar
StartChar: parenleft
Encoding: 40 40 293
Width: 940
Flags: HW
LayerCount: 3
Fore
SplineSet
530 342 m 0
 530 649.333333333 592.333333333 927 717 1175 c 0
 775 1289.66666667 831.333333333 1371 886 1419 c 1
 862 1474 l 0
 750 1414 646.333333333 1323 551 1201 c 0
 365 962.333333333 272 676 272 342 c 0
 272 6.66666666667 365 -280.333333333 551 -519 c 0
 646.333333333 -641 750 -732 862 -792 c 0
 886 -737 l 1
 831.333333333 -689 775 -607.666666667 717 -493 c 0
 592.333333333 -245 530 33.3333333333 530 342 c 0
EndSplineSet
EndChar
StartChar: parenright
Encoding: 41 41 294
Width: 940
Flags: HW
LayerCount: 3
Fore
SplineSet
410 342 m 0
 410 649.33 347.67 927 223 1175 c 0
 165 1289.67 108.67 1371 54 1419 c 1
 78 1474 l 0
 190 1414 293.67 1323 389 1201 c 0
 575 962.33 668 676 668 342 c 0
 668 6.67 575 -280.33 389 -519 c 0
 293.67 -641 190 -732 78 -792 c 0
 54 -737 l 1
 108.67 -689 165 -607.67 223 -493 c 0
 347.67 -245 410 33.33 410 342 c 0
EndSplineSet
EndChar
StartChar: slash
Encoding: 47 47 5618
Width: 706
Flags: HW
LayerCount: 3
Fore
SplineSet
644 1457 m 0
 666.666666667 1457 679.333333333 1451.66666667 682 1441 c 1
 165 -373 l 1
 162.333333333 -383 152.666666667 -392.5 136 -401.5 c 128
 119.333333333 -410.5 95.6666666667 -415 65 -415 c 0
 56.3333333333 -415 49 -413.833333333 43 -411.5 c 128
 37 -409.166666667 33.1666666667 -406.833333333 31.5 -404.5 c 2
 29 -401 l 1
 546 1413 l 1
 551.333333333 1423.66666667 562.333333333 1433.66666667 579 1443 c 128
 595.666666667 1452.33333333 617.333333333 1457 644 1457 c 0
EndSplineSet
EndChar
StartChar: bracketleft
Encoding: 91 91 338
Width: 740
Flags: HW
LayerCount: 3
Fore
SplineSet
258 1460 m 0
 422 1460 558.666666667 1470.66666667 668 1492 c 1
 673.333333333 1492 677 1488.33333333 679 1481 c 0
 679.666666667 1478.33333333 680 1476 680 1474 c 0
 680 1464.66666667 674 1448 662 1424 c 0
 661.333333333 1422.66666667 660.666666667 1422 660 1422 c 0
 634 1408.66666667 572.333333333 1393.33333333 475 1376 c 0
 456.333333333 1372.66666667 442.666666667 1370 434 1368 c 1
 434 -692 l 1
 444 -694 462 -697.333333333 488 -702 c 0
 567.333333333 -715.333333333 624.666666667 -730 660 -746 c 0
 667.333333333 -749.333333333 673 -759.333333333 677 -776 c 0
 679 -784 680 -791.333333333 680 -798 c 0
 679.333333333 -808 675.333333333 -814 668 -816 c 1
 557.333333333 -794.666666667 420.666666667 -784 258 -784 c 1
 237.333333333 -782.666666667 225 -770.666666667 221 -748 c 0
 220.333333333 -744.666666667 220 -741.333333333 220 -738 c 2
 220 1414 l 2
 220 1435.33333333 229.666666667 1450 249 1458 c 0
 252.333333333 1459.33333333 255.333333333 1460 258 1460 c 0
EndSplineSet
EndChar
StartChar: backslash
Encoding: 92 92 5776
Width: 706
Flags: HW
LayerCount: 3
Fore
SplineSet
62 1457 m 0
 39.33 1457 26.67 1451.67 24 1441 c 1
 541 -373 l 1
 543.67 -383 553.33 -392.5 570 -401.5 c 128
 586.67 -410.5 610.33 -415 641 -415 c 0
 649.67 -415 657 -413.83 663 -411.5 c 128
 669 -409.17 672.83 -406.83 674.5 -404.5 c 2
 677 -401 l 1
 160 1413 l 1
 154.67 1423.67 143.67 1433.67 127 1443 c 128
 110.33 1452.33 88.67 1457 62 1457 c 0
EndSplineSet
EndChar
StartChar: bracketright
Encoding: 93 93 339
Width: 740
Flags: HW
LayerCount: 3
Fore
SplineSet
482 1460 m 0
 318 1460 181.333333333 1470.66666667 72 1492 c 1
 66.6666666667 1492 63 1488.33333333 61 1481 c 0
 60.3333333333 1478.33333333 60 1476 60 1474 c 0
 60 1464.66666667 66 1448 78 1424 c 0
 78.6666666667 1422.66666667 79.3333333333 1422 80 1422 c 0
 106 1408.66666667 167.666666667 1393.33333333 265 1376 c 0
 283.666666667 1372.66666667 297.333333333 1370 306 1368 c 1
 306 -692 l 1
 296 -694 278 -697.333333333 252 -702 c 0
 172.666666667 -715.333333333 115.333333333 -730 80 -746 c 0
 72.6666666667 -749.333333333 67 -759.333333333 63 -776 c 0
 61 -784 60 -791.333333333 60 -798 c 0
 60.6666666667 -808 64.6666666667 -814 72 -816 c 1
 182.666666667 -794.666666667 319.333333333 -784 482 -784 c 1
 502.666666667 -782.666666667 515 -770.666666667 519 -748 c 0
 519.666666667 -744.666666667 520 -741.333333333 520 -738 c 2
 520 1414 l 2
 520 1435.33333333 510.333333333 1450 491 1458 c 0
 487.666666667 1459.33333333 484.666666667 1460 482 1460 c 0
EndSplineSet
EndChar
StartChar: braceleft
Encoding: 123 123 340
Width: 814
Flags: HW
LayerCount: 3
Fore
SplineSet
265 314 m 1
 378.333333333 249.333333333 426 171.333333333 408 80 c 0
 401.333333333 45.3333333333 378.666666667 -23.6666666667 340 -127 c 0
 304.666666667 -219.666666667 288 -314.333333333 290 -411 c 0
 293.333333333 -593 351 -728.333333333 463 -817 c 0
 494.333333333 -841.666666667 518.333333333 -843.666666667 535 -823 c 0
 554.333333333 -799 552 -774.666666667 528 -750 c 0
 440.666666667 -658.666666667 399.333333333 -562.333333333 404 -461 c 0
 406 -426.333333333 429.333333333 -371.333333333 474 -296 c 0
 544.666666667 -180 568 -55.3333333333 544 78 c 0
 522.666666667 199.333333333 465.666666667 286.666666667 373 340 c 1
 465.666666667 393.333333333 522.666666667 480.666666667 544 602 c 0
 568 735.333333333 544.666666667 860 474 976 c 0
 429.333333333 1051.33333333 406 1106.33333333 404 1141 c 0
 399.333333333 1242.33333333 440.666666667 1338.66666667 528 1430 c 0
 552 1454.66666667 554.333333333 1479 535 1503 c 0
 518.333333333 1523.66666667 494.333333333 1521.66666667 463 1497 c 0
 351 1408.33333333 293.333333333 1273 290 1091 c 0
 288 994.333333333 304.666666667 899.666666667 340 807 c 0
 378.666666667 703.666666667 401.333333333 634.666666667 408 600 c 0
 426 508.666666667 378.333333333 430.666666667 265 366 c 1
 265 314 l 1
EndSplineSet
Layer: 2
SplineSet
389 -460 m 0
 383.666666667 -557.333333333 427.333333333 -657.333333333 520 -760 c 0
 532 -776 531 -791.666666667 517 -807 c 0
 501.666666667 -821 485.666666667 -821.333333333 469 -808 c 0
 362.333333333 -717.333333333 307.666666667 -585.333333333 305 -412 c 0
 303.666666667 -333.333333333 323 -241.333333333 363 -136 c 0
 400.333333333 -35.3333333333 422 35.6666666667 428 77 c 0
 440 168.333333333 394 245.333333333 290 308 c 1
 290 372 l 1
 394.666666667 434.666666667 440.666666667 511.666666667 428 603 c 0
 422 645.666666667 400.333333333 716.666666667 363 816 c 0
 323.666666667 922 304.333333333 1013.66666667 305 1091 c 0
 308.333333333 1265 363 1397 469 1487 c 0
 485.666666667 1501 501.666666667 1500.66666667 517 1486 c 0
 531 1470 531.666666667 1454 519 1438 c 0
 426.333333333 1335.33333333 383 1235.66666667 389 1139 c 0
 392.333333333 1086.33333333 413.666666667 1027.66666667 453 963 c 0
 519.666666667 850.333333333 543.333333333 731.333333333 524 606 c 1
 504.666666667 486 454 397.333333333 372 340 c 1
 454 281.333333333 504.666666667 192.666666667 524 74 c 1
 543.333333333 -52 519.666666667 -171 453 -283 c 0
 413.666666667 -348.333333333 392.333333333 -407.333333333 389 -460 c 0
EndSplineSet
EndChar
StartChar: bar
Encoding: 124 124 5682
Width: 404
Flags: HW
LayerCount: 3
Fore
SplineSet
255 -757 m 2
 255.01 -764.46 225.34 -774.13 166 -786 c 0
 162.67 -786.67 160.33 -787 159 -787 c 0
 152.33 -787 148.67 -784.67 148 -780 c 0
 148 -779.33 148.17 -777.83 148.5 -775.5 c 128
 148.83 -773.17 149 -771.67 149 -771 c 2
 149 1444 l 1
 151 1455 l 1
 153.67 1457 156.33 1458.67 159 1460 c 0
 181.67 1466.67 207.67 1470 237 1470 c 1
 248.33 1469.33 253.67 1465.33 253 1458 c 1
 255 -757 l 2
EndSplineSet
EndChar
StartChar: braceright
Encoding: 125 125 341
Width: 814
Flags: HW
LayerCount: 3
Fore
SplineSet
544 314 m 1
 430.666666667 249.333333333 383 171.333333333 401 80 c 0
 407.666666667 45.3333333333 430.333333333 -23.6666666667 469 -127 c 0
 504.333333333 -219.666666667 521 -314.333333333 519 -411 c 0
 515.666666667 -593 458 -728.333333333 346 -817 c 0
 314.666666667 -841.666666667 290.666666667 -843.666666667 274 -823 c 0
 254.666666667 -799 257 -774.666666667 281 -750 c 0
 368.333333333 -658.666666667 409.666666667 -562.333333333 405 -461 c 0
 403 -426.333333333 379.666666667 -371.333333333 335 -296 c 0
 264.333333333 -180 241 -55.3333333333 265 78 c 0
 286.333333333 199.333333333 343.333333333 286.666666667 436 340 c 1
 343.333333333 393.333333333 286.333333333 480.666666667 265 602 c 0
 241 735.333333333 264.333333333 860 335 976 c 0
 379.666666667 1051.33333333 403 1106.33333333 405 1141 c 0
 409.666666667 1242.33333333 368.333333333 1338.66666667 281 1430 c 0
 257 1454.66666667 254.666666667 1479 274 1503 c 0
 290.666666667 1523.66666667 314.666666667 1521.66666667 346 1497 c 0
 458 1408.33333333 515.666666667 1273 519 1091 c 0
 521 994.333333333 504.333333333 899.666666667 469 807 c 0
 430.333333333 703.666666667 407.666666667 634.666666667 401 600 c 0
 383 508.666666667 430.666666667 430.666666667 544 366 c 1
 544 314 l 1
EndSplineSet
EndChar
StartChar: brokenbar
Encoding: 166 166 5777
Width: 420
Flags: W
LayerCount: 3
Fore
SplineSet
255 490 m 1,0,1
 254 480 254 480 212 470 c 128,-1,2
 170 460 170 460 159 460 c 0,3,4
 154 460 154 460 151.5 461.5 c 128,-1,5
 149 463 149 463 148.5 464.5 c 128,-1,6
 148 466 148 466 148.5 470.5 c 128,-1,7
 149 475 149 475 149 476 c 2,8,-1
 149 1444 l 1,9,10
 147 1456 147 1456 159 1460 c 0,11,12
 193 1470 193 1470 239 1470 c 0,13,14
 247 1470 247 1470 251 1467 c 128,-1,15
 255 1464 255 1464 255 1461 c 2,16,-1
 255 1458 l 1,17,-1
 255 490 l 1,0,1
149 -770 m 2,18,-1
 149 188 l 1,19,20
 147 200 147 200 159 204 c 0,21,22
 193 214 193 214 239 214 c 0,23,24
 247 214 247 214 251 211 c 128,-1,25
 255 208 255 208 255 205 c 2,26,-1
 255 202 l 1,27,-1
 255 -756 l 1,28,29
 254 -766 254 -766 212 -776 c 128,-1,30
 170 -786 170 -786 159 -786 c 0,31,32
 154 -786 154 -786 151.5 -784.5 c 128,-1,33
 149 -783 149 -783 148.5 -781.5 c 128,-1,34
 148 -780 148 -780 148.5 -775.5 c 128,-1,35
 149 -771 149 -771 149 -770 c 2,18,-1
EndSplineSet
EndChar
StartChar: guillemotleft
Encoding: 171 171 336
Width: 850
Flags: HW
LayerCount: 3
Fore
SplineSet
400 683 m 1
 286.67 591.67 230 478.83 230 344.5 c 128
 230 210.17 286.67 94.33 400 -3 c 0
 423.33 -22.33 427.33 -46 412 -74 c 128
 396.67 -102 372.67 -108 340 -92 c 1
 255.33 -48.67 189 11.67 141 89 c 0
 93.67 167 70.17 251 70.5 341 c 128
 70.83 431 95.17 515.17 143.5 593.5 c 128
 191.83 671.83 257.33 731.33 340 772 c 0
 373.33 788 397.67 782.33 413 755 c 128
 428.33 727.67 424 703.67 400 683 c 1
758 683 m 1
 644.67 591.67 588 478.83 588 344.5 c 128
 588 210.17 644.67 94.33 758 -3 c 0
 781.33 -22.33 785.33 -46 770 -74 c 128
 754.67 -102 730.67 -108 698 -92 c 1
 613.33 -48.67 547 11.67 499 89 c 0
 451.67 167 428.17 251 428.5 341 c 128
 428.83 431 453.17 515.17 501.5 593.5 c 128
 549.83 671.83 615.33 731.33 698 772 c 0
 731.33 788 755.67 782.33 771 755 c 128
 786.33 727.67 782 703.67 758 683 c 1
EndSplineSet
Layer: 2
SplineSet
199 340 m 0
 199 200 259.666666667 78 381 -26 c 0
 392.333333333 -35.3333333333 394.666666667 -46 388 -58 c 0
 380.666666667 -70.6666666667 369 -73 353 -65 c 0
 273.666666667 -25 211.666666667 31.5 167 104.5 c 128
 122.333333333 177.5 100 256 100 340 c 0
 100 424.666666667 122.333333333 503.333333333 167 576 c 0
 213 650.666666667 275 707 353 745 c 0
 369.666666667 753 381.333333333 750.666666667 388 738 c 0
 394.666666667 726 392.333333333 715.333333333 381 706 c 0
 259.666666667 609.333333333 199 487.333333333 199 340 c 0
557 340 m 0
 557 200 617.666666667 78 739 -26 c 0
 750.333333333 -35.3333333333 752.666666667 -46 746 -58 c 0
 738.666666667 -70.6666666667 727 -73 711 -65 c 0
 631.666666667 -25 569.666666667 31.5 525 104.5 c 128
 480.333333333 177.5 458 256 458 340 c 0
 458 424.666666667 480.333333333 503.333333333 525 576 c 0
 571 650.666666667 633 707 711 745 c 0
 727.666666667 753 739.333333333 750.666666667 746 738 c 0
 752.666666667 726 750.333333333 715.333333333 739 706 c 0
 617.666666667 609.333333333 557 487.333333333 557 340 c 0
EndSplineSet
EndChar
StartChar: guillemotright
Encoding: 187 187 335
Width: 850
Flags: HW
LayerCount: 3
Fore
SplineSet
450 -3 m 0
 564 95.6666666667 620.833333333 212 620.5 346 c 128
 620.166666667 480 563.333333333 592.333333333 450 683 c 0
 426 702.333333333 421.5 726 436.5 754 c 128
 451.5 782 476 788 510 772 c 1
 593.333333333 730.666666667 659.166666667 670.833333333 707.5 592.5 c 128
 755.833333333 514.166666667 779.833333333 430 779.5 340 c 128
 779.166666667 250 755.166666667 166.166666667 707.5 88.5 c 128
 659.833333333 10.8333333333 594 -49.3333333333 510 -92 c 0
 478 -108 454 -102.333333333 438 -75 c 128
 422 -47.6666666667 426 -23.6666666667 450 -3 c 0
92 -3 m 0
 206 95.6666666667 262.833333333 212 262.5 346 c 128
 262.166666667 480 205.333333333 592.333333333 92 683 c 0
 68 702.333333333 63.5 726.166666667 78.5 754.5 c 128
 93.5 782.833333333 118 788.666666667 152 772 c 0
 235.333333333 730.666666667 301.166666667 670.833333333 349.5 592.5 c 128
 397.833333333 514.166666667 421.833333333 430 421.5 340 c 128
 421.166666667 250 397.166666667 166.166666667 349.5 88.5 c 128
 301.833333333 10.8333333333 236 -49.3333333333 152 -92 c 0
 120 -108 96 -102.333333333 80 -75 c 128
 64 -47.6666666667 68 -23.6666666667 92 -3 c 0
EndSplineSet
Layer: 2
SplineSet
651 340 m 0
 651 487.333333333 590.333333333 609.333333333 469 706 c 0
 457.666666667 715.333333333 455.333333333 726 462 738 c 0
 468.666666667 750.666666667 480.333333333 753 497 745 c 0
 575 707 637 650.666666667 683 576 c 0
 727.666666667 503.333333333 750 424.666666667 750 340 c 0
 750 256 727.666666667 177.5 683 104.5 c 128
 638.333333333 31.5 576.333333333 -25 497 -65 c 0
 481 -73 469.333333333 -70.6666666667 462 -58 c 0
 455.333333333 -46 457.666666667 -35.3333333333 469 -26 c 0
 590.333333333 78 651 200 651 340 c 0
293 340 m 0
 293 487.333333333 232.333333333 609.333333333 111 706 c 0
 99.6666666667 715.333333333 97.3333333333 726 104 738 c 0
 110.666666667 750.666666667 122.333333333 753 139 745 c 0
 217 707 279 650.666666667 325 576 c 0
 369.666666667 503.333333333 392 424.666666667 392 340 c 0
 392 256 369.666666667 177.5 325 104.5 c 128
 280.333333333 31.5 218.333333333 -25 139 -65 c 0
 123 -73 111.333333333 -70.6666666667 104 -58 c 0
 97.3333333333 -46 99.6666666667 -35.3333333333 111 -26 c 0
 232.333333333 78 293 200 293 340 c 0
EndSplineSet
EndChar
StartChar: uni030A
Encoding: 778 778 5774
Width: 0
GlyphClass: 4
Flags: HW
AnchorPoint: "TashkilAbove" 254 1640 mark 0
AnchorPoint: "MarkAbove" 254 1640 mark 0
AnchorPoint: "TashkilTashkilAbove" 256 2214 basemark 0
LayerCount: 3
Back
SplineSet
88 1898 m 0
 88.6666666667 1856.66666667 102 1820.33333333 128 1789 c 0
 162 1751 204 1732 254 1732 c 0
 295.333333333 1732.66666667 331.666666667 1746 363 1772 c 0
 401 1806 420 1848 420 1898 c 0
 419.333333333 1939.33333333 406 1975.66666667 380 2007 c 0
 346 2045 304 2064 254 2064 c 0
 212.666666667 2063.33333333 176.333333333 2050 145 2024 c 0
 107 1990 88 1948 88 1898 c 0
12 1898 m 0
 12.6666666667 1972 41 2033 97 2081 c 0
 143 2120.33333333 195.333333333 2140 254 2140 c 0
 328 2139.33333333 389 2111 437 2055 c 0
 475 2009 494.666666667 1956.66666667 496 1898 c 0
 495.333333333 1824 467 1763 411 1715 c 0
 365 1677 312.666666667 1657.33333333 254 1656 c 0
 180 1656.66666667 119 1685 71 1741 c 0
 32.3333333333 1787 12.6666666667 1839.33333333 12 1898 c 0
EndSplineSet
Fore
SplineSet
98 1898.08 m 0
 99.09 1858.95 111.62 1824.77 135.58 1795.53 c 0
 168.04 1760.14 207.48 1742.3 253.92 1742 c 0
 293.05 1743.09 327.23 1755.62 356.47 1779.58 c 0
 391.86 1812.04 409.7 1851.48 410 1897.92 c 0
 408.91 1937.05 396.38 1971.23 372.42 2000.47 c 0
 339.96 2035.86 300.52 2053.7 254.08 2054 c 0
 214.95 2052.91 180.77 2040.38 151.53 2016.42 c 0
 116.14 1983.96 98.3 1944.51 98 1898.08 c 0
2 1897.99 m 0
 3.3 1975.2 32.8 2038.74 90.5 2088.6 c 0
 138.82 2129.28 193.34 2149.75 254.05 2150 c 0
 331.23 2148.7 394.75 2119.18 444.65 2061.44 c 0
 483.94 2013.15 504.39 1958.7 506 1898.07 c 0
 504.7 1820.82 475.18 1757.24 417.44 1707.35 c 0
 369.15 1668.06 314.7 1647.61 254.07 1646 c 0
 176.82 1647.3 113.26 1676.81 63.38 1734.53 c 0
 23.4 1782.83 2.93 1837.32 2 1897.99 c 0
EndSplineSet
EndChar
StartChar: uni0600
Encoding: 1536 1536 4827
Width: 2324
Flags: HW
LayerCount: 3
Fore
SplineSet
1912 -138 m 1
 1878 -64.67 1877.67 20 1911 116 c 0
 1929 168 1959.33 217.83 2002 265.5 c 128
 2044.67 313.17 2091 340.67 2141 348 c 0
 2191.67 355.33 2234.33 341 2269 305 c 0
 2281 292.33 2285.33 281 2282 271 c 0
 2262 197.67 2236.33 154 2205 140 c 0
 2201 138 2196 139.67 2190 145 c 0
 2126 201.67 2060.33 201 1993 143 c 0
 1968.33 121.67 1961.33 91.33 1972 52 c 0
 1994 -31.33 2043.33 -83.33 2120 -104 c 0
 2150 -112 2172.83 -120.17 2188.5 -128.5 c 128
 2204.17 -136.83 2211.67 -149.33 2211 -166 c 0
 2208.33 -222.67 2201 -266.33 2189 -297 c 0
 2178.33 -324.33 2163 -332.33 2143 -321 c 0
 2061 -276.33 2007.17 -253.83 1981.5 -253.5 c 128
 1955.83 -253.17 1924.33 -261.67 1887 -279 c 0
 1782.33 -328.33 1533.33 -353 1140 -353 c 0
 588.67 -353 273.33 -337.33 194 -306 c 0
 173.33 -298 148.67 -281 120 -255 c 2
 53 -193 l 2
 30.33 -172.33 24.67 -154.33 36 -139 c 0
 43.33 -128.33 68.33 -126.67 111 -134 c 0
 319.67 -168 638.33 -185 1067 -185 c 0
 1445.67 -185 1694 -176.33 1812 -159 c 0
 1854 -153 1887.33 -146 1912 -138 c 1
EndSplineSet
Layer: 2
SplineSet
1938 -136 m 1
 1917.33333333 -98 1906.16666667 -56.8333333333 1904.5 -12.5 c 128
 1902.83333333 31.8333333333 1908 71.3333333333 1920 106 c 0
 1968 242 2038 317 2130 331 c 0
 2175.33333333 337.666666667 2215.66666667 323 2251 287 c 0
 2262.33333333 275 2266.66666667 264.666666667 2264 256 c 0
 2253.33333333 216.666666667 2241 186.333333333 2227 165 c 0
 2221.66666667 157 2215.33333333 156.333333333 2208 163 c 0
 2155.33333333 209.666666667 2102.66666667 218.333333333 2050 189 c 128
 1997.33333333 159.666666667 1967.16666667 130.166666667 1959.5 100.5 c 128
 1951.83333333 70.8333333333 1949.83333333 49 1953.5 35 c 128
 1957.16666667 21 1960.5 9.5 1963.5 0.5 c 128
 1966.5 -8.5 1975.16666667 -24.5 1989.5 -47.5 c 128
 2003.83333333 -70.5 2018.83333333 -86.6666666667 2034.5 -96 c 128
 2050.16666667 -105.333333333 2073 -114 2103 -122 c 128
 2133 -130 2155.66666667 -138.166666667 2171 -146.5 c 128
 2186.33333333 -154.833333333 2193.66666667 -167 2193 -183 c 0
 2191 -230.333333333 2187.33333333 -266.666666667 2182 -292 c 0
 2178.66666667 -305.333333333 2171.33333333 -309 2160 -303 c 0
 2078 -258.333333333 2024 -235.833333333 1998 -235.5 c 128
 1972 -235.166666667 1939.66666667 -244 1901 -262 c 0
 1797.66666667 -310.666666667 1549.66666667 -335 1157 -335 c 0
 605.666666667 -335 290.333333333 -319.333333333 211 -288 c 0
 190.333333333 -280 166 -263 138 -237 c 2
 71 -175 l 2
 63.6666666667 -167.666666667 60 -160.666666667 60 -154 c 0
 60 -149.333333333 71.3333333333 -148.666666667 94 -152 c 0
 341.333333333 -186 659 -203 1047 -203 c 0
 1439.66666667 -203 1689.33333333 -194.333333333 1796 -177 c 0
 1868.66666667 -166.333333333 1916 -152.666666667 1938 -136 c 1
EndSplineSet
EndChar
StartChar: uni0601
Encoding: 1537 1537 4828
Width: 3651
Flags: HW
LayerCount: 3
Back
SplineSet
3524 -71 m 0
 3568.66666667 -71 3591 -86.3333333333 3591 -117 c 0
 3591 -134.333333333 3585.66666667 -159.5 3575 -192.5 c 128
 3564.33333333 -225.5 3548 -254.166666667 3526 -278.5 c 128
 3504 -302.833333333 3462.66666667 -347.333333333 3402 -412 c 128
 3341.33333333 -476.666666667 3290.66666667 -538 3250 -596 c 0
 3236 -615.333333333 3226.16666667 -621.666666667 3220.5 -615 c 128
 3214.83333333 -608.333333333 3216.33333333 -597 3225 -581 c 1
 3275.66666667 -496.333333333 3324.33333333 -428.833333333 3371 -378.5 c 128
 3417.66666667 -328.166666667 3464.33333333 -281 3511 -237 c 1
 3502.33333333 -217 3484.83333333 -207 3458.5 -207 c 128
 3432.16666667 -207 3399 -215.333333333 3359 -232 c 0
 3115.66666667 -331.333333333 2919.33333333 -404.666666667 2770 -452 c 0
 2458 -551.333333333 2148.66666667 -601 1842 -601 c 0
 1634 -601 1467 -581.333333333 1341 -542 c 128
 1215 -502.666666667 1104.66666667 -443.666666667 1010 -365 c 1
 999.333333333 -357.666666667 990.333333333 -359.666666667 983 -371 c 0
 945.666666667 -433.666666667 903 -478.666666667 855 -506 c 0
 825 -523.333333333 795.666666667 -532 767 -532 c 0
 715.666666667 -532 665.333333333 -505 616 -451 c 0
 608.666666667 -442.333333333 593.333333333 -423.5 570 -394.5 c 128
 546.666666667 -365.5 522.333333333 -351 497 -351 c 128
 471.666666667 -351 444.166666667 -370.666666667 414.5 -410 c 128
 384.833333333 -449.333333333 366.166666667 -478.333333333 358.5 -497 c 128
 350.833333333 -515.666666667 338.833333333 -547.5 322.5 -592.5 c 128
 306.166666667 -637.5 289.166666667 -671.333333333 271.5 -694 c 128
 253.833333333 -716.666666667 232.666666667 -728.333333333 208 -729 c 1
 158 -728.333333333 120.833333333 -697.5 96.5 -636.5 c 128
 72.1666666667 -575.5 60 -463 60 -299 c 0
 60 -285.666666667 64.5 -277.5 73.5 -274.5 c 128
 82.5 -271.5 88.3333333333 -274.833333333 91 -284.5 c 128
 93.6666666667 -294.166666667 95.3333333333 -330 96 -392 c 0
 97.3333333333 -530.666666667 131.333333333 -605 198 -615 c 1
 203 -615 l 2
 229.666666667 -615 257 -585.666666667 285 -527 c 0
 292.333333333 -511.666666667 302.333333333 -489.333333333 315 -460 c 0
 383.666666667 -292.666666667 456 -209 532 -209 c 0
 557.333333333 -209 588 -230.666666667 624 -274 c 128
 660 -317.333333333 690 -346.833333333 714 -362.5 c 128
 738 -378.166666667 765.666666667 -386 797 -386 c 0
 872.333333333 -386 941.333333333 -335 1004 -233 c 0
 1023.33333333 -201.666666667 1040 -186 1054 -186 c 0
 1064 -186 1076.33333333 -197.666666667 1091 -221 c 0
 1137.66666667 -296.333333333 1233 -354.166666667 1377 -394.5 c 128
 1521 -434.833333333 1710.33333333 -455 1945 -455 c 0
 2227 -455 2546.33333333 -395.666666667 2903 -277 c 0
 2950.33333333 -261 3049.83333333 -222.666666667 3201.5 -162 c 128
 3353.16666667 -101.333333333 3460.66666667 -71 3524 -71 c 0
395 341 m 2
 396.333333333 344.333333333 398 346 400 346 c 0
 434.666666667 346 478 326.666666667 530 288 c 0
 535.333333333 284 536.333333333 279.666666667 533 275 c 1
 471 151 l 1
 515 139.666666667 554.666666667 120.333333333 590 93 c 0
 595.333333333 89 596 84.3333333333 592 79 c 1
 524 -51 l 2
 524 -51.6666666667 521.333333333 -52 516 -52 c 128
 510.666666667 -52 467.666666667 -30.3333333333 387 13 c 0
 382.333333333 15.6666666667 381.333333333 19 384 23 c 2
 453 143 l 1
 450.333333333 146.333333333 409 167.666666667 329 207 c 0
 324.333333333 209.666666667 323.333333333 212.666666667 326 216 c 1
 395 341 l 2
884 194 m 2
 886 198 888.333333333 200 891 200 c 2
 897 200 l 1
 942.333333333 192.666666667 984.333333333 176.666666667 1023 152 c 0
 1028.33333333 148.666666667 1029.66666667 144 1027 138 c 2
 971 3 l 2
 971 2.33333333333 967.666666667 2 961 2 c 128
 954.333333333 2 910.333333333 19.3333333333 829 54 c 0
 824.333333333 56 823 59 825 63 c 2
 884 194 l 2
-69.705078125 234.931640625 m 1
 -50.6705729167 252.432291667 -29.0735677083 254.347005209 -4.9140625 240.67578125 c 0
 65.0410156253 200.180989583 112.876302084 152.443033854 138.591796875 97.4619140625 c 0
 150.328125 71.8271484375 156.451171875 45.9361979167 156.9609375 19.7890625 c 0
 157.350260417 -35.580078125 145.105794271 -75.6201171877 120.227539062 -100.331054688 c 0
 110.098632813 -110.215169271 97.3750000003 -114.586263021 82.056640625 -113.444335938 c 0
 59.7356770833 -111.605143229 29.7379557292 -103.918945312 -7.9365234375 -90.3857421875 c 1
 -28.9866536458 -147.137695312 -66.9563802083 -201.402669271 -121.845703125 -253.180664062 c 0
 -133.606770834 -264.185221354 -145.19140625 -274.099609375 -156.599609375 -282.923828125 c 0
 -251.12109375 -355.669270834 -353.910481771 -420.16796875 -464.967773438 -476.419921875 c 0
 -467.191731771 -477.544270833 -469.166015625 -478.541341145 -470.890625 -479.411132812 c 0
 -480.1875 -484.094726563 -484.984700521 -483.477213542 -485.282226562 -477.55859375 c 1
 -484.870768229 -472.46484375 -481.78515625 -467.55078125 -476.025390625 -462.81640625 c 0
 -458.096354167 -449.1796875 -430.595377605 -428.830729167 -393.522460938 -401.76953125 c 0
 -305.333658854 -337.314453125 -240.080729166 -286.217122395 -197.763671875 -248.477539062 c 0
 -117.513671875 -176.530924479 -66.7268880208 -119.307942709 -45.4033203125 -76.80859375 c 1
 -69.5465494792 -66.5078125 -91.75 -54.9417317708 -112.013671875 -42.1103515625 c 0
 -142.126302084 -22.1910807292 -153.049804688 8.16634114583 -144.784179688 48.9619140625 c 0
 -143.843424479 53.4541015625 -142.61328125 60.3323567708 -141.09375 69.5966796875 c 0
 -137.840494792 88.8681640625 -134.659179688 103.015625 -131.549804688 112.0390625 c 0
 -119.409830729 145.744791667 -105.533854167 170.708007813 -89.921875 186.928710938 c 1
 -87.0618489583 208.418945313 -80.3229166667 224.419921875 -69.705078125 234.931640625 c 1
-56.22265625 118.19140625 m 0
 -69.2278645833 119.477213542 -79.8095703125 111.782877605 -87.9677734375 95.1083984375 c 0
 -96.1259765625 77.2561848958 -95.2701822917 62.5416666667 -85.400390625 50.96484375 c 0
 -77.1653645833 41.8450520833 -59.6123046875 33.1233723958 -32.7412109375 24.7998046875 c 0
 -31.2112630208 24.3232421875 -30.0423177083 23.9586588542 -29.234375 23.7060546875 c 0
 -24.328125 23.2353515625 -21.5026041667 24.9602864583 -20.7578125 28.880859375 c 0
 -16.5989583333 85.1946614583 -28.4205729167 114.96484375 -56.22265625 118.19140625 c 0
48.7939453125 97.0888671875 m 1
 38.9052734375 104.782226562 34.2942708333 104.182291667 34.9609375 95.2890625 c 0
 37.744140625 73.94921875 33.3053385417 44.5940755208 21.64453125 7.2236328125 c 1
 42.9947916667 -3.74967447917 62.4658203125 -10.3997395833 80.0576171875 -12.7265625 c 0
 91.0921223958 -14.119140625 97.2369791667 -13.6800130208 98.4921875 -11.4091796875 c 0
 99.5292968747 -8.73795572917 100.071289062 -3.82291666667 100.118164062 3.3359375 c 0
 99.6370442707 36.30859375 82.5289713542 67.5595703125 48.7939453125 97.0888671875 c 1
EndSplineSet
Fore
SplineSet
1002.1 -397.29 m 1
 932.85 -506.57 854.48 -561.48 767 -562 c 1
 706.56 -561.33 648.72 -530.93 593.47 -470.81 c 0
 585.02 -460.77 570.76 -443.3 550.71 -418.38 c 128
 530.66 -393.46 512.71 -381.32 496.86 -381.95 c 128
 481.01 -382.58 460.36 -399.7 434.88 -433.3 c 128
 409.4 -466.9 392.99 -492.57 385.63 -510.32 c 128
 378.27 -528.07 366.2 -559.91 349.42 -605.86 c 128
 332.64 -651.81 313.4 -688.5 291.71 -715.93 c 128
 270.02 -743.36 242.19 -757.72 208.21 -759.01 c 1
 144.52 -757.2 98.9 -721.84 71.38 -652.94 c 128
 43.86 -584.04 30.07 -466.06 30 -299 c 0
 30 -271.8 40.36 -254.61 61.09 -247.43 c 0
 92.02 -236.71 112.08 -248.45 121.27 -282.64 c 0
 123.74 -291.84 125.32 -328.19 126 -391.69 c 0
 127.55 -511.1 152.37 -575.54 200.44 -585 c 1
 203 -585 l 2
 219.87 -585 247.98 -539.45 287.35 -448.36 c 1
 360.78 -269.42 442.33 -179.64 532 -179 c 1
 567.16 -179.77 603.65 -202.8 641.49 -248.1 c 128
 679.33 -293.4 708.49 -322.66 728.97 -335.89 c 128
 749.45 -349.12 772.12 -355.82 797 -356 c 0
 861.44 -354.92 921.92 -308.67 978.45 -217.27 c 0
 1026.55 -139.32 1072.44 -135 1116.13 -204.32 c 128
 1159.82 -273.64 1251.06 -327.74 1389.83 -366.6 c 128
 1528.6 -405.46 1725.62 -424.85 1980.9 -424.76 c 128
 2236.18 -424.67 2540.36 -365.94 2893.46 -248.56 c 0
 2941.09 -232.4 3041.29 -193.76 3194.06 -132.66 c 128
 3346.83 -71.56 3451.54 -41 3508.18 -41 c 0
 3582.75 -41 3620.36 -66.33 3621 -117 c 0
 3620.74 -138.11 3614.67 -166.82 3602.8 -203.14 c 128
 3590.93 -239.46 3573.15 -270.77 3549.47 -297.06 c 128
 3525.79 -323.35 3483.99 -368.49 3424.06 -432.45 c 128
 3364.13 -496.41 3322.45 -544.92 3299.01 -577.97 c 128
 3275.57 -611.02 3258.98 -631.84 3249.24 -640.45 c 128
 3239.5 -649.06 3229.47 -651.32 3219.16 -647.23 c 0
 3184.12 -633.33 3177.38 -606.31 3198.93 -566.15 c 1
 3251.12 -479.22 3299.02 -412.2 3342.65 -365.11 c 128
 3386.28 -318.02 3427.72 -275.51 3466.95 -237.57 c 1
 3444.47 -235.04 3412.3 -242.43 3370.44 -259.73 c 0
 3126.2 -359.39 2929.07 -433.01 2779.08 -480.59 c 0
 2463.81 -580.75 2151.45 -630.89 1842 -631 c 0
 1630.85 -630.84 1461.86 -610.93 1335.03 -571.26 c 128
 1208.2 -531.59 1097.22 -473.6 1002.1 -397.29 c 1
EndSplineSet
Layer: 2
SplineSet
3524 -71 m 0
 3568.66666667 -71 3591 -86.3333333333 3591 -117 c 0
 3591 -134.333333333 3585.66666667 -159.5 3575 -192.5 c 128
 3564.33333333 -225.5 3548 -254.166666667 3526 -278.5 c 128
 3504 -302.833333333 3462.66666667 -347.333333333 3402 -412 c 128
 3341.33333333 -476.666666667 3290.66666667 -538 3250 -596 c 0
 3236 -615.333333333 3226.16666667 -621.666666667 3220.5 -615 c 128
 3214.83333333 -608.333333333 3216.33333333 -597 3225 -581 c 1
 3275.66666667 -496.333333333 3324.33333333 -428.833333333 3371 -378.5 c 128
 3417.66666667 -328.166666667 3464.33333333 -281 3511 -237 c 1
 3502.33333333 -217 3484.83333333 -207 3458.5 -207 c 128
 3432.16666667 -207 3399 -215.333333333 3359 -232 c 0
 3115.66666667 -331.333333333 2919.33333333 -404.666666667 2770 -452 c 0
 2458 -551.333333333 2148.66666667 -601 1842 -601 c 0
 1634 -601 1467 -581.333333333 1341 -542 c 128
 1215 -502.666666667 1104.66666667 -443.666666667 1010 -365 c 1
 999.333333333 -357.666666667 990.333333333 -359.666666667 983 -371 c 0
 945.666666667 -433.666666667 903 -478.666666667 855 -506 c 0
 825 -523.333333333 795.666666667 -532 767 -532 c 0
 715.666666667 -532 665.333333333 -505 616 -451 c 0
 608.666666667 -442.333333333 593.333333333 -423.5 570 -394.5 c 128
 546.666666667 -365.5 522.333333333 -351 497 -351 c 128
 471.666666667 -351 444.166666667 -370.666666667 414.5 -410 c 128
 384.833333333 -449.333333333 366.166666667 -478.333333333 358.5 -497 c 128
 350.833333333 -515.666666667 338.833333333 -547.5 322.5 -592.5 c 128
 306.166666667 -637.5 289.166666667 -671.333333333 271.5 -694 c 128
 253.833333333 -716.666666667 232.666666667 -728.333333333 208 -729 c 1
 158 -728.333333333 120.833333333 -697.5 96.5 -636.5 c 128
 72.1666666667 -575.5 60 -463 60 -299 c 0
 60 -285.666666667 64.5 -277.5 73.5 -274.5 c 128
 82.5 -271.5 88.3333333333 -274.833333333 91 -284.5 c 128
 93.6666666667 -294.166666667 95.3333333333 -330 96 -392 c 0
 97.3333333333 -530.666666667 131.333333333 -605 198 -615 c 1
 203 -615 l 2
 229.666666667 -615 257 -585.666666667 285 -527 c 0
 292.333333333 -511.666666667 302.333333333 -489.333333333 315 -460 c 0
 383.666666667 -292.666666667 456 -209 532 -209 c 0
 557.333333333 -209 588 -230.666666667 624 -274 c 128
 660 -317.333333333 690 -346.833333333 714 -362.5 c 128
 738 -378.166666667 765.666666667 -386 797 -386 c 0
 872.333333333 -386 941.333333333 -335 1004 -233 c 0
 1023.33333333 -201.666666667 1040 -186 1054 -186 c 0
 1064 -186 1076.33333333 -197.666666667 1091 -221 c 0
 1137.66666667 -296.333333333 1233 -354.166666667 1377 -394.5 c 128
 1521 -434.833333333 1710.33333333 -455 1945 -455 c 0
 2227 -455 2546.33333333 -395.666666667 2903 -277 c 0
 2950.33333333 -261 3049.83333333 -222.666666667 3201.5 -162 c 128
 3353.16666667 -101.333333333 3460.66666667 -71 3524 -71 c 0
EndSplineSet
EndChar
StartChar: uni0602
Encoding: 1538 1538 4825
Width: 1664
Flags: HW
LayerCount: 3
Fore
SplineSet
307.67 -148.57 m 1
 302.35 -80.69 282.37 -42.85 247.73 -35.05 c 128
 213.09 -27.25 192.62 -32.7 186.32 -51.4 c 1
 175.32 -88.39 186.62 -112.96 220.19 -125.13 c 0
 244.98 -134.12 274.14 -141.93 307.67 -148.57 c 1
169.15 -305.11 m 0
 138.38 -290.1 111.39 -268.71 88.18 -240.94 c 128
 64.97 -213.17 53.25 -180.19 53 -142 c 0
 53.51 -63.62 81.02 6.99 135.51 69.85 c 1
 201.05 141.91 271.63 155.57 347.26 110.83 c 0
 393.56 82.95 416.81 18.67 417 -82 c 0
 416.94 -107.99 415.55 -136.22 412.84 -166.68 c 1
 498.51 -175.53 650.4 -179.61 868.53 -178.91 c 128
 1086.66 -178.21 1307.11 -158.72 1529.89 -120.44 c 0
 1546.31 -117.67 1559.06 -116.2 1568.16 -116.01 c 1
 1587.21 -117.24 l 1
 1602.48 -122.49 1610.26 -133.45 1610.56 -150.1 c 128
 1610.86 -166.75 1601.44 -181.05 1582.32 -193 c 0
 1578.58 -195.38 1576.15 -196.94 1575.02 -197.7 c 2
 1489.92 -255.77 l 2
 1461.25 -275.08 1429.74 -289.17 1395.4 -298.07 c 0
 1229.7 -339.96 1003.63 -360.88 717.19 -360.84 c 128
 430.75 -360.8 248.08 -342.23 169.15 -305.11 c 0
EndSplineSet
Layer: 2
SplineSet
226 -2 m 0
 177.333333333 -2 153 -28 153 -80 c 0
 153 -115.333333333 176 -141.666666667 222 -159 c 1
 244.666666667 -166.333333333 283.666666667 -175 339 -185 c 1
 339 -63 301.333333333 -2 226 -2 c 0
182 -278 m 0
 155.333333333 -265.333333333 132.166666667 -247.333333333 112.5 -224 c 128
 92.8333333333 -200.666666667 83 -173.333333333 83 -142 c 0
 83 -71.3333333333 108 -7.33333333333 158 50 c 0
 191.333333333 87.3333333333 222.833333333 106 252.5 106 c 128
 282.166666667 106 308.666666667 99 332 85 c 0
 368.666666667 63.6666666667 387 8 387 -82 c 0
 387 -114.666666667 384.666666667 -151.666666667 380 -193 c 1
 464.666666667 -204.333333333 601.666666667 -210 791 -210 c 0
 1062.33333333 -208.666666667 1310.33333333 -188.666666667 1535 -150 c 0
 1565.66666667 -144.666666667 1581 -144.666666667 1581 -150 c 256
 1581 -154.666666667 1573.33333333 -162.333333333 1558 -173 c 2
 1473 -231 l 2
 1447.66666667 -248.333333333 1419.33333333 -261 1388 -269 c 0
 1225.33333333 -310.333333333 1002.33333333 -331 719 -331 c 128
 435.666666667 -331 256.666666667 -313.333333333 182 -278 c 0
EndSplineSet
EndChar
StartChar: uni0603
Encoding: 1539 1539 4826
Width: 2272
Flags: HW
LayerCount: 3
Fore
SplineSet
30 -122 m 0
 30 -88.7718874765 52.3748742663 -78.0563685453 97.124622799 -89.8534432064 c 0
 98.9794239579 -90.3424119374 99.9288415281 -90.5914292128 99.9728755097 -90.6004950325 c 0
 397.493859613 -150.123617255 656.836234443 -179.923452244 878 -180 c 0
 1195.85810476 -179.815076535 1419.06163372 -147.866305499 1547.61058689 -84.1536868914 c 0
 1567.99055568 -73.9637024979 1588.63699099 -81.6746170134 1609.54989283 -107.286430438 c 128
 1630.46279466 -132.898243862 1662.46832271 -149.147268153 1705.56647696 -156.033503311 c 1
 1832.20231637 24.7846212457 1953.98318796 115.795789016 2070.90909174 117 c 1
 2097.4810828 116.510230803 2132.53072486 101.967754892 2176.05801791 73.3725722685 c 128
 2219.58531096 44.7773896448 2241.36047101 7.82239315983 2241.38349808 -37.4924171865 c 128
 2241.40652515 -82.8072275328 2227.95976995 -129.405550183 2201.04323246 -177.287385137 c 128
 2174.12669498 -225.16922009 2154.51777765 -254.018855282 2142.21648047 -263.836290712 c 0
 2064.22134408 -322.429906509 1959.48251725 -351.817809605 1828 -352 c 0
 1785.64471237 -351.859969951 1745.64573313 -347.550201232 1708.00306226 -339.070693842 c 1
 1701.68574155 -356.495814375 1695.5013792 -378.856037327 1689.44997519 -406.151362696 c 128
 1683.39857118 -433.446688065 1667.87326862 -447.245292291 1642.87406751 -447.547175375 c 128
 1617.8748664 -447.849058458 1601.81978152 -435.794005327 1594.70881287 -411.382015982 c 128
 1587.59784422 -386.970026637 1591.90660657 -352.590541283 1607.63509991 -308.243559922 c 1
 1577.58911706 -298.720190878 1549.41177582 -284.520548807 1523.10307618 -265.64463371 c 1
 1393.02858878 -331.127272355 1159.66089672 -363.912394452 823 -364 c 0
 595.444093581 -363.840709958 393.799760131 -339.818082933 218.06699965 -291.932118924 c 0
 171.075723005 -278.668816206 136.957339517 -260.385086206 115.711849186 -237.080928925 c 2
 48.8230018034 -163.203694502 l 2
 36.6159878775 -149.019091968 30.341653943 -135.284527134 30 -122 c 0
2089.45730644 -141.37259735 m 1
 2019.38500771 -40.1138559794 1932.40678113 -51.5646695457 1828.52262671 -175.725038049 c 1
 1866.45493559 -176.632725631 1914.5757448 -173.721678887 1972.88505435 -166.991897817 c 128
 2031.1943639 -160.262116747 2070.05178126 -151.722349925 2089.45730644 -141.37259735 c 1
EndSplineSet
Layer: 2
SplineSet
1644 -418 m 0
 1628 -418 1620 -407.5 1620 -386.5 c 128
 1620 -365.5 1629.33333333 -332.333333333 1648 -287 c 1
 1604 -279.666666667 1563.33333333 -260.666666667 1526 -230 c 1
 1405.33333333 -299.333333333 1171 -334 823 -334 c 0
 598.333333333 -334 399.333333333 -310.333333333 226 -263 c 0
 184.666666667 -251.666666667 155.333333333 -236.333333333 138 -217 c 2
 71 -143 l 2
 63.6666666667 -135 60 -128 60 -122 c 128
 60 -116 71.3333333333 -115.333333333 94 -120 c 0
 393.333333333 -180 654.666666667 -210 878 -210 c 0
 1200.66666667 -210 1428.33333333 -177 1561 -111 c 0
 1566.33333333 -108.333333333 1576 -115 1590 -131 c 0
 1618.66666667 -163.666666667 1662 -182.666666667 1720 -188 c 1
 1844 -5.33333333333 1961 86.3333333333 2071 87 c 0
 2091 87 2119.5 75 2156.5 51 c 128
 2193.5 27 2212 -3.66666666667 2212 -41 c 128
 2212 -78.3333333333 2199.5 -119.166666667 2174.5 -163.5 c 128
 2149.5 -207.833333333 2132.66666667 -233.333333333 2124 -240 c 0
 2052 -294.666666667 1953.33333333 -322 1828 -322 c 0
 1779.33333333 -322 1734 -316 1692 -304 c 1
 1682 -317.333333333 1671 -350.666666667 1659 -404 c 16
 1657 -413.333333333 1652 -418 1644 -418 c 0
2124 -140 m 0
 2086 -75.3333333333 2036.83333333 -43 1976.5 -43 c 128
 1916.16666667 -43 1847.66666667 -95.6666666667 1771 -201 c 1
 1791.66666667 -204.333333333 1817.83333333 -206 1849.5 -206 c 128
 1881.16666667 -206 1930.5 -202.166666667 1997.5 -194.5 c 128
 2064.5 -186.833333333 2106.66666667 -172.666666667 2124 -152 c 0
 2125.33333333 -150.666666667 2126 -149 2126 -147 c 128
 2126 -145 2125.33333333 -142.666666667 2124 -140 c 0
EndSplineSet
EndChar
StartChar: uni0604
Encoding: 1540 1540 6073
Width: 4472
Flags: HW
LayerCount: 3
Fore
SplineSet
219 -323 m 0
 211.666666667 -317.666666667 184 -291.666666667 136 -245 c 2
 69 -183 l 2
 46.3333333333 -162.333333333 40.6666666667 -144.333333333 52 -129 c 0
 57.3333333333 -121.666666667 82.3333333333 -120 127 -124 c 24
 451.666666667 -152.666666667 994.333333333 -167.333333333 1755 -168 c 0
 2663.66666667 -168.666666667 3211 -153.666666667 3397 -123 c 0
 3399 -123 3401 -122.666666667 3403 -122 c 0
 3483 -115.333333333 3541.66666667 -102 3579 -82 c 1
 3540.33333333 4.66666666667 3536 89 3566 171 c 1
 3618.66666667 305.666666667 3692.33333333 375 3787 379 c 0
 3825.66666667 380.333333333 3860 353.666666667 3890 299 c 0
 3910 263 3935 244.666666667 3965 244 c 0
 4038.33333333 242 4111 299 4183 415 c 0
 4191.66666667 429 4203.5 430.833333333 4218.5 420.5 c 128
 4233.5 410.166666667 4233.66666667 391 4219 363 c 0
 4213 351.666666667 4209.5 343.666666667 4208.5 339 c 128
 4207.5 334.333333333 4210.66666667 330.333333333 4218 327 c 0
 4262.66666667 301 4310 286.666666667 4360 284 c 1
 4349.33333333 299.333333333 4338 312 4326 322 c 128
 4314 332 4312.33333333 344.666666667 4321 360 c 2
 4373 450 l 2
 4385.66666667 472 4399 472.333333333 4413 451 c 0
 4450.33333333 396.333333333 4456 322 4430 228 c 0
 4415.33333333 176 4397.16666667 139 4375.5 117 c 128
 4353.83333333 95 4325.66666667 86.3333333333 4291 91 c 0
 4222.33333333 101.666666667 4164 121.666666667 4116 151 c 1
 4054 75 3985.33333333 39 3910 43 c 1
 3860 49 3815.66666667 86 3777 154 c 0
 3769.66666667 167.333333333 3759.33333333 175.666666667 3746 179 c 1
 3697.33333333 186.333333333 3659 177.666666667 3631 153 c 1
 3632.33333333 116.333333333 3644.33333333 80.3333333333 3667 45 c 128
 3689.66666667 9.66666666667 3713.66666667 -15.3333333333 3739 -30 c 0
 3748.33333333 -35.3333333333 3771 -42.8333333333 3807 -52.5 c 128
 3843 -62.1666666667 3874.33333333 -73.6666666667 3901 -87 c 128
 3927.66666667 -100.333333333 3940.66666667 -121.333333333 3940 -150 c 0
 3936.66666667 -232.666666667 3929.5 -284.833333333 3918.5 -306.5 c 128
 3907.5 -328.166666667 3889.33333333 -332.333333333 3864 -319 c 0
 3766.66666667 -266.333333333 3703.5 -239.666666667 3674.5 -239 c 128
 3645.5 -238.333333333 3603.33333333 -251.333333333 3548 -278 c 256
 3492 -304.666666667 3371.33333333 -325.833333333 3186 -341.5 c 128
 3000.66666667 -357.166666667 2539.33333333 -361.333333333 1802 -354 c 0
 760.666666667 -344 233 -333.666666667 219 -323 c 0
EndSplineSet
Layer: 2
SplineSet
226 -307 m 1
 202 -291.666666667 172.666666667 -268.333333333 138 -237 c 2
 71 -175 l 2
 63.6666666667 -168.333333333 60 -162.333333333 60 -157 c 128
 60 -151.666666667 71.3333333333 -150 94 -152 c 24
 423.333333333 -182.666666667 980 -198.333333333 1764 -199 c 128
 2548 -199.666666667 3091.66666667 -184.333333333 3395 -153 c 1
 3485.66666667 -144.333333333 3551.33333333 -126.333333333 3592 -99 c 1
 3545.33333333 -13 3536.33333333 71.6666666667 3565 155 c 1
 3612.33333333 279.666666667 3683.66666667 344 3779 348 c 0
 3807 349.333333333 3833.16666667 327.5 3857.5 282.5 c 128
 3881.83333333 237.5 3914 214.333333333 3954 213 c 1
 4026 209 4100.33333333 269.666666667 4177 395 c 0
 4186.33333333 410.333333333 4195.5 413 4204.5 403 c 128
 4213.5 393 4213.16666667 378.333333333 4203.5 359 c 128
 4193.83333333 339.666666667 4189 328 4189 324 c 0
 4189 307.333333333 4197.66666667 295.666666667 4215 289 c 0
 4275 265 4321 257.666666667 4353 267 c 0
 4362.33333333 269.666666667 4353 288.333333333 4325 323 c 0
 4322.33333333 326.333333333 4322 329.666666667 4324 333 c 2
 4383 429 l 2
 4385.66666667 433 4389 432.666666667 4393 428 c 0
 4427.66666667 387.333333333 4431.66666667 320.666666667 4405 228 c 0
 4391 179.333333333 4375.5 146.166666667 4358.5 128.5 c 128
 4341.5 110.833333333 4317 104 4285 108 c 1
 4214.33333333 118.666666667 4157.66666667 138.333333333 4115 167 c 0
 4111 169.666666667 4107.66666667 169.333333333 4105 166 c 0
 4050.33333333 87.3333333333 3982.66666667 52 3902 60 c 0
 3859.33333333 64 3821.66666667 96.6666666667 3789 158 c 0
 3778.33333333 178 3762.33333333 190.333333333 3741 195 c 1
 3685 205 3640.66666667 191.666666667 3608 155 c 1
 3608.66666667 107.666666667 3621.16666667 64.5 3645.5 25.5 c 128
 3669.83333333 -13.5 3696.33333333 -41.3333333333 3725 -58 c 1
 3735 -64.6666666667 3758.33333333 -72.8333333333 3795 -82.5 c 128
 3831.66666667 -92.1666666667 3859.5 -102.166666667 3878.5 -112.5 c 128
 3897.5 -122.833333333 3906.66666667 -137.333333333 3906 -156 c 0
 3904 -214 3899.33333333 -259.333333333 3892 -292 c 0
 3888 -308.666666667 3879 -313 3865 -305 c 0
 3764.33333333 -250.333333333 3697.83333333 -222.5 3665.5 -221.5 c 128
 3633.16666667 -220.5 3590 -233 3536 -259 c 256
 3482 -285 3365.83333333 -306.5 3187.5 -323.5 c 128
 3009.16666667 -340.5 2563.83333333 -348.666666667 1851.5 -348 c 128
 1139.16666667 -347.333333333 597.333333333 -333.666666667 226 -307 c 1
EndSplineSet
EndChar
StartChar: uni0608
Encoding: 1544 1544 4619
Width: 1763
Flags: HW
LayerCount: 3
Fore
SplineSet
1224 212 m 0
 1208 248 1186.17 265.67 1158.5 265 c 128
 1130.83 264.33 1120.67 255 1128 237 c 0
 1141.33 205.67 1170.33 192.33 1215 197 c 0
 1225 198.33 1228 203.33 1224 212 c 0
458 246 m 0
 492 281.33 516.67 290.5 532 273.5 c 128
 547.33 256.5 543.67 232.33 521 201 c 0
 413 46.33 398.67 -87.33 478 -200 c 0
 518.67 -257.33 595 -292.67 707 -306 c 128
 819 -319.33 932 -304.17 1046 -260.5 c 128
 1160 -216.83 1238 -154.33 1280 -73 c 1
 1282.67 -62.33 1281.67 -47 1277 -27 c 1
 1156.33 -23.67 1073.33 -1 1028 41 c 0
 975.33 89.67 988.67 182.67 1068 320 c 0
 1129.33 427.33 1179.33 478.67 1218 474 c 0
 1306 463.33 1366.33 377.33 1399 216 c 1
 1475 222.67 1551 240.33 1627 269 c 1
 1693.67 295.67 1711.67 268.33 1681 187 c 2
 1609 0 l 2
 1597 -30.67 1580.33 -43.67 1559 -39 c 128
 1537.67 -34.33 1529.67 -20 1535 4 c 1
 1482.33 -9.33 1432 -20 1384 -28 c 1
 1378.67 -48.67 1368.5 -86.17 1353.5 -140.5 c 128
 1338.5 -194.83 1316 -242 1286 -282 c 0
 1174.67 -430.67 1011.67 -520 797 -550 c 0
 688.33 -565.33 591.5 -547.83 506.5 -497.5 c 128
 421.5 -447.17 366.33 -382 341 -302 c 0
 311 -206.67 318 -97 362 27 c 1
 288.67 -33 211 -70.67 129 -86 c 0
 85.67 -94 65.33 -80.33 68 -45 c 2
 75 60 l 2
 77 92.67 93.33 109.33 124 110 c 0
 263.33 114 374.67 159.33 458 246 c 0
EndSplineSet
Layer: 2
SplineSet
1226 198 m 1
 1207.33333333 266.666666667 1175.66666667 300.666666667 1131 300 c 0
 1101.66666667 299.333333333 1091.66666667 286.333333333 1101 261 c 0
 1114.33333333 228.333333333 1156 207.333333333 1226 198 c 1
1289 -87 m 0
 1295.66666667 -72.3333333333 1293.33333333 -43.3333333333 1282 0 c 1
 1158 3.33333333333 1075 24 1033 62 c 0
 987 103.333333333 998.333333333 188.333333333 1067 317 c 0
 1114.33333333 409.666666667 1157 456 1195 456 c 0
 1279 456 1336 366.666666667 1366 188 c 1
 1440.66666667 186.666666667 1525.33333333 202 1620 234 c 0
 1671.33333333 252 1689 240 1673 198 c 2
 1601 11 l 2
 1594.33333333 -7 1583.33333333 -13.6666666667 1568 -9 c 0
 1554.66666667 -5 1551 5.33333333333 1557 22 c 2
 1566 46 l 1
 1497.33333333 21.3333333333 1429 6.66666666667 1361 2 c 1
 1355 -30 1345.33333333 -68.3333333333 1332 -113 c 0
 1313.33333333 -179.666666667 1290.33333333 -230.666666667 1263 -266 c 0
 1154.33333333 -410.666666667 994.666666667 -496 784 -522 c 0
 665.333333333 -536.666666667 564 -520 480 -472 c 0
 410.666666667 -432 364.666666667 -374.333333333 342 -299 c 0
 308.666666667 -189 322.333333333 -68 383 64 c 1
 301.666666667 -9.33333333333 213 -53 117 -67 c 0
 97.6666666667 -69.6666666667 88.6666666667 -60 90 -38 c 2
 94 32 l 2
 95.3333333333 56 103 68.3333333333 117 69 c 0
 241.666666667 75 359.333333333 129.666666667 470 233 c 0
 488.666666667 251 502.666666667 256.333333333 512 249 c 0
 524 239.666666667 525.333333333 228.333333333 516 215 c 0
 396.666666667 44.3333333333 376 -100.333333333 454 -219 c 0
 496 -283.666666667 576.333333333 -323.333333333 695 -338 c 0
 811 -352.666666667 927.666666667 -336.666666667 1045 -290 c 0
 1165 -242.666666667 1246.33333333 -175 1289 -87 c 0
EndSplineSet
EndChar
StartChar: uni060B
Encoding: 1547 1547 4620
Width: 1026
Flags: HW
LayerCount: 3
Fore
SplineSet
639 659 m 0
 607.67 659 590 628.67 586 568 c 1
 606 561.33 632 559.67 664 563 c 0
 696 566.33 716 574.33 724 587 c 1
 693.33 635 665 659 639 659 c 0
852 370 m 1
 844 434 830.67 449 812 415 c 0
 786 369 752.33 341.33 711 332 c 0
 577 300 505.67 335.33 497 438 c 0
 487 556.67 504.33 665.33 549 764 c 0
 593.67 862.67 640.67 911.67 690 911 c 0
 731.33 911 765.67 897.33 793 870 c 0
 901.67 760 956 610.33 956 421 c 0
 956 319 936.33 238.33 897 179 c 0
 784.33 9.67 538 -56.67 158 -20 c 0
 116 -16 91.33 4 84 40 c 2
 63 137 l 2
 57 164.33 61.67 186.67 77 204 c 0
 92.33 221.33 118.33 228.33 155 225 c 0
 474.33 190.33 706.67 238.67 852 370 c 1
EndSplineSet
Refer: 191 -1 N 1 0 0 1 621 1010 2
Refer: 255 1648 N 1 0 0 1 240 -2510 2
Layer: 2
SplineSet
697 838 m 0
 715 838 737 826.666666667 763 804 c 0
 885 696.666666667 942.666666667 561.666666667 936 399 c 0
 932.666666667 323 911.666666667 254.666666667 873 194 c 0
 773 37.3333333333 535.666666667 -24 161 10 c 0
 133.666666667 12.6666666667 117.666666667 24.6666666667 113 46 c 2
 92 143 l 2
 83.3333333333 183.666666667 103 201 151 195 c 0
 485 157.666666667 716.666666667 203 846 331 c 1
 842.666666667 371.666666667 836.333333333 398.666666667 827 412 c 128
 817.666666667 425.333333333 810 431.333333333 804 430 c 128
 798 428.666666667 794 425.666666667 792 421 c 0
 768.666666667 361.666666667 733.333333333 326.666666667 686 316 c 0
 536 284 467.333333333 342 480 490 c 0
 486 562.666666667 513 639 561 719 c 128
 609 799 654.333333333 838.666666667 697 838 c 0
573 524 m 1
 646.333333333 510.666666667 693.333333333 517.333333333 714 544 c 1
 682.666666667 593.333333333 654.333333333 617.333333333 629 616 c 0
 594.333333333 614.666666667 575.666666667 584 573 524 c 1
EndSplineSet
EndChar
StartChar: uni060C
Encoding: 1548 1548 167
Width: 756
Flags: HW
LayerCount: 3
Fore
SplineSet
404 838 m 1
 425.33 851.33 444 856 460 852 c 0
 492 844 510 825.33 514 796 c 1
 515.33 776 508 757.33 492 740 c 0
 340 581.33 282 437.33 318 308 c 1
 352.67 338 394.67 353.17 444 353.5 c 128
 493.33 353.83 536 336 572 300 c 128
 608 264 625.67 220.33 625 169 c 128
 624.33 117.67 604.67 73.33 566 36 c 1
 526.67 -0.67 479.83 -18.17 425.5 -16.5 c 128
 371.17 -14.83 326.67 -0.67 292 26 c 0
 198.67 99.33 159.33 231.33 174 422 c 1
 182 508.67 211.5 592 262.5 672 c 128
 313.5 752 360.67 807.33 404 838 c 1
EndSplineSet
Layer: 2
SplineSet
422 813 m 0
 444 828.333333333 462.166666667 828 476.5 812 c 128
 490.833333333 796 488.666666667 778.333333333 470 759 c 0
 301.333333333 585.666666667 243.666666667 425 297 277 c 24
 303 261 310.666666667 258 320 268 c 0
 351.333333333 306 391.666666667 325 441 325 c 0
 483.666666667 325 520.166666667 309.833333333 550.5 279.5 c 128
 580.833333333 249.166666667 596 212.666666667 596 170 c 128
 596 127.333333333 579.5 90.3333333333 546.5 59 c 128
 513.5 27.6666666667 475.666666667 12.6666666667 433 14 c 0
 381 15.3333333333 340 27.6666666667 310 51 c 0
 224 117.666666667 188.666666667 240.666666667 204 420 c 0
 211.333333333 501.333333333 239.5 580.166666667 288.5 656.5 c 128
 337.5 732.833333333 382 785 422 813 c 0
EndSplineSet
EndChar
StartChar: uni060D
Encoding: 1549 1549 4823
Width: 648
Flags: HW
LayerCount: 3
Fore
SplineSet
576.25 929.44 m 1
 546.24 863.42 l 1
 524.39 817.97 498.39 794.12 468.24 791.86 c 1
 449.9 791.36 431.62 798.46 413.4 813.17 c 128
 395.18 827.88 363.9 813.69 319.56 770.61 c 128
 275.22 727.53 222.54 656.75 161.53 558.25 c 1
 134.39 516.17 105.91 503.09 76.1 519.03 c 128
 46.29 534.97 41.72 567.88 62.4 617.76 c 1
 99.61 703.46 157.29 803.26 235.41 917.18 c 1
 331.93 1051.76 429.6 1110.2 528.43 1092.5 c 1
 603.64 1077.34 619.59 1022.98 576.25 929.44 c 1
EndSplineSet
Layer: 2
SplineSet
549 942 m 2
 519 876 l 2
 493.666666667 822 466 808.333333333 436 835 c 0
 402.666666667 863.666666667 360.333333333 852.666666667 309 802 c 0
 256.333333333 751.333333333 198.666666667 675.333333333 136 574 c 0
 120 548 105.333333333 538 92 544 c 0
 76.6666666667 552 76 572.666666667 90 606 c 0
 126 689.333333333 182.666666667 787.333333333 260 900 c 0
 348.666666667 1024.66666667 436.333333333 1079 523 1063 c 0
 573.666666667 1053.66666667 582.333333333 1013.33333333 549 942 c 2
EndSplineSet
EndChar
StartChar: uni060E
Encoding: 1550 1550 4824
Width: 1375
Flags: HW
LayerCount: 3
Fore
SplineSet
304.66852857 305.426035493 m 1
 299.345801911 373.308464323 279.365638359 411.149901501 244.728037916 418.950347026 c 128
 210.090437473 426.750792551 189.622634143 421.300756124 183.324627927 402.600237745 c 1
 172.327401924 365.612644349 183.614361429 341.034989735 217.185506441 328.867273904 c 0
 241.975844068 319.882123606 271.136851445 312.068377469 304.66852857 305.426035493 c 1
166.148050118 148.892291456 m 0
 135.377807134 163.903831359 108.389427391 185.293828799 85.1829108886 213.062283778 c 128
 61.9763943863 240.830738757 50.2487574235 273.809977498 50 312 c 0
 50.5118946645 390.377584459 78.0136438315 460.99420303 132.505247501 523.849855711 c 1
 198.049890355 595.912626234 268.635318824 609.572271539 344.261532907 564.828791625 c 0
 390.561301482 536.946221914 413.80745718 472.669958039 414 372 c 0
 413.936139839 345.967993287 412.533139313 317.575053428 409.790998421 286.821180425 c 1
 488.430601917 277.149100473 591.474006104 272.95721152 718.921210981 274.245513566 c 128
 846.368415858 275.533815613 1021.69234243 295.306021447 1244.89299069 333.562131068 c 0
 1261.30662205 336.329460831 1274.06239119 337.805722418 1283.16029812 337.990915827 c 1
 1302.2142251 336.76185774 l 1
 1317.47936457 331.510449025 1325.25994526 320.558121679 1325.55596715 303.904875702 c 128
 1325.85198905 287.251629725 1316.44094107 272.949282892 1297.32282322 260.997835203 c 0
 1293.58053709 258.621821421 1291.1465588 257.054407799 1290.02088833 256.295594338 c 2
 1204.92484047 198.230055794 l 2
 1176.25286207 178.924014381 1144.7461938 164.82340066 1110.40483566 155.928214631 c 0
 944.944071373 114.058421132 765.910401717 93.1481079795 573.303826692 93.1972751724 c 128
 380.697251667 93.2464423652 244.978659475 111.811447793 166.148050118 148.892291456 c 0
EndSplineSet
Layer: 2
SplineSet
223 452 m 0
 174.333333333 452 150 426 150 374 c 0
 150 338.666666667 173 312.333333333 219 295 c 0
 241.666666667 287.666666667 280.666666667 279 336 269 c 1
 336 391 298.333333333 452 223 452 c 0
179 176 m 0
 152.333333333 188.666666667 129.166666667 206.666666667 109.5 230 c 128
 89.8333333333 253.333333333 80 280.666666667 80 312 c 0
 80 382.666666667 105 446.666666667 155 504 c 1
 188.333333333 541.333333333 219.833333333 560 249.5 560 c 128
 279.166666667 560 305.666666667 553 329 539 c 0
 365.666666667 517.666666667 384 462 384 372 c 0
 384 339.333333333 381.666666667 302.333333333 377 261 c 1
 463 248.333333333 563.333333333 242.666666667 678 244 c 0
 834 245.333333333 1024.66666667 265.333333333 1250 304 c 0
 1280.66666667 309.333333333 1296 309.333333333 1296 304 c 256
 1296 299.333333333 1288.33333333 291.666666667 1273 281 c 2
 1188 223 l 2
 1162.66666667 205.666666667 1134.33333333 193 1103 185 c 0
 940.333333333 143.666666667 773.333333333 123 602 123 c 0
 394.666666667 123 253.666666667 140.666666667 179 176 c 0
EndSplineSet
EndChar
StartChar: uni060F
Encoding: 1551 1551 4618
Width: 1658
Flags: HW
LayerCount: 3
Fore
SplineSet
306.850072136 -350.508043255 m 1
 305.900254777 -97.8090242497 390.260164166 124.310715225 559.929800301 315.851175169 c 1
 414.865280458 380.495444592 345.256556108 451.708841001 351.103627253 529.491364396 c 1
 357.070144612 597.882274284 375.247962812 660.157728672 405.637081853 716.317727559 c 0
 473.805390039 841.143970258 551.241342816 924.708217266 637.944940184 967.010468585 c 1
 687.976712168 990.443514008 744.284664204 983.814757338 806.868796293 947.124198575 c 128
 869.452928382 910.433639812 913.670443696 873.820013911 939.521342237 837.283320872 c 0
 948.933607472 822.862753107 952.861591329 809.920328259 951.305293806 798.45604633 c 0
 946.317585489 770.544774003 923.231864413 760.924858724 882.048130578 769.596300494 c 0
 721.642230033 801.001585851 588.524962248 748.734884334 482.696327222 612.796195941 c 1
 565.636297469 533.219228458 668.212619557 500.549257914 790.425293487 514.786284311 c 0
 808.818798965 517.477459223 836.850194882 530.114481248 874.519481238 552.697350385 c 0
 1034.63238768 649.033583731 1124.07114423 702.683335111 1142.83575088 713.646604524 c 128
 1161.60035754 724.609873938 1177.15626821 728.281251843 1189.50348289 724.660738239 c 1
 1216.83906132 714.524130144 1222.78579643 688.027059373 1207.34368822 645.169525924 c 0
 1182.00301431 572.526260737 1163.41099201 528.994960212 1151.56762132 514.575624351 c 128
 1139.72425063 500.15628849 1129.20933969 490.622415563 1120.02288851 485.97400557 c 0
 992.653886113 424.420388499 858.910602914 342.044441497 718.793038914 238.846164566 c 0
 559.633951666 120.865135704 464.577537447 -35.8076474026 433.623796257 -231.172184754 c 1
 569.214635968 -110.690829285 687.313237892 -25.9673634532 787.919602028 22.9982127413 c 0
 1022.22478515 135.86064391 1215.83952215 160.060370812 1368.76381302 95.597393446 c 1
 1474.88825817 49.3274593432 1544.81333363 -24.1217628551 1578.53903942 -124.750273149 c 1
 1624.86029969 -272.928525908 1588.75832659 -439.420502383 1470.2331201 -624.226202572 c 1
 1306.50376889 -877.611127644 1107.44715919 -1004.86903787 873.063290998 -1005.99993324 c 0
 559.754318963 -1006.66092263 375.959006264 -849.396313221 321.677352901 -534.206105003 c 1
 228.785865561 -630.106096706 171.028654317 -693.636899372 148.405719169 -724.798512999 c 128
 125.782784021 -755.960126627 107.175485091 -769.926766072 92.5838223803 -766.698431334 c 0
 58.8372276013 -759.232160603 49.3127736768 -738.720041262 64.0104606067 -705.162073311 c 1
 99.1856938873 -579.644621953 l 2
 105.908812738 -557.234225784 143.227807706 -512.185894764 211.142678792 -444.499628891 c 0
 226.459716889 -429.248623133 258.362181337 -397.918094588 306.850072136 -350.508043255 c 1
439.986097057 -421.102900303 m 1
 507.340763108 -649.408917044 670.816620111 -763.477455858 930.413668064 -763.308516745 c 128
 1190.01071601 -763.139577632 1356.05542457 -655.532835044 1428.54779374 -440.48828898 c 1
 1464.3510128 -330.524471346 1435.53449967 -232.662594071 1342.09825435 -146.902657154 c 128
 1248.66200904 -61.1427202367 1090.04185436 -58.9081993723 866.237790327 -140.199094561 c 0
 747.348910216 -183.59688358 605.26501246 -277.231485494 439.986097057 -421.102900303 c 1
EndSplineSet
Layer: 2
SplineSet
337 -363 m 1
 332.333333333 -99 423.666666667 131 611 327 c 1
 503.666666667 369.666666667 433 414.666666667 399 462 c 0
 385 481.333333333 379 503 381 527 c 0
 386.333333333 591 403.333333333 649.333333333 432 702 c 0
 496.666666667 821.333333333 569.666666667 900.666666667 651 940 c 0
 691 959.333333333 739.166666667 952.5 795.5 919.5 c 128
 851.833333333 886.5 891.666666667 853.333333333 915 820 c 0
 929.666666667 799.333333333 920.666666667 792.333333333 888 799 c 0
 712 834.333333333 566.666666667 775.333333333 452 622 c 0
 446 614 447.666666667 605.333333333 457 596 c 0
 547 506 659.333333333 469 794 485 c 0
 816 487.666666667 848 501.666666667 890 527 c 0
 1050.66666667 623.666666667 1140.66666667 678 1160 690 c 0
 1186 705.333333333 1192.33333333 693.666666667 1179 655 c 0
 1149 569 1125 521.666666667 1107 513 c 0
 978.333333333 451 843 367.666666667 701 263 c 0
 513.666666667 125 411.666666667 -65 395 -307 c 1
 553 -159.666666667 688.333333333 -58.6666666667 801 -4 c 0
 1027 105.333333333 1212.33333333 129.333333333 1357 68 c 0
 1455 26 1519.33333333 -41.3333333333 1550 -134 c 0
 1594 -272.666666667 1559 -430.666666667 1445 -608 c 0
 1287.66666667 -852.666666667 1097 -975.333333333 873 -976 c 0
 557 -976.666666667 380.333333333 -808 343 -470 c 1
 271 -541.333333333 197 -622 121 -712 c 0
 93.6666666667 -744 84.3333333333 -744.333333333 93 -713 c 2
 128 -588 l 2
 134 -568 203.666666667 -493 337 -363 c 1
406 -411 m 1
 474 -666.333333333 652 -794 940 -794 c 0
 1208 -793.333333333 1380.33333333 -678.666666667 1457 -450 c 0
 1497.66666667 -328 1466.66666667 -219.666666667 1364 -125 c 128
 1261.33333333 -30.3333333333 1092 -26 856 -112 c 0
 730.666666667 -157.333333333 580.666666667 -257 406 -411 c 1
EndSplineSet
EndChar
StartChar: uni0610
Encoding: 1552 1552 4818
Width: 0
GlyphClass: 4
Flags: HW
LayerCount: 3
Fore
SplineSet
549 2046 m 1
 515 2071.33333333 479.166666667 2079 441.5 2069 c 128
 403.833333333 2059 355 2032.66666667 295 1990 c 1
 403 1988.66666667 487.666666667 2007.33333333 549 2046 c 1
95 2015 m 1
 120.333333333 2001.66666667 154.333333333 1994 197 1992 c 1
 256.333333333 2051.33333333 316 2102.66666667 376 2146 c 0
 513.333333333 2243.33333333 604.333333333 2231.66666667 649 2111 c 0
 655.666666667 2091.66666667 650.833333333 2065.33333333 634.5 2032 c 128
 618.166666667 1998.66666667 605 1976.33333333 595 1965 c 0
 542.333333333 1909 447 1874.66666667 309 1862 c 0
 245.666666667 1856.66666667 185 1859 127 1869 c 1
 127.666666667 1807 115 1742 89 1674 c 1
 79 1651.33333333 64.3333333333 1642 45 1646 c 0
 25.6666666667 1650 18.6666666667 1664.33333333 24 1689 c 0
 46 1789.66666667 35.6666666667 1878.33333333 -7 1955 c 0
 -13.6666666667 1967.66666667 -16 1977.33333333 -14 1984 c 2
 18 2069 l 2
 20.6666666667 2075 23.6666666667 2079.66666667 27 2083 c 1
 47 2097 69.6666666667 2074.33333333 95 2015 c 1
EndSplineSet
Layer: 2
SplineSet
574 2045 m 1
 532 2083.66666667 487.166666667 2096.83333333 439.5 2084.5 c 128
 391.833333333 2072.16666667 329.333333333 2036 252 1976 c 1
 394.666666667 1968 502 1991 574 2045 c 1
83 2005 m 1
 111.666666667 1987.66666667 151.666666667 1978.33333333 203 1977 c 1
 262.333333333 2037.66666667 322 2089.33333333 382 2132 c 128
 442 2174.66666667 489.333333333 2196 524 2196 c 1
 576 2197.33333333 613 2167.33333333 635 2106 c 1
 639.666666667 2088.66666667 634.666666667 2065 620 2035 c 128
 605.333333333 2005 593.333333333 1985 584 1975 c 0
 534.666666667 1921.66666667 442.666666667 1889 308 1877 c 0
 239.333333333 1871 173.666666667 1874.33333333 111 1887 c 1
 115 1822.33333333 103 1753 75 1679 c 0
 69 1663.66666667 60.6666666667 1657.33333333 50 1660 c 128
 39.3333333333 1662.66666667 35.6666666667 1671.33333333 39 1686 c 0
 62.3333333333 1790 51.3333333333 1882 6 1962 c 0
 0.666666666667 1971.33333333 -1.33333333333 1977.33333333 0 1980 c 2
 32 2064 l 2
 36.6666666667 2076 44.1666666667 2074.5 54.5 2059.5 c 128
 64.8333333333 2044.5 74.3333333333 2026.33333333 83 2005 c 1
EndSplineSet
EndChar
StartChar: uni0611
Encoding: 1553 1553 4819
Width: 0
GlyphClass: 4
Flags: HW
LayerCount: 3
Fore
SplineSet
127 1869 m 1
 128.333333333 1807 115.666666667 1742 89 1674 c 1
 79 1651.33333333 64.3333333333 1642 45 1646 c 128
 25.6666666667 1650 18.6666666667 1664.33333333 24 1689 c 0
 46 1789.66666667 35.6666666667 1878.33333333 -7 1955 c 0
 -13.6666666667 1967.66666667 -16 1977.33333333 -14 1984 c 2
 18 2069 l 1
 22 2077 26.6666666667 2082.33333333 32 2085 c 0
 49.3333333333 2093 66.3333333333 2078.66666667 83 2042 c 0
 85 2038 88.6666666667 2029.33333333 94 2016 c 1
 130 2001.33333333 174 1993.33333333 226 1992 c 1
 213.333333333 2015.33333333 206 2040.33333333 204 2067 c 0
 198 2137 216.666666667 2193.16666667 260 2235.5 c 128
 303.333333333 2277.83333333 347.166666667 2303.16666667 391.5 2311.5 c 128
 435.833333333 2319.83333333 492.333333333 2294.33333333 561 2235 c 1
 576.333333333 2219.66666667 578.666666667 2204.66666667 568 2190 c 0
 557.333333333 2175.33333333 543.666666667 2171.33333333 527 2178 c 0
 461.666666667 2202.66666667 396.333333333 2203.33333333 331 2180 c 0
 306.333333333 2170.66666667 291.333333333 2160.33333333 286 2149 c 1
 283.333333333 2135.66666667 293.333333333 2111.16666667 316 2075.5 c 128
 338.666666667 2039.83333333 357.666666667 2020.66666667 373 2018 c 0
 415 2011.33333333 468.666666667 2028 534 2068 c 0
 559.333333333 2083.33333333 575.5 2090.16666667 582.5 2088.5 c 128
 589.5 2086.83333333 596.166666667 2082.66666667 602.5 2076 c 128
 608.833333333 2069.33333333 610 2060.66666667 606 2050 c 1
 565 1966 l 2
 558.333333333 1953.33333333 552.333333333 1945 547 1941 c 0
 422.333333333 1865.66666667 282.333333333 1841.66666667 127 1869 c 1
EndSplineSet
Layer: 2
SplineSet
111 1887 m 1
 115.666666667 1822.33333333 103.666666667 1753 75 1679 c 0
 69 1663.66666667 60.6666666667 1657.33333333 50 1660 c 128
 39.3333333333 1662.66666667 35.6666666667 1671.33333333 39 1686 c 0
 62.3333333333 1790 51.3333333333 1882 6 1962 c 0
 0.666666666667 1971.33333333 -1.33333333333 1977.33333333 0 1980 c 2
 32 2064 l 2
 40.6666666667 2085.33333333 57.6666666667 2065.66666667 83 2005 c 1
 127 1985 184 1975.66666667 254 1977 c 1
 233.333333333 2003 221.666666667 2033.33333333 219 2068 c 0
 213 2133.33333333 230.333333333 2185.83333333 271 2225.5 c 128
 311.666666667 2265.16666667 352.166666667 2289 392.5 2297 c 128
 432.833333333 2305 485.666666667 2280.66666667 551 2224 c 0
 559.666666667 2216.66666667 561.333333333 2208.33333333 556 2199 c 1
 550 2190.33333333 542.333333333 2188 533 2192 c 24
 464.333333333 2218.66666667 395.333333333 2219.33333333 326 2194 c 0
 296 2183.33333333 278 2170 272 2154 c 1
 266.666666667 2137.33333333 276.833333333 2108.66666667 302.5 2068 c 128
 328.166666667 2027.33333333 351 2005.66666667 371 2003 c 1
 415.666666667 1995 472.666666667 2012.33333333 542 2055 c 0
 567.333333333 2070.33333333 582.5 2075.5 587.5 2070.5 c 152
 592.5 2065.5 594 2060.66666667 592 2056 c 2
 552 1973 l 2
 547.333333333 1963.66666667 543 1957.33333333 539 1954 c 1
 413 1877.33333333 270.333333333 1855 111 1887 c 1
EndSplineSet
EndChar
StartChar: uni0612
Encoding: 1554 1554 4820
Width: 0
GlyphClass: 4
Flags: HW
LayerCount: 3
Fore
SplineSet
16 1647 m 1
 -3.33 1648.33 -13.67 1659 -15 1679 c 1
 -14.33 1864.33 62 1998.67 214 2082 c 1
 156.67 2090 104.33 2085 57 2067 c 0
 37 2059 25 2063.33 21 2080 c 0
 20.33 2082.67 20 2085 20 2087 c 0
 22.67 2164.33 63.67 2205 143 2209 c 0
 171.67 2210.33 222.67 2203.67 296 2189 c 0
 369.33 2174.33 446.33 2174 527 2188 c 0
 561 2193.33 583.33 2193.67 594 2189 c 0
 604.67 2184.33 605.67 2172.67 597 2154 c 2
 572 2099 l 1
 566 2089 558.33 2083 549 2081 c 0
 383.67 2057 271.33 2025.67 212 1987 c 0
 104 1915.67 50 1813 50 1679 c 2
 50 1676 l 1
 44 1658.67 32.67 1649 16 1647 c 1
EndSplineSet
Refer: 47 -1 N 0.5 0 0 0.5 451 1873 2
Layer: 2
SplineSet
0 1679 m 0
 0 1873.66666667 86.6666666667 2010 260 2088 c 1
 182.666666667 2107.33333333 113.333333333 2105 52 2081 c 0
 40 2076.33333333 34.3333333333 2078 35 2086 c 0
 37.6666666667 2154.66666667 74 2190.66666667 144 2194 c 0
 170.666666667 2195.33333333 212.666666667 2190.33333333 270 2179 c 152
 327.333333333 2167.66666667 376 2162.33333333 416 2163 c 128
 456 2163.66666667 505.333333333 2169 564 2179 c 0
 584 2182.33333333 590.333333333 2176 583 2160 c 2
 558 2106 l 2
 555.333333333 2100.66666667 551.666666667 2097.33333333 547 2096 c 0
 379 2072 264.666666667 2040 204 2000 c 0
 91.3333333333 1926.66666667 35 1819.66666667 35 1679 c 0
 33 1667.66666667 26.6666666667 1662 16 1662 c 24
 8 1662 2.66666666667 1667.66666667 0 1679 c 0
EndSplineSet
EndChar
StartChar: uni0614
Encoding: 1556 1556 4822
Width: 0
GlyphClass: 4
Flags: HW
LayerCount: 3
Fore
SplineSet
579 1793 m 1
 390.333333333 1718.33333333 190 1700 -22 1738 c 1
 -53.3333333333 1744.66666667 -67.6666666667 1761.33333333 -65 1788 c 1
 -61 1810.66666667 -43.3333333333 1821.33333333 -12 1820 c 0
 298 1809.33333333 504 1851 606 1945 c 1
 623.333333333 1959.66666667 639.333333333 1962.66666667 654 1954 c 0
 668.666666667 1945.33333333 670.333333333 1927 659 1899 c 1
 705.666666667 1866.33333333 751.333333333 1849.66666667 796 1849 c 1
 792.666666667 1855.66666667 787.833333333 1865 781.5 1877 c 128
 775.166666667 1889 776.333333333 1905 785 1925 c 1
 817 1992 l 2
 821.666666667 2000.66666667 827 2006.66666667 833 2010 c 1
 849 2016.66666667 863 2003.66666667 875 1971 c 0
 887 1938.33333333 887.5 1889.83333333 876.5 1825.5 c 128
 865.5 1761.16666667 841.666666667 1726.66666667 805 1722 c 1
 730.333333333 1714.66666667 655 1738.33333333 579 1793 c 1
EndSplineSet
Layer: 2
SplineSet
581 1810 m 1
 393 1734 193 1715 -19 1753 c 0
 -41.6666666667 1757.66666667 -52 1768.66666667 -50 1786 c 0
 -48 1800 -35.6666666667 1806.33333333 -13 1805 c 0
 301.666666667 1793.66666667 511.333333333 1836.66666667 616 1934 c 0
 628 1944 637 1947.33333333 643 1944 c 0
 652.333333333 1938.66666667 654.333333333 1929 649 1915 c 0
 641 1894 l 1
 699 1850 757 1830 815 1834 c 1
 815.666666667 1843.33333333 810 1858 798 1878 c 0
 791.333333333 1889.33333333 791.666666667 1903 799 1919 c 2
 831 1986 l 2
 839 2003.33333333 848 1999.33333333 858 1974 c 0
 871.333333333 1939.33333333 873.666666667 1895.66666667 865 1843 c 0
 853.666666667 1775.66666667 833 1740.33333333 803 1737 c 0
 730.333333333 1729 656.333333333 1753.33333333 581 1810 c 1
EndSplineSet
EndChar
StartChar: uni0615
Encoding: 1557 1557 288
Width: 0
GlyphClass: 4
Flags: HW
AnchorPoint: "MarkAbove" 478 2600 mark 0
LayerCount: 3
Fore
SplineSet
373 3574 m 0
 405.666666667 3313.33333333 418 3117.66666667 410 2987 c 1
 554.666666667 3132.33333333 669.333333333 3179 754 3127 c 1
 800 3097.66666667 825.333333333 3064.83333333 830 3028.5 c 128
 834.666666667 2992.16666667 824.166666667 2949.5 798.5 2900.5 c 128
 772.833333333 2851.5 752.666666667 2822 738 2812 c 0
 626 2737.33333333 441 2690 183 2670 c 1
 180 2670 l 1
 132 2678 87 2696.66666667 45 2726 c 0
 3 2755.33333333 -17.3333333333 2784 -16 2812 c 0
 -14.6666666667 2828 -5 2835 13 2833 c 0
 70.3333333333 2825 145.333333333 2824 238 2830 c 1
 311 2900 l 1
 309.666666667 3103.33333333 294.333333333 3303 265 3499 c 0
 260.333333333 3529 263.333333333 3551.66666667 274 3567 c 2
 305 3614 l 2
 314.333333333 3627.33333333 323.666666667 3635 333 3637 c 0
 350.333333333 3639.66666667 362 3628 368 3602 c 0
 370 3594.66666667 371.666666667 3585.33333333 373 3574 c 0
544 2976 m 1
 511.333333333 2965.33333333 451 2921.66666667 363 2845 c 1
 500.333333333 2863.66666667 612.666666667 2894.66666667 700 2938 c 1
 666 2984.66666667 614 2997.33333333 544 2976 c 1
EndSplineSet
Layer: 2
SplineSet
358 3572 m 0
 394.666666667 3282.66666667 406 3074 392 2946 c 1
 545.333333333 3110 663.333333333 3166 746 3114 c 0
 788.666666667 3087.33333333 812 3058 816 3026 c 128
 820 2994 809.833333333 2954.5 785.5 2907.5 c 128
 761.166666667 2860.5 742.666666667 2832.66666667 730 2824 c 0
 620.666666667 2750.66666667 438 2704.33333333 182 2685 c 1
 136.666666667 2692.33333333 98.6666666667 2706.66666667 68 2728 c 128
 37.3333333333 2749.33333333 16.6666666667 2770 6 2790 c 128
 -4.66666666667 2810 -3 2819.33333333 11 2818 c 1
 70.3333333333 2809.33333333 148.333333333 2808.33333333 245 2815 c 1
 326 2894 l 1
 325.333333333 3100 310 3302.33333333 280 3501 c 0
 275.333333333 3527.66666667 277.333333333 3546.66666667 286 3558 c 2
 318 3606 l 2
 337.333333333 3635.33333333 350.666666667 3624 358 3572 c 0
540 2990 m 0
 501.333333333 2978 427 2922.66666667 317 2824 c 1
 485.666666667 2842.66666667 620.333333333 2878.66666667 721 2932 c 1
 685 2996.66666667 624.666666667 3016 540 2990 c 0
EndSplineSet
EndChar
StartChar: uni0616
Encoding: 1558 1558 4615
Width: 0
GlyphClass: 4
Flags: HW
AnchorPoint: "MarkAbove" 439 1640 mark 0
AnchorPoint: "TashkilAboveDot" 437 1640 mark 0
AnchorPoint: "TashkilAbove" 437 1640 mark 0
LayerCount: 3
Fore
SplineSet
558 2382 m 1
 552.666666667 2411.33333333 540 2421.33333333 520 2412 c 0
 516 2410 509.666666667 2400.33333333 501 2383 c 2
 477 2334 l 1
 471.666666667 2324.66666667 470 2309 472 2287 c 0
 492 2077.66666667 500 1939.33333333 496 1872 c 0
 494 1844.66666667 503 1831 523 1831 c 1
 528.333333333 1831.66666667 533.5 1834.16666667 538.5 1838.5 c 128
 543.5 1842.83333333 551 1858 561 1884 c 0
 592.333333333 1967.33333333 591.333333333 2133.33333333 558 2382 c 1
315 2381 m 0
 341 2235 345.333333333 2116.33333333 328 2025 c 1
 313.333333333 1952.33333333 270.333333333 1890 199 1838 c 1
 340.333333333 1823.33333333 565.333333333 1829.33333333 874 1856 c 0
 884 1856.66666667 894 1854.16666667 904 1848.5 c 128
 914 1842.83333333 912.666666667 1831 900 1813 c 2
 863 1758 l 1
 853.666666667 1745.33333333 844 1738 834 1736 c 0
 771.333333333 1726.66666667 661.333333333 1719.33333333 504 1714 c 128
 346.666666667 1708.66666667 229 1711.66666667 151 1723 c 0
 117.666666667 1728.33333333 99.3333333333 1744 96 1770 c 0
 92 1803.33333333 99.3333333333 1835.33333333 118 1866 c 128
 136.666666667 1896.66666667 156.666666667 1920 178 1936 c 0
 233.333333333 1976 260.666666667 2018.33333333 260 2063 c 1
 250.666666667 2161.66666667 243 2232.5 237 2275.5 c 128
 231 2318.5 231.333333333 2346 238 2358 c 1
 258 2387 l 2
 268 2400.33333333 277.333333333 2408 286 2410 c 1
 301.333333333 2412 311 2402.33333333 315 2381 c 0
EndSplineSet
Layer: 2
SplineSet
543 2379 m 0
 563 2211 571.333333333 2094.66666667 568 2030 c 128
 564.666666667 1965.33333333 557.5 1918.5 546.5 1889.5 c 128
 535.5 1860.5 527.333333333 1846 522 1846 c 0
 512.666666667 1845.33333333 509 1853.66666667 511 1871 c 1
 515 1938.33333333 507 2077.33333333 487 2288 c 0
 485 2307.33333333 486 2320.33333333 490 2327 c 2
 514 2376 l 2
 529.333333333 2407.33333333 539 2408.33333333 543 2379 c 0
301 2371 m 0
 324.333333333 2221.66666667 328.333333333 2107.16666667 313 2027.5 c 128
 297.666666667 1947.83333333 245.666666667 1881.33333333 157 1828 c 1
 293.666666667 1806.66666667 533.333333333 1811 876 1841 c 0
 893.333333333 1843 897.333333333 1836.33333333 888 1821 c 2
 851 1767 l 2
 845 1758.33333333 838.666666667 1753 832 1751 c 0
 770.666666667 1741.66666667 661.5 1734.33333333 504.5 1729 c 128
 347.5 1723.66666667 230.333333333 1726.66666667 153 1738 c 0
 129 1741.33333333 115 1752.66666667 111 1772 c 1
 107 1801.33333333 113.666666667 1830.33333333 131 1859 c 128
 148.333333333 1887.66666667 167 1909.33333333 187 1924 c 0
 247.666666667 1966.66666667 277 2013.33333333 275 2064 c 1
 265.666666667 2162.66666667 256.333333333 2245 247 2311 c 0
 244.333333333 2328.33333333 245.666666667 2341.33333333 251 2350 c 2
 270 2379 l 2
 286.666666667 2403 297 2400.33333333 301 2371 c 0
EndSplineSet
EndChar
StartChar: uni0617
Encoding: 1559 1559 4617
Width: 0
GlyphClass: 4
Flags: HW
AnchorPoint: "MarkAbove" 478 2600 mark 0
LayerCount: 3
Fore
SplineSet
429 3633 m 1
 437 3643 446.666666667 3645.66666667 458 3641 c 128
 469.333333333 3636.33333333 480.666666667 3631.83333333 492 3627.5 c 128
 503.333333333 3623.16666667 522.333333333 3609.33333333 549 3586 c 1
 557.666666667 3576.66666667 559.333333333 3566.66666667 554 3556 c 1
 495 3463 l 1
 486.333333333 3451 476.833333333 3449 466.5 3457 c 128
 456.166666667 3465 425.666666667 3484 375 3514 c 0
 363 3521.33333333 361 3531 369 3543 c 2
 429 3633 l 1
552 3296 m 1
 557.333333333 3314.66666667 570 3318.33333333 590 3307 c 0
 594 3305 597.333333333 3302.66666667 600 3300 c 0
 634 3264.66666667 659 3218.33333333 675 3161 c 0
 715 3023 691 2897.33333333 603 2784 c 0
 553 2720.66666667 488.333333333 2678.33333333 409 2657 c 0
 385 2651 362.333333333 2651.66666667 341 2659 c 0
 249 2690.33333333 193.666666667 2710.83333333 175 2720.5 c 128
 156.333333333 2730.16666667 147.333333333 2741.33333333 148 2754 c 0
 149.333333333 2774 160.333333333 2781 181 2775 c 0
 235 2758.33333333 281.333333333 2752.66666667 320 2758 c 0
 450 2776 550 2852 620 2986 c 0
 621.333333333 2989.33333333 621.666666667 2992 621 2994 c 0
 609 3036 577.666666667 3088.33333333 527 3151 c 0
 521.666666667 3158.33333333 520.333333333 3166 523 3174 c 1
 552 3296 l 1
EndSplineSet
Layer: 2
SplineSet
441 3624 m 2
 443 3627.33333333 453.5 3625.66666667 472.5 3619 c 128
 491.5 3612.33333333 513.666666667 3597.66666667 539 3575 c 0
 543 3571.66666667 543.666666667 3568 541 3564 c 2
 482 3471 l 2
 479.333333333 3467.66666667 475.166666667 3468.33333333 469.5 3473 c 128
 463.833333333 3477.66666667 435 3495.66666667 383 3527 c 0
 379 3529 378.333333333 3531.33333333 381 3534 c 1
 441 3624 l 2
567 3292 m 2
 569.666666667 3302 577 3301 589 3289 c 0
 621 3256.33333333 645 3212.33333333 661 3157 c 128
 677 3101.66666667 681.333333333 3042.5 674 2979.5 c 128
 666.666666667 2916.5 639.166666667 2854.5 591.5 2793.5 c 128
 543.833333333 2732.5 481.666666667 2692 405 2672 c 0
 384.333333333 2666.66666667 364.666666667 2667 346 2673 c 0
 222.666666667 2715 161.5 2740.83333333 162.5 2750.5 c 128
 163.5 2760.16666667 168.333333333 2763.66666667 177 2761 c 0
 233 2743.66666667 281.333333333 2737.66666667 322 2743 c 0
 457.333333333 2761 561 2839.66666667 633 2979 c 0
 636.333333333 2985 637 2991.33333333 635 2998 c 0
 623 3041.33333333 591 3095.33333333 539 3160 c 0
 536.333333333 3163.33333333 535.666666667 3166.33333333 537 3169 c 2
 567 3292 l 2
EndSplineSet
EndChar
StartChar: uni0618
Encoding: 1560 1560 292
Width: 0
GlyphClass: 4
Flags: HW
AnchorPoint: "MarkAbove" 509 1640 mark 0
AnchorPoint: "TashkilAboveDot" 506 1640 mark 0
AnchorPoint: "TashkilAbove" 506 1640 mark 0
LayerCount: 3
Fore
SplineSet
288 1794 m 2
 639 1950 l 1
 648.33 1953.33 657.67 1954.33 667 1953 c 0
 676.33 1951.67 680 1943 678 1927 c 2
 671 1870 l 2
 668.33 1853.33 661.33 1843.33 650 1840 c 2
 306 1720 l 1
 273.33 1710 258.33 1718 261 1744 c 1
 264 1766 l 2
 266 1778.67 274 1788 288 1794 c 2
EndSplineSet
Layer: 2
SplineSet
292 1785 m 0
 643 1941 l 0
 662.333333333 1949 670.666666667 1944.66666667 668 1928 c 2
 661 1871 l 2
 659.666666667 1860.33333333 655 1853 647 1849 c 0
 303 1729 l 0
 279.666666667 1721 269 1725.66666667 271 1743 c 2
 274 1765 l 2
 276 1774.33333333 282 1781 292 1785 c 0
EndSplineSet
EndChar
StartChar: uni0619
Encoding: 1561 1561 291
Width: 0
GlyphClass: 4
Flags: HW
AnchorPoint: "MarkAbove" 499 1640 mark 0
AnchorPoint: "TashkilAbove" 500 1640 mark 0
AnchorPoint: "TashkilAboveDot" 500 1640 mark 0
LayerCount: 3
Fore
SplineSet
548 2169 m 1
 570 2174.33333333 587 2168.33333333 599 2151 c 0
 625.666666667 2112.33333333 622.666666667 2053.66666667 590 1975 c 1
 605.333333333 1965.66666667 618.166666667 1957.83333333 628.5 1951.5 c 128
 638.833333333 1945.16666667 639.666666667 1933 631 1915 c 2
 611 1875 l 2
 602.333333333 1857.66666667 578.333333333 1860 539 1882 c 1
 478.333333333 1805.33333333 423.333333333 1753.33333333 374 1726 c 1
 346 1712 327 1711.66666667 317 1725 c 1
 307.666666667 1740.33333333 323.5 1762.83333333 364.5 1792.5 c 128
 405.5 1822.16666667 446 1862.66666667 486 1914 c 1
 422.666666667 1949.33333333 403.333333333 1994 428 2048 c 0
 459.333333333 2114.66666667 499.333333333 2155 548 2169 c 1
531 2044 m 1
 521.666666667 2056.66666667 506.666666667 2055 486 2039 c 1
 496 2029 512 2017.66666667 534 2005 c 1
 536.666666667 2021.66666667 535.666666667 2034.66666667 531 2044 c 1
EndSplineSet
Layer: 2
SplineSet
551 2159 m 0
 568.333333333 2163.66666667 582.333333333 2158.66666667 593 2144 c 0
 602.333333333 2130 607.666666667 2110.66666667 609 2086 c 128
 610.333333333 2061.33333333 599.666666667 2023 577 1971 c 1
 596.333333333 1959 610.333333333 1950.66666667 619 1946 c 128
 627.666666667 1941.33333333 628.666666667 1932.33333333 622 1919 c 2
 602 1879 l 2
 596.666666667 1867 574.666666667 1872.33333333 536 1895 c 1
 474.666666667 1815.66666667 419 1762.33333333 369 1735 c 0
 346.333333333 1723 331.666666667 1721.66666667 325 1731 c 128
 318.333333333 1740.33333333 329 1755 357 1775 c 0
 410.333333333 1813 458.333333333 1860.33333333 501 1917 c 1
 433.666666667 1949.66666667 412.333333333 1992 437 2044 c 0
 467 2108 505 2146.33333333 551 2159 c 0
540 2049 m 128
 532 2063.66666667 518 2066.5 498 2057.5 c 128
 478 2048.5 470.666666667 2041 476 2035 c 0
 486.666666667 2022.33333333 508 2007.33333333 540 1990 c 1
 548 2014.66666667 548 2034.33333333 540 2049 c 128
EndSplineSet
EndChar
StartChar: uni061D
Encoding: 1565 1565 6149
Width: 674
Flags: HW
LayerCount: 3
Fore
SplineSet
534 180 m 0
 587 180 617 130 617 80 c 0
 617 43 600 7 574 -19 c 0
 551 -42 521 -57 488 -57 c 0
 423 -57 393 -6 373 41 c 0
 335 124 303 176 250 241 c 0
 215 288 164 319 121 359 c 0
 85 391 65 455 65 517 c 0
 65 545 71 569 81 590 c 0
 105 638 146 697 202 735 c 0
 256 772 347 793 398 742 c 0
 472 668 417 529 373 464 c 1
 347 481 l 1
 361 517 374 559 374 579 c 0
 374 622 347 641 304 641 c 0
 234 641 148 557 122 496 c 1
 143 474 178 452 212 424 c 0
 253 390 279 370 305 338 c 0
 349 282 366 216 383 156 c 0
 390 131 418 67 455 67 c 1
 453 77 451 86 451 95 c 0
 451 119 459 141 475 157 c 0
 490 172 511 180 534 180 c 0
EndSplineSet
Layer: 2
SplineSet
378 154 m 0
 361 212 336 276 294 329 c 0
 276 350 246 378 203 413 c 0
 168 441 141 465 122 485 c 0
 116 491 119 508 123 513 c 0
 152 568 227 655 304 655 c 0
 352 655 381 631 381 579 c 0
 381 556 373 525 357 486 c 1
 372 476 l 1
 399 516 420 574 420 635 c 0
 420 707 387 758 317 758 c 0
 206 758 116 642 87 583 c 0
 78 564 72 542 72 517 c 0
 72 459 99 398 131 370 c 0
 173 331 227 297 262 250 c 0
 316 183 336 134 376 47 c 0
 395 1 433 -43 488 -43 c 0
 548 -43 603 18 603 80 c 0
 603 124 577 166 534 166 c 256
 493 166 466 136 466 95 c 0
 466 83 468 70 473 55 c 1
 466 53 461 52 455 52 c 0
 406 52 386 125 378 154 c 0
EndSplineSet
EndChar
StartChar: uni061F
Encoding: 1567 1567 168
Width: 846
Flags: HW
LayerCount: 3
Fore
SplineSet
670 1078 m 1
 640 1227.33 565.67 1302 447 1302 c 0
 349 1302 295 1257.33 285 1168 c 0
 279 1112.67 296.33 1046 337 968 c 0
 415 818.67 457 684.67 463 566 c 0
 466.33 498.67 463.33 441.33 454 394 c 0
 451.33 380 442.67 372.67 428 372 c 0
 412 371.33 402.67 377.33 400 390 c 0
 396.67 404 394.33 426.33 393 457 c 0
 390.33 519.67 365.33 568 318 602 c 0
 166.67 710 79.67 806.33 57 891 c 0
 23.67 1014.33 42 1124.33 112 1221 c 0
 183.33 1319.67 292.67 1370.67 440 1374 c 0
 516 1376 582.33 1353 639 1305 c 0
 685.67 1265.67 718 1215.67 736 1155 c 0
 762.67 1067 762 987.33 734 916 c 0
 706 845.33 658.67 808 592 804 c 0
 547.33 802 510 818.33 480 853 c 0
 452 885.67 438 920.67 438 958 c 0
 438 995.33 449.33 1028.33 472 1057 c 0
 494.67 1086.33 526.33 1103.33 567 1108 c 0
 608.33 1112.67 642.67 1102.67 670 1078 c 1
EndSplineSet
Refer: 296 -1 N 1 0 0 1 104 0 2
EndChar
StartChar: uni0621
Encoding: 1569 1569 64
Width: 782
Flags: HW
AnchorPoint: "TashkilBelow" 430 60 basechar 0
AnchorPoint: "TashkilAbove" 300 700 basechar 0
LayerCount: 3
Fore
SplineSet
376 626 m 0
 456.666666667 624.666666667 493.333333333 581 486 495 c 1
 481.333333333 453.666666667 469 421.5 449 398.5 c 128
 429 375.5 407 374.666666667 383 396 c 1
 325.666666667 450 287.333333333 458.666666667 268 422 c 1
 254 393.333333333 273.666666667 366 327 340 c 0
 408.333333333 301.333333333 484 302 554 342 c 0
 594.666666667 365.333333333 625.333333333 374 646 368 c 128
 666.666666667 362 671.666666667 341 661 305 c 2
 645 251 l 1
 636.333333333 224.333333333 624.666666667 207.666666667 610 201 c 1
 508 165 382 96.3333333333 232 -5 c 1
 212 -17 194.666666667 -16.3333333333 180 -3 c 1
 151.333333333 25.6666666667 176 74.6666666667 254 144 c 1
 152.666666667 187.333333333 106.166666667 241.333333333 114.5 306 c 128
 122.833333333 370.666666667 166.333333333 448.666666667 245 540 c 0
 295 597.333333333 338.666666667 626 376 626 c 0
EndSplineSet
Layer: 2
SplineSet
631 255 m 2
 625 235.666666667 616.333333333 222.333333333 605 215 c 1
 502.333333333 179 375.333333333 110 224 8 c 24
 210.666666667 -0.666666666667 199.666666667 -0.666666666667 191 8 c 0
 167.666666667 31.3333333333 198.333333333 78.3333333333 283 149 c 1
 171.666666667 189.666666667 120.666666667 244 130 312 c 1
 136.666666667 368 178.666666667 440.666666667 256 530 c 0
 303.333333333 584 343.333333333 611 376 611 c 0
 446 610.333333333 477.666666667 572 471 496 c 0
 468.333333333 468.666666667 459.5 442.5 444.5 417.5 c 128
 429.5 392.5 412.333333333 389 393 407 c 0
 331.666666667 465.666666667 287.666666667 476.333333333 261 439 c 0
 231.666666667 397 255.666666667 357.333333333 333 320 c 0
 380.333333333 297.333333333 435.333333333 291.666666667 498 303 c 0
 516 306.333333333 537.333333333 315.166666667 562 329.5 c 128
 586.666666667 343.833333333 607.333333333 352.666666667 624 356 c 1
 650 360 657.666666667 344.333333333 647 309 c 2
 631 255 l 2
EndSplineSet
EndChar
StartChar: uni0640
Encoding: 1600 1600 208
Width: 0
Flags: HW
LayerCount: 3
Fore
SplineSet
0 90 m 25
 0 0 l 25
 0 0 l 25
 0 90 l 25
 0 90 l 25
EndSplineSet
Layer: 2
SplineSet
0 90.33203125 m 25
 0 0 l 25
 0 0 l 25
 0 90.33203125 l 25
 0 90.33203125 l 25
EndSplineSet
EndChar
StartChar: uni064B
Encoding: 1611 1611 232
Width: 0
GlyphClass: 4
Flags: HW
AnchorPoint: "TashkilTashkilAbove" 287 2170 basemark 0
AnchorPoint: "MarkAbove" 529 1640 mark 0
AnchorPoint: "TashkilAboveDot" 529 1640 mark 0
AnchorPoint: "TashkilAbove" 529 1640 mark 0
LayerCount: 3
Fore
SplineSet
681 2085 m 2
 706.333333333 2102.33333333 726.333333333 2108.66666667 741 2104 c 0
 755.666666667 2099.33333333 758.333333333 2081.66666667 749 2051 c 2
 728 1987 l 2
 719.333333333 1962.33333333 706 1944.33333333 688 1933 c 2
 330 1713 l 2
 314.666666667 1704.33333333 300 1701.33333333 286 1704 c 0
 272 1706.66666667 267 1721 271 1747 c 2
 277 1786 l 1
 281.666666667 1809.33333333 295.333333333 1828.66666667 318 1844 c 1
 681 2085 l 2
673 2290 m 2
 695 2304 713.333333333 2309 728 2305 c 0
 742.666666667 2301 746.666666667 2284.66666667 740 2256 c 2
 725 2204 l 2
 717 2177.33333333 700.333333333 2156.66666667 675 2142 c 2
 313 1931 l 2
 286.333333333 1915.66666667 265.666666667 1911 251 1917 c 0
 237 1923 236 1940.66666667 248 1970 c 1
 266 2009 l 2
 275.333333333 2031 288 2047 304 2057 c 2
 673 2290 l 2
EndSplineSet
Layer: 2
SplineSet
689 2073 m 2
 733 2103 748.333333333 2097.33333333 735 2056 c 2
 714 1992 l 2
 707.333333333 1970.66666667 696 1955.33333333 680 1946 c 2
 322 1726 l 2
 293.333333333 1708.66666667 281.333333333 1715 286 1745 c 2
 292 1784 l 2
 295.333333333 1802.66666667 306.666666667 1818.66666667 326 1832 c 2
 689 2073 l 2
681 2277 m 2
 719.666666667 2301.66666667 734.333333333 2296 725 2260 c 2
 711 2208 l 2
 705 2185.33333333 690.666666667 2167.66666667 668 2155 c 2
 305 1944 l 2
 259 1917.33333333 244.666666667 1924 262 1964 c 2
 280 2003 l 2
 288 2022.33333333 298.666666667 2036 312 2044 c 2
 681 2277 l 2
EndSplineSet
EndChar
StartChar: uni064C
Encoding: 1612 1612 233
Width: 0
GlyphClass: 4
Flags: HW
AnchorPoint: "TashkilTashkilAbove" 187 2170 basemark 0
AnchorPoint: "MarkAbove" 509 1640 mark 0
AnchorPoint: "TashkilAbove" 510 1640 mark 0
AnchorPoint: "TashkilAboveDot" 510 1640 mark 0
LayerCount: 3
Fore
SplineSet
540 1978 m 1
 496.666666667 2011.33333333 471.5 2039.16666667 464.5 2061.5 c 128
 457.5 2083.83333333 460.333333333 2114 473 2152 c 128
 485.666666667 2190 504.5 2221.66666667 529.5 2247 c 128
 554.5 2272.33333333 580.833333333 2283.33333333 608.5 2280 c 128
 636.166666667 2276.66666667 655 2259 665 2227 c 0
 681.666666667 2171.66666667 681.666666667 2113 665 2051 c 1
 683 2040.33333333 698.166666667 2030.83333333 710.5 2022.5 c 128
 722.833333333 2014.16666667 728 2003.66666667 726 1991 c 1
 712 1924 l 1
 703.333333333 1890 679 1885 639 1909 c 0
 624.333333333 1918.33333333 612.666666667 1926.33333333 604 1933 c 1
 542 1827.66666667 450 1757.33333333 328 1722 c 0
 287.333333333 1710 263.666666667 1718.66666667 257 1748 c 1
 253 1775.33333333 271 1795.33333333 311 1808 c 0
 415 1839.33333333 491.333333333 1896 540 1978 c 1
588 2097 m 1
 587.333333333 2112.33333333 583.333333333 2124.16666667 576 2132.5 c 128
 568.666666667 2140.83333333 556.333333333 2140.66666667 539 2132 c 1
 551.666666667 2120 568 2108.33333333 588 2097 c 1
433 2088 m 0
 450.333333333 2091.33333333 459.333333333 2082.66666667 460 2062 c 0
 460 2055.33333333 459 2049 457 2043 c 2
 440 1990 l 2
 430 1958.66666667 408.333333333 1947.66666667 375 1957 c 1
 347 1967 326.166666667 1990.33333333 312.5 2027 c 128
 298.833333333 2063.66666667 298 2107.83333333 310 2159.5 c 128
 322 2211.16666667 356 2267.33333333 412 2328 c 0
 541.333333333 2470 636.666666667 2526.33333333 698 2497 c 1
 722 2484.33333333 735 2462.66666667 737 2432 c 0
 739.666666667 2390 730.333333333 2357.66666667 709 2335 c 0
 685.666666667 2310.33333333 660 2311.16666667 632 2337.5 c 128
 604 2363.83333333 567.333333333 2360.66666667 522 2328 c 128
 476.666666667 2295.33333333 443 2262 421 2228 c 128
 399 2194 387.333333333 2166.83333333 386 2146.5 c 128
 384.666666667 2126.16666667 389.333333333 2111 400 2101 c 128
 410.666666667 2091 421.666666667 2086.66666667 433 2088 c 0
EndSplineSet
Layer: 2
SplineSet
610 2266 m 0
 629.333333333 2264 643.333333333 2248.66666667 652 2220 c 128
 660.666666667 2191.33333333 664.333333333 2162.16666667 663 2132.5 c 128
 661.666666667 2102.83333333 656.333333333 2073.33333333 647 2044 c 1
 669.666666667 2030.66666667 686.333333333 2020.66666667 697 2014 c 128
 707.666666667 2007.33333333 712.333333333 2000.66666667 711 1994 c 2
 697 1927 l 2
 692.333333333 1905.66666667 675.666666667 1904 647 1922 c 0
 623.666666667 1936.66666667 607.666666667 1947.66666667 599 1955 c 1
 540.333333333 1845 448.666666667 1772 324 1736 c 0
 292.666666667 1726.66666667 275.333333333 1731.66666667 272 1751 c 0
 268 1769.66666667 282.333333333 1784 315 1794 c 0
 428.333333333 1827.33333333 510 1890 560 1982 c 1
 512.666666667 2016.66666667 485.666666667 2044 479 2064 c 128
 472.333333333 2084 475 2111.83333333 487 2147.5 c 128
 499 2183.16666667 516.166666667 2212.5 538.5 2235.5 c 128
 560.833333333 2258.5 584.666666667 2268.66666667 610 2266 c 0
591 2140 m 0
 576.333333333 2157.33333333 556 2158.66666667 530 2144 c 0
 518 2137.33333333 519.666666667 2128 535 2116 c 0
 557.666666667 2098 578.333333333 2084.66666667 597 2076 c 0
 602.333333333 2074 604.333333333 2083.66666667 603 2105 c 0
 601.666666667 2121 597.666666667 2132.66666667 591 2140 c 0
436 2073 m 0
 446.666666667 2075 449 2066.66666667 443 2048 c 2
 426 1995 l 2
 418.666666667 1972.33333333 403 1964.33333333 379 1971 c 0
 355.666666667 1978.33333333 337.666666667 1998.66666667 325 2032 c 0
 313 2065.33333333 311 2099.33333333 319 2134 c 0
 333.666666667 2197.33333333 368.333333333 2258.66666667 423 2318 c 0
 547.666666667 2455.33333333 637 2510.66666667 691 2484 c 0
 710.333333333 2474.66666667 721 2457 723 2431 c 0
 724.333333333 2403.66666667 716.666666667 2376.33333333 700 2349 c 0
 685.333333333 2325.66666667 667.666666667 2324 647 2344 c 0
 610.333333333 2380 565.666666667 2378.66666667 513 2340 c 0
 466.333333333 2306.66666667 432.333333333 2273.33333333 411 2240 c 0
 385.666666667 2201.33333333 372.166666667 2170 370.5 2146 c 128
 368.833333333 2122 375.333333333 2103 390 2089 c 0
 403.333333333 2075.66666667 418.666666667 2070.33333333 436 2073 c 0
EndSplineSet
EndChar
StartChar: uni064E
Encoding: 1614 1614 235
Width: 0
GlyphClass: 4
Flags: HW
AnchorPoint: "MarkAbove" 549 1640 mark 0
AnchorPoint: "TashkilTashkilAbove" 297 1955 basemark 0
AnchorPoint: "TashkilAbove" 556 1640 mark 0
AnchorPoint: "TashkilAboveDot" 556 1640 mark 0
LayerCount: 3
Fore
SplineSet
716 2105 m 2
 735.333333333 2116.33333333 752 2119.83333333 766 2115.5 c 128
 780 2111.16666667 783 2095 775 2067 c 2
 755 2000 l 2
 748.333333333 1979.33333333 731.666666667 1960.33333333 705 1943 c 1
 305 1713 l 2
 294.333333333 1707.66666667 285.333333333 1704.66666667 278 1704 c 1
 258.666666667 1706.66666667 248.333333333 1720.33333333 247 1745 c 1
 248 1780 l 1
 250 1800.66666667 264 1820.33333333 290 1839 c 1
 716 2105 l 2
EndSplineSet
Layer: 2
SplineSet
724 2092 m 0
 758.666666667 2112.66666667 771 2105.66666667 761 2071 c 2
 741 2004 l 2
 736.333333333 1987.33333333 721.666666667 1971.33333333 697 1956 c 0
 298 1726 l 0
 274 1712.66666667 262 1719 262 1745 c 2
 263 1779 l 2
 263.666666667 1792.33333333 275.333333333 1808 298 1826 c 0
 724 2092 l 0
EndSplineSet
EndChar
StartChar: uni064F
Encoding: 1615 1615 236
Width: 0
GlyphClass: 4
Flags: HW
AnchorPoint: "MarkAbove" 569 1640 mark 0
AnchorPoint: "TashkilTashkilAbove" 400 2200 basemark 0
AnchorPoint: "TashkilAboveDot" 570 1640 mark 0
AnchorPoint: "TashkilAbove" 570 1640 mark 0
LayerCount: 3
Fore
SplineSet
634 2363 m 1
 664 2366.33 688.67 2353 708 2323 c 0
 742.67 2268.33 744 2196.67 712 2108 c 1
 728 2099.33 740 2093 748 2089 c 0
 776 2077.67 782.33 2057 767 2027 c 2
 744 1983 l 2
 732.67 1961 718.67 1953.17 702 1959.5 c 128
 685.33 1965.83 667.67 1974 649 1984 c 1
 555 1862.67 449 1772.33 331 1713 c 0
 295.67 1695.67 270.67 1700 256 1726 c 0
 241.33 1753.33 253.33 1777.67 292 1799 c 0
 407.33 1866.33 499.67 1942.67 569 2028 c 1
 474.33 2080.67 439.67 2137 465 2197 c 0
 507 2296.33 563.33 2351.67 634 2363 c 1
623 2151 m 1
 623 2175 618.67 2191 610 2199 c 128
 601.33 2207 592.67 2213.67 584 2219 c 0
 574 2225 564 2219.33 554 2202 c 1
 559.33 2188.67 582.33 2171.67 623 2151 c 1
EndSplineSet
Layer: 2
SplineSet
636 2348 m 0
 659.333333333 2351.33333333 679 2340.33333333 695 2315 c 0
 729 2262.33333333 728.666666667 2191 694 2101 c 1
 716 2088.33333333 732 2079.66666667 742 2075 c 0
 760.666666667 2067.66666667 764.666666667 2054 754 2034 c 2
 731 1990 l 2
 723.666666667 1975.33333333 713.5 1970.5 700.5 1975.5 c 128
 687.5 1980.5 669 1989.66666667 645 2003 c 1
 551 1878.33333333 444 1786 324 1726 c 0
 297.333333333 1712 279.333333333 1713.66666667 270 1731 c 0
 259.333333333 1751 269 1769.33333333 299 1786 c 0
 422.333333333 1858 520 1940.33333333 592 2033 c 1
 553.333333333 2053 524.666666667 2072.33333333 506 2091 c 0
 472.666666667 2122.33333333 463.666666667 2155.66666667 479 2191 c 0
 518.333333333 2285.66666667 570.666666667 2338 636 2348 c 0
615 2215 m 0
 584.333333333 2243 559.666666667 2241.33333333 541 2210 c 0
 535.666666667 2202.66666667 539.166666667 2192.5 551.5 2179.5 c 128
 563.833333333 2166.5 592 2149.33333333 636 2128 c 1
 642 2168.66666667 635 2197.66666667 615 2215 c 0
EndSplineSet
EndChar
StartChar: uni0651
Encoding: 1617 1617 238
Width: 0
GlyphClass: 4
Flags: HW
AnchorPoint: "MarkAbove" 427 1640 mark 0
AnchorPoint: "TashkilTashkilBelow" 405 1640 basemark 0
AnchorPoint: "TashkilTashkilAbove" 410 2054 basemark 0
AnchorPoint: "TashkilAbove" 427 1640 mark 0
AnchorPoint: "TashkilAboveDot" 427 1640 mark 0
LayerCount: 3
Fore
SplineSet
600 2015 m 0
 605.33 2052.33 620 2070.33 644 2069 c 0
 668.67 2067.67 682 2052.67 684 2024 c 0
 684 2020 683.67 2016.33 683 2013 c 0
 678.33 1938.33 664.33 1875.67 641 1825 c 0
 612.33 1763 571 1729.67 517 1725 c 1
 485 1723 455 1736.33 427 1765 c 1
 407 1736.33 383 1714.33 355 1699 c 1
 317 1679.67 279.67 1677 243 1691 c 1
 156.33 1727 145 1828.67 209 1996 c 0
 221 2026 239.67 2037 265 2029 c 0
 267 2028.33 268.67 2028 270 2028 c 0
 291.33 2018 298 1997.67 290 1967 c 0
 286 1951.67 283 1938 281 1926 c 0
 275.67 1882.67 285.33 1858.67 310 1854 c 1
 344.67 1849.33 374.33 1881.33 399 1950 c 0
 405.67 1968 412 1988 418 2010 c 0
 425.33 2038.67 440 2051.67 462 2049 c 0
 463.33 2049 464.33 2048.67 465 2048 c 0
 487 2042.67 497.33 2030.33 496 2011 c 0
 496 2008.33 495.67 2005.67 495 2003 c 1
 495 2004 l 2
 493 1991.33 492 1980 492 1970 c 0
 491.33 1935.33 502.33 1916.33 525 1913 c 0
 527.67 1913 530.33 1912.67 533 1912 c 0
 565.67 1911.33 586.67 1937.67 596 1991 c 0
 598 1998.33 599.33 2006.33 600 2015 c 0
EndSplineSet
Layer: 2
SplineSet
612 2014 m 0
 615.333333333 2044 625.666666667 2058.33333333 643 2057 c 0
 663.666666667 2055.66666667 673 2041.33333333 671 2014 c 0
 666.333333333 1940.66666667 652.666666667 1879.33333333 630 1830 c 0
 604 1772 566 1741 516 1737 c 0
 484 1734.33333333 453.666666667 1750.66666667 425 1786 c 1
 405.666666667 1752 380.333333333 1726.66666667 349 1710 c 0
 315 1692 281.333333333 1689.66666667 248 1703 c 0
 168 1735 159 1831 221 1991 c 0
 231 2015.66666667 245.666666667 2024 265 2016 c 0
 280.333333333 2009.33333333 284.666666667 1994 278 1970 c 0
 256 1890.66666667 266 1848 308 1842 c 0
 359.333333333 1835.33333333 400 1890.33333333 430 2007 c 0
 436 2029.66666667 446.666666667 2039.33333333 462 2036 c 0
 479.333333333 2032 486.333333333 2022 483 2006 c 0
 471.666666667 1936 488.333333333 1900.66666667 533 1900 c 128
 577.666666667 1899.33333333 604 1937.33333333 612 2014 c 0
EndSplineSet
EndChar
StartChar: uni0652
Encoding: 1618 1618 239
Width: 0
GlyphClass: 4
Flags: HW
AnchorPoint: "TashkilTashkilAbove" 372 1640 mark 0
AnchorPoint: "MarkAbove" 369 1640 mark 0
AnchorPoint: "TashkilAboveDot" 372 1640 mark 0
AnchorPoint: "TashkilAbove" 372 1640 mark 0
LayerCount: 3
Fore
SplineSet
457 1861 m 0
 496.333333333 1871.66666667 495.666666667 1897.66666667 455 1939 c 0
 425.666666667 1968.33333333 389.666666667 1983.33333333 347 1984 c 0
 295 1985.33333333 268 1963.33333333 266 1918 c 0
 265.333333333 1888.66666667 276.666666667 1870 300 1862 c 0
 347.333333333 1845.33333333 399.666666667 1845 457 1861 c 0
228 2022 m 0
 236 2036.66666667 244 2049.33333333 252 2060 c 0
 304 2128.66666667 367.666666667 2138 443 2088 c 0
 448.333333333 2084.66666667 453.333333333 2081 458 2077 c 0
 516.666666667 2031.66666667 548 1977 552 1913 c 1
 556 1834.33333333 532 1776.33333333 480 1739 c 1
 441.333333333 1713 394.333333333 1702 339 1706 c 0
 330.333333333 1706.66666667 322 1707.33333333 314 1708 c 0
 222.666666667 1722.66666667 181.666666667 1784 191 1892 c 0
 191.666666667 1902.66666667 193 1913.66666667 195 1925 c 0
 201 1961 212 1993.33333333 228 2022 c 0
EndSplineSet
Layer: 2
SplineSet
239 2016 m 0
 293.666666667 2116 364 2133 450 2067 c 0
 506 2024.33333333 536 1972.66666667 540 1912 c 0
 544.666666667 1838 522.333333333 1783.66666667 473 1749 c 0
 437 1724.33333333 392.666666667 1714 340 1718 c 0
 230 1725.33333333 185.666666667 1793.66666667 207 1923 c 0
 213 1957 223.666666667 1988 239 2016 c 0
457 1861 m 0
 496.333333333 1871.66666667 495.666666667 1897.66666667 455 1939 c 0
 425.666666667 1968.33333333 389.666666667 1983.33333333 347 1984 c 0
 295 1985.33333333 268 1963.33333333 266 1918 c 0
 265.333333333 1888.66666667 276.666666667 1870 300 1862 c 0
 347.333333333 1845.33333333 399.666666667 1845 457 1861 c 0
EndSplineSet
EndChar
StartChar: uni0653
Encoding: 1619 1619 199
Width: 0
GlyphClass: 4
Flags: HW
AnchorPoint: "MarkAbove" -1 1570 mark 0
AnchorPoint: "TashkilAbove" 0 1640 mark 0
LayerCount: 3
Fore
SplineSet
394 1887 m 0
 430 1897 453.333333333 1887.33333333 464 1858 c 256
 475.333333333 1827.33333333 469 1804 445 1788 c 0
 284.333333333 1681.33333333 48.3333333333 1636.66666667 -263 1654 c 1
 -287 1594 -311 1563.33333333 -335 1562 c 0
 -349.666666667 1561.33333333 -361.666666667 1565.66666667 -371 1575 c 2
 -459 1672 l 2
 -481 1696 -484.333333333 1720 -469 1744 c 2
 -410 1836 l 2
 -396 1858 -365.333333333 1865 -318 1857 c 0
 -71.3333333333 1813.66666667 166 1823.66666667 394 1887 c 0
EndSplineSet
Layer: 2
SplineSet
401 1868 m 0
 426.333333333 1874.66666667 442.833333333 1867.33333333 450.5 1846 c 128
 458.166666667 1824.66666667 452.333333333 1807.66666667 433 1795 c 0
 286.333333333 1698.33333333 48 1655 -282 1665 c 1
 -294 1637.66666667 -306.166666667 1617.16666667 -318.5 1603.5 c 128
 -330.833333333 1589.83333333 -341 1587.33333333 -349 1596 c 2
 -444 1693 l 1
 -462.666666667 1710.33333333 -441.333333333 1754.33333333 -380 1825 c 0
 -368.666666667 1837.66666667 -349.666666667 1841.66666667 -323 1837 c 0
 -80.3333333333 1797.66666667 161 1808 401 1868 c 0
EndSplineSet
EndChar
StartChar: uni0654
Encoding: 1620 1620 197
Width: 0
GlyphClass: 4
Flags: HW
AnchorPoint: "TashkilAbove" 0 950 mark 0
AnchorPoint: "MarkAbove" -1 830 mark 0
AnchorPoint: "TashkilTashkilAbove" -50 1470 basemark 0
AnchorPoint: "HamzaAbove" 0 950 mark 0
LayerCount: 3
Fore
SplineSet
154 969 m 0
 80.67 954.33 28.67 942.17 -2 932.5 c 128
 -32.67 922.83 -89.67 899.67 -173 863 c 1
 -198.33 853.67 -217.33 858 -230 876 c 1
 -249.33 906.67 -228.33 943 -167 985 c 1
 -207.67 1010.33 -231.33 1038.33 -238 1069 c 1
 -248.67 1129 -224.17 1200 -164.5 1282 c 128
 -104.83 1364 -40 1402.33 30 1397 c 0
 81.33 1393 104.5 1366.17 99.5 1316.5 c 128
 94.5 1266.83 84.67 1231.83 70 1211.5 c 128
 55.33 1191.17 44.67 1178.67 38 1174 c 0
 18 1160.67 1 1164.17 -13 1184.5 c 128
 -27 1204.83 -44.83 1216 -66.5 1218 c 128
 -88.17 1220 -104.17 1215 -114.5 1203 c 128
 -124.83 1191 -124.67 1179.67 -114 1169 c 0
 -70.67 1129 -7.67 1107.67 75 1105 c 0
 88.33 1105 108.83 1108.33 136.5 1115 c 128
 164.17 1121.67 185.17 1124.67 199.5 1124 c 128
 213.83 1123.33 225 1116.67 233 1104 c 1
 240.33 1090.67 241.67 1078.33 237 1067 c 1
 208.33 1007.67 180.67 975 154 969 c 0
EndSplineSet
Layer: 2
SplineSet
151 984 m 0
 77 969.333333333 24.6666666667 957.166666667 -6 947.5 c 128
 -36.6666666667 937.833333333 -94.3333333333 914.333333333 -179 877 c 0
 -197 869.666666667 -210 872 -218 884 c 0
 -234.666666667 908.666666667 -208 942.666666667 -138 986 c 1
 -188.666666667 1011.33333333 -217 1040 -223 1072 c 0
 -233.666666667 1127.33333333 -210.666666667 1194.33333333 -154 1273 c 1
 -96.6666666667 1351 -35.6666666667 1387.33333333 29 1382 c 0
 70.3333333333 1378.66666667 88.8333333333 1355.5 84.5 1312.5 c 128
 80.1666666667 1269.5 68 1234 48 1206 c 128
 28 1178 11 1175 -3 1197 c 128
 -17 1219 -37.5 1231.33333333 -64.5 1234 c 128
 -91.5 1236.66666667 -112.666666667 1229 -128 1211 c 128
 -143.333333333 1193 -142 1175.33333333 -124 1158 c 0
 -78.6666666667 1115.33333333 -12.3333333333 1092.66666667 75 1090 c 0
 89 1090 110 1093.33333333 138 1100 c 128
 166 1106.66666667 185.5 1109.83333333 196.5 1109.5 c 128
 207.5 1109.16666667 215.5 1104.83333333 220.5 1096.5 c 128
 225.5 1088.16666667 226.333333333 1080.33333333 223 1073 c 0
 197 1018.33333333 173 988.666666667 151 984 c 0
EndSplineSet
EndChar
StartChar: uni0658
Encoding: 1624 1624 4625
Width: 0
GlyphClass: 4
Flags: HW
AnchorPoint: "MarkAbove" 369 1640 mark 0
AnchorPoint: "TashkilAboveDot" 372 1640 mark 0
AnchorPoint: "TashkilAbove" 372 1640 mark 0
LayerCount: 3
Fore
SplineSet
289 2075 m 0
 302.333333333 2094.33333333 316.333333333 2103.66666667 331 2103 c 1
 350.333333333 2101 358 2086.33333333 354 2059 c 0
 341.333333333 1958.33333333 371.333333333 1903.33333333 444 1894 c 1
 464.666666667 1892.66666667 483.333333333 1904 500 1928 c 0
 518.666666667 1955.33333333 536 1965.33333333 552 1958 c 1
 566.666666667 1950 569.666666667 1931.33333333 561 1902 c 1
 521.666666667 1776.66666667 459.666666667 1713.33333333 375 1712 c 1
 280.333333333 1711.33333333 229 1757.66666667 221 1851 c 1
 216.333333333 1924.33333333 239 1999 289 2075 c 0
EndSplineSet
Layer: 2
SplineSet
302 2067 m 0
 311.333333333 2081.66666667 320.5 2088.66666667 329.5 2088 c 128
 338.5 2087.33333333 341.666666667 2078.33333333 339 2061 c 0
 325 1949.66666667 359.333333333 1889 442 1879 c 0
 468.666666667 1875.66666667 492 1888.66666667 512 1918 c 256
 526.666666667 1939.33333333 537.666666667 1948.16666667 545 1944.5 c 128
 552.333333333 1940.83333333 553 1928 547 1906 c 0
 510.333333333 1787.33333333 453 1727.66666667 375 1727 c 0
 289 1726.33333333 242.666666667 1768 236 1852 c 256
 231.333333333 1922 253.333333333 1993.66666667 302 2067 c 0
EndSplineSet
EndChar
StartChar: uni0659
Encoding: 1625 1625 4622
Width: 0
GlyphClass: 4
Flags: HW
AnchorPoint: "MarkAbove" 549 1640 mark 0
AnchorPoint: "TashkilAbove" 556 1640 mark 0
AnchorPoint: "TashkilAboveDot" 556 1640 mark 0
LayerCount: 3
Fore
SplineSet
270 1715 m 2
 247.333333333 1715 231 1720.33333333 221 1731 c 0
 211 1741.66666667 216.666666667 1757.33333333 238 1778 c 2
 290 1826 l 1
 306.666666667 1840.66666667 330.666666667 1848.33333333 362 1849 c 1
 842 1849 l 2
 864.666666667 1849 881 1843.66666667 891 1833 c 0
 901 1822.33333333 895.333333333 1806.66666667 874 1786 c 2
 822 1738 l 1
 805.333333333 1723.33333333 781.333333333 1715.66666667 750 1715 c 1
 270 1715 l 2
EndSplineSet
Layer: 2
SplineSet
270 1730 m 0
 228.666666667 1729.33333333 221.333333333 1741.66666667 248 1767 c 2
 300 1815 l 2
 313.333333333 1827 334 1833.33333333 362 1834 c 0
 842 1834 l 0
 883.333333333 1834.66666667 890.666666667 1822.33333333 864 1797 c 2
 812 1749 l 2
 798.666666667 1737 778 1730.66666667 750 1730 c 0
 270 1730 l 0
EndSplineSet
EndChar
StartChar: uni065A
Encoding: 1626 1626 209
Width: 0
GlyphClass: 4
Flags: HW
AnchorPoint: "TashkilAbove" 0 950 mark 0
AnchorPoint: "MarkAbove" 0 840 mark 0
AnchorPoint: "TashkilTashkilAbove" 0 1500 basemark 0
AnchorPoint: "MarkDotAbove" 0 950 mark 0
AnchorPoint: "VAbove" 0 950 mark 0
LayerCount: 3
Back
SplineSet
127.709960938 1314.46972656 m 1
 94.943359375 1291.53027344 l 1
 42.4609375 1212.01009115 0.273763020833 1129.18001302 -31.6181640625 1043.04003906 c 1
 -113.8984375 1196.08984375 l 1
 -171.255859375 1278.00976562 l 1
 -204.021484375 1255.05957031 l 1
 -164.136067708 1178.3063151 -113.816080729 1086.44856771 -53.0615234375 979.486328125 c 1
 4.2958984375 897.571289062 l 1
 37.0615234375 920.513671875 l 1
 70.3603515625 1029.49153646 119.695638021 1133.50683594 185.067382812 1232.55957031 c 1
 127.709960938 1314.46972656 l 1
208 1356 m 0
 108 1229.33333333 36 1094 -8 950 c 17
 -102.666666667 1116.66666667 -172 1246.66666667 -216 1340 c 0
EndSplineSet
Fore
SplineSet
154 1315 m 2
 193 1259 l 1
 205 1239 204.666666667 1221 192 1205 c 1
 126 1095.66666667 81.6666666667 1001.33333333 59 922 c 0
 57.6666666667 918.666666667 56 916 54 914 c 2
 35 900 l 1
 19 889.333333333 3.66666666667 892.666666667 -11 910 c 0
 -89.6666666667 1007.33333333 -151.333333333 1111 -196 1221 c 0
 -210 1256.33333333 -203.5 1278.5 -176.5 1287.5 c 128
 -149.5 1296.5 -129.666666667 1285.33333333 -117 1254 c 1
 -100.333333333 1210 -71.3333333333 1152 -30 1080 c 1
 -1.33333333333 1169.33333333 40 1246.66666667 94 1312 c 0
 105.333333333 1324.66666667 116.5 1330.83333333 127.5 1330.5 c 128
 138.5 1330.16666667 147.333333333 1325 154 1315 c 2
EndSplineSet
Layer: 2
SplineSet
142 1307 m 2
 180 1251 l 2
 184.666666667 1243.66666667 187 1237.33333333 187 1232 c 0
 187 1225.33333333 184.666666667 1219 180 1213 c 0
 113.333333333 1102.33333333 68.3333333333 1006.66666667 45 926 c 0
 26 912 l 2
 23.3333333333 910 20.3333333333 909 17 909 c 0
 11.6666666667 909 6.33333333333 912.333333333 1 919 c 0
 -77 1015 -138 1117.66666667 -182 1227 c 16
 -186 1236.33333333 -188 1244.33333333 -188 1251 c 0
 -188 1263 -181.666666667 1271 -169 1275 c 0
 -152.333333333 1280.33333333 -139.666666667 1271.66666667 -131 1249 c 0
 -112.333333333 1199 -77 1130.33333333 -25 1043 c 1
 3 1144.33333333 46.3333333333 1230.66666667 105 1302 c 0
 113 1311.33333333 120.333333333 1316 127 1316 c 0
 133 1316 138 1313 142 1307 c 2
EndSplineSet
EndChar
StartChar: uni065B
Encoding: 1627 1627 244
Width: 0
GlyphClass: 4
Flags: HW
AnchorPoint: "TashkilAbove" 0 950 mark 0
AnchorPoint: "MarkAbove" 0 840 mark 0
AnchorPoint: "TashkilTashkilAbove" 0 1500 basemark 0
AnchorPoint: "TashkilAboveDot" 0 950 mark 0
AnchorPoint: "VAbove" 0 950 mark 0
LayerCount: 3
Fore
SplineSet
-104 962 m 0
 -111.333333333 934 -127.333333333 920.333333333 -152 921 c 128
 -176.666666667 921.666666667 -189.666666667 934 -191 958 c 0
 -191 966 -189.333333333 975.333333333 -186 986 c 0
 -153.333333333 1101.33333333 -103.333333333 1211.33333333 -36 1316 c 1
 -22 1334.66666667 -7 1339.33333333 9 1330 c 128
 25 1320.66666667 33.6666666667 1314.66666667 35 1312 c 0
 67 1234.66666667 121 1145.66666667 197 1045 c 1
 211 1029 213 1010.66666667 203 990 c 1
 171 930 l 2
 165 919.333333333 156.333333333 913.333333333 145 912 c 128
 133.666666667 910.666666667 122 915.666666667 110 927 c 0
 50 986.333333333 1 1058.66666667 -37 1144 c 1
 -70.3333333333 1067.33333333 -92.6666666667 1006.66666667 -104 962 c 0
EndSplineSet
Layer: 2
SplineSet
158 937 m 2
 154.666666667 930.333333333 150 927 144 927 c 0
 137.333333333 925.666666667 129.666666667 929.333333333 121 938 c 0
 55 1002.66666667 2.66666666667 1084 -36 1182 c 1
 -78 1090 -105.666666667 1018 -119 966 c 0
 -125 942.666666667 -136.666666667 932.666666667 -154 936 c 0
 -167.333333333 938.666666667 -174.666666667 946 -176 958 c 0
 -176 964 -174.666666667 972 -172 982 c 8
 -140 1095.33333333 -90.3333333333 1204 -23 1308 c 0
 -18.3333333333 1315.33333333 -13.3333333333 1319.33333333 -8 1320 c 0
 -4.66666666667 1320.66666667 -1.66666666667 1320 1 1318 c 2
 21 1306 l 0
 53 1228 108 1137.66666667 186 1035 c 0
 191.333333333 1029.66666667 194.333333333 1023.66666667 195 1017 c 0
 195.666666667 1011.66666667 194 1005 190 997 c 2
 158 937 l 2
EndSplineSet
EndChar
StartChar: uni065D
Encoding: 1629 1629 289
Width: 0
GlyphClass: 4
Flags: HW
AnchorPoint: "MarkAbove" 569 1640 mark 0
AnchorPoint: "TashkilAbove" 570 1640 mark 0
AnchorPoint: "TashkilAboveDot" 570 1640 mark 0
LayerCount: 3
Fore
SplineSet
389 2363 m 1
 460.333333333 2351 516.666666667 2295.66666667 558 2197 c 0
 582.666666667 2137 548 2080.66666667 454 2028 c 1
 524.666666667 1942 617 1865.66666667 731 1799 c 1
 769 1777.66666667 781 1753.66666667 767 1727 c 0
 752.333333333 1699.66666667 727.333333333 1695 692 1713 c 0
 573.333333333 1773 467.333333333 1863.33333333 374 1984 c 1
 354.666666667 1973.33333333 337 1965 321 1959 c 0
 304.333333333 1952.33333333 290.333333333 1960.33333333 279 1983 c 2
 256 2027 l 2
 240.666666667 2055.66666667 247 2076.33333333 275 2089 c 0
 283.666666667 2093 295.666666667 2099.33333333 311 2108 c 1
 279.666666667 2197.33333333 281 2269 315 2323 c 0
 335 2353.66666667 359.666666667 2367 389 2363 c 1
400 2151 m 1
 441.333333333 2172.33333333 464.333333333 2189.33333333 469 2202 c 1
 456.333333333 2222.66666667 441.666666667 2225.16666667 425 2209.5 c 128
 408.333333333 2193.83333333 400 2174.33333333 400 2151 c 1
EndSplineSet
Layer: 2
SplineSet
387 2348 m 0
 452.333333333 2338 504.666666667 2285.66666667 544 2191 c 0
 559.333333333 2155.66666667 550.333333333 2122.33333333 517 2091 c 0
 498.333333333 2072.33333333 469.666666667 2053 431 2033 c 1
 503 1940.33333333 600.666666667 1858 724 1786 c 0
 754 1769.33333333 763.666666667 1751 753 1731 c 0
 743.666666667 1713.66666667 725.666666667 1712 699 1726 c 0
 579 1786 472 1878.33333333 378 2003 c 1
 354 1989.66666667 335.5 1980.5 322.5 1975.5 c 128
 309.5 1970.5 299.333333333 1975.33333333 292 1990 c 2
 269 2034 l 2
 258.333333333 2054 262.333333333 2067.66666667 281 2075 c 0
 291 2079.66666667 307 2088.33333333 329 2101 c 1
 294.333333333 2191 294 2262.33333333 328 2315 c 0
 344 2340.33333333 363.666666667 2351.33333333 387 2348 c 0
408 2215 m 0
 388 2197.66666667 381 2168.66666667 387 2128 c 1
 431 2149.33333333 459.166666667 2166.5 471.5 2179.5 c 128
 483.833333333 2192.5 487.333333333 2202.66666667 482 2210 c 0
 463.333333333 2241.33333333 438.666666667 2243 408 2215 c 0
EndSplineSet
EndChar
StartChar: uni065E
Encoding: 1630 1630 4623
Width: 0
GlyphClass: 4
Flags: HW
AnchorPoint: "MarkAbove" 549 1640 mark 0
AnchorPoint: "TashkilAbove" 556 1640 mark 0
AnchorPoint: "TashkilAboveDot" 556 1640 mark 0
LayerCount: 3
Fore
SplineSet
300 2089 m 2
 304.666666667 2095.66666667 314.333333333 2099 329 2099 c 0
 344.333333333 2099 369.333333333 2083.33333333 404 2052 c 1
 412 2042.66666667 413.666666667 2033.33333333 409 2024 c 1
 360 1947 l 1
 352 1936.33333333 343.333333333 1934.33333333 334 1941 c 0
 312 1956.33333333 292 1968 274 1976 c 1
 257.333333333 1986.66666667 248.333333333 1996 247 2004 c 1
 249 2014 l 1
 300 2089 l 2
665 1875 m 1
 669.666666667 1881 674.666666667 1884 680 1884 c 0
 685.333333333 1884 697 1881 715 1875 c 0
 732.333333333 1869 744 1863 750 1857 c 0
 756 1850.33333333 762.666666667 1843 770 1835 c 0
 777.333333333 1827 778.333333333 1818.33333333 773 1809 c 2
 724 1732 l 1
 714 1719.33333333 700.333333333 1721 683 1737 c 0
 666.333333333 1752.33333333 650.333333333 1762.33333333 635 1767 c 0
 619.666666667 1771.66666667 611.666666667 1779 611 1789 c 1
 613 1799 l 1
 665 1875 l 1
EndSplineSet
Refer: 235 1614 N 1 0 0 1 0 0 2
Layer: 2
SplineSet
313 2082 m 2
 313.666666667 2084 315 2085 317 2085 c 0
 336.333333333 2085 362 2070.33333333 394 2041 c 0
 396.666666667 2038.33333333 397.333333333 2035.33333333 396 2032 c 2
 347 1955 l 2
 345 1951.66666667 341.666666667 1952 337 1956 c 0
 332.333333333 1960 318.666666667 1968.66666667 296 1982 c 0
 273.333333333 1995.33333333 262 2002.66666667 262 2004 c 0
 262 2005.33333333 262.333333333 2006.33333333 263 2007 c 2
 313 2082 l 2
677 1867 m 2
 679 1869 680.666666667 1870 682 1870 c 0
 683.333333333 1870 692 1867.33333333 708 1862 c 0
 724 1856.66666667 736.666666667 1848.66666667 746 1838 c 0
 756.666666667 1826 761.333333333 1819 760 1817 c 2
 711 1740 l 2
 710.333333333 1738.66666667 709.333333333 1738 708 1738 c 0
 706.666666667 1738 699.333333333 1743.33333333 686 1754 c 0
 672.666666667 1764.66666667 659.333333333 1772.66666667 646 1778 c 0
 632.666666667 1783.33333333 626 1787 626 1789 c 0
 626 1790.33333333 626.333333333 1791.33333333 627 1792 c 2
 677 1867 l 2
EndSplineSet
Refer: 235 1614 N 1 0 0 1 0 0 2
EndChar
StartChar: uni065F
Encoding: 1631 1631 247
Width: 0
GlyphClass: 4
Flags: HW
AnchorPoint: "TashkilBelow" 0 -500 mark 0
AnchorPoint: "MarkBelow" 0 -460 mark 0
AnchorPoint: "TashkilTashkilBelow" 0 -1120 basemark 0
AnchorPoint: "HamzaBelow" 0 -500 mark 0
LayerCount: 3
Back
SplineSet
-178 -966 m 0
 -199.132 -977.786 -246.521 -968.261 -320.167 -937.425 c 0
 -354.299666667 -923.613 -386.299666667 -927.192 -416.167 -948.162 c 0
 -434.653 -961.456666667 -457.986333333 -988.736 -486.167 -1030 c 0
151 -900 m 0
 77 -914.666666667 24.6666666667 -926.833333333 -6 -936.5 c 128
 -36.6666666667 -946.166666667 -94.3333333333 -969.666666667 -179 -1007 c 0
 -197 -1014.33333333 -210 -1012 -218 -1000 c 0
 -234.666666667 -975.333333333 -208 -941.333333333 -138 -898 c 1
 -188.666666667 -872.666666667 -217 -844 -223 -812 c 0
 -233.666666667 -756.666666667 -210.666666667 -689.666666667 -154 -611 c 1
 -96.6666666667 -533 -35.6666666667 -496.666666667 29 -502 c 0
 70.3333333333 -505.333333333 88.8333333333 -528.5 84.5 -571.5 c 128
 80.1666666667 -614.5 68 -650 48 -678 c 128
 28 -706 11 -709 -3 -687 c 128
 -17 -665 -37.5 -652.666666667 -64.5 -650 c 128
 -91.5 -647.333333333 -112.666666667 -655 -128 -673 c 128
 -143.333333333 -691 -142 -708.666666667 -124 -726 c 0
 -78.6666666667 -768.666666667 -12.3333333333 -791.333333333 75 -794 c 0
 89 -794 110 -790.666666667 138 -784 c 128
 166 -777.333333333 185.5 -774.166666667 196.5 -774.5 c 128
 207.5 -774.833333333 215.5 -779.166666667 220.5 -787.5 c 128
 225.5 -795.833333333 226.333333333 -803.666666667 223 -811 c 0
 197 -865.666666667 173 -895.333333333 151 -900 c 0
EndSplineSet
Fore
SplineSet
-179 -908 m 1
 -173 -905.333333333 -168.333333333 -903 -165 -901 c 1
 -207 -875.666666667 -231.333333333 -847 -238 -815 c 1
 -248.666666667 -755 -224.166666667 -683.833333333 -164.5 -601.5 c 128
 -104.833333333 -519.166666667 -40 -481 30 -487 c 0
 81.3333333333 -491 104.5 -517.833333333 99.5 -567.5 c 128
 94.5 -617.166666667 84.6666666667 -652.166666667 70 -672.5 c 128
 55.3333333333 -692.833333333 44.6666666667 -705.333333333 38 -710 c 0
 18 -723.333333333 1 -719.833333333 -13 -699.5 c 128
 -27 -679.166666667 -44.8333333333 -668 -66.5 -666 c 128
 -88.1666666667 -664 -104.166666667 -669 -114.5 -681 c 128
 -124.833333333 -693 -124.666666667 -704.333333333 -114 -715 c 0
 -70.6666666667 -755 -7.66666666667 -776.333333333 75 -779 c 0
 88.3333333333 -779 108.833333333 -775.666666667 136.5 -769 c 128
 164.166666667 -762.333333333 185.166666667 -759.333333333 199.5 -760 c 128
 213.833333333 -760.666666667 225 -767.333333333 233 -780 c 1
 240.333333333 -793.333333333 241.666666667 -805.666666667 237 -817 c 0
 209.666666667 -875.666666667 182 -908.333333333 154 -915 c 1
 50.6666666667 -937 -58.3333333333 -972.333333333 -173 -1021 c 0
 -212.333333333 -1037 -269 -1030 -343 -1000 c 0
 -372.333333333 -988.666666667 -397.666666667 -990.5 -419 -1005.5 c 128
 -440.333333333 -1020.5 -464.333333333 -1047.33333333 -491 -1086 c 0
 -501 -1101.33333333 -512.5 -1102 -525.5 -1088 c 128
 -538.5 -1074 -541.666666667 -1061.33333333 -535 -1050 c 0
 -486.333333333 -966.666666667 -444 -913 -408 -889 c 128
 -372 -865 -335.333333333 -860.333333333 -298 -875 c 0
 -236 -899 -196.333333333 -910 -179 -908 c 1
EndSplineSet
Layer: 2
SplineSet
-173 -922 m 128
 -158.333333333 -915.333333333 -146.666666667 -907.333333333 -138 -898 c 1
 -188.666666667 -872.666666667 -217 -844 -223 -812 c 0
 -233.666666667 -756.666666667 -210.666666667 -689.666666667 -154 -611 c 1
 -96.6666666667 -533 -35.6666666667 -496.666666667 29 -502 c 0
 70.3333333333 -505.333333333 88.8333333333 -528.5 84.5 -571.5 c 128
 80.1666666667 -614.5 68 -650 48 -678 c 128
 28 -706 11 -709 -3 -687 c 128
 -17 -665 -37.5 -652.666666667 -64.5 -650 c 128
 -91.5 -647.333333333 -112.666666667 -655 -128 -673 c 128
 -143.333333333 -691 -142 -708.666666667 -124 -726 c 0
 -78.6666666667 -768.666666667 -12.3333333333 -791.333333333 75 -794 c 0
 89 -794 110 -790.666666667 138 -784 c 128
 166 -777.333333333 185.5 -774.166666667 196.5 -774.5 c 128
 207.5 -774.833333333 215.5 -779.166666667 220.5 -787.5 c 128
 225.5 -795.833333333 226.333333333 -803.666666667 223 -811 c 0
 198.333333333 -865.666666667 174.333333333 -895.333333333 151 -900 c 0
 47 -922 -63 -957.666666667 -179 -1007 c 0
 -213.666666667 -1021.66666667 -266.333333333 -1014.66666667 -337 -986 c 0
 -371 -972 -400.166666667 -973.5 -424.5 -990.5 c 128
 -448.833333333 -1007.5 -475 -1036.66666667 -503 -1078 c 1
 -507 -1083.33333333 -511.833333333 -1082.83333333 -517.5 -1076.5 c 128
 -523.166666667 -1070.16666667 -524.666666667 -1064 -522 -1058 c 0
 -474.666666667 -976.666666667 -434 -924.333333333 -400 -901 c 0
 -368.666666667 -879.666666667 -336.666666667 -875.666666667 -304 -889 c 0
 -231.333333333 -917.666666667 -187.666666667 -928.666666667 -173 -922 c 128
EndSplineSet
EndChar
StartChar: uni0660
Encoding: 1632 1632 263
Width: 1200
Flags: HW
LayerCount: 3
Fore
SplineSet
486 649 m 2
 505.333333333 700.333333333 540.666666667 709.666666667 592 677 c 2
 761 568 l 2
 798.333333333 544 809.333333333 509 794 463 c 2
 730 262 l 2
 711.333333333 204 673.333333333 191.666666667 616 225 c 2
 430 335 l 2
 399.333333333 353 392 385 408 431 c 2
 486 649 l 2
EndSplineSet
Layer: 2
SplineSet
514 639 m 2
 524 667.666666667 544.666666667 672 576 652 c 2
 745 543 l 2
 769.666666667 527 776.666666667 503.666666667 766 473 c 2
 701 271 l 2
 689.666666667 236.333333333 666.333333333 229.666666667 631 251 c 2
 445 361 l 2
 428.333333333 371 425.333333333 391 436 421 c 2
 514 639 l 2
EndSplineSet
EndChar
StartChar: uni0661
Encoding: 1633 1633 258
Width: 1200
Flags: HW
LayerCount: 3
Fore
SplineSet
475 1084 m 2
 513 1196.66666667 559 1184.66666667 613 1048 c 0
 695.666666667 840.666666667 750.666666667 617.666666667 778 379 c 128
 805.333333333 140.333333333 793.666666667 -43.3333333333 743 -172 c 0
 727.666666667 -210.666666667 708.333333333 -226.333333333 685 -219 c 128
 661.666666667 -211.666666667 650 -187.666666667 650 -147 c 0
 652.666666667 184.333333333 578.333333333 483 427 749 c 0
 399.666666667 796.333333333 392.666666667 839.666666667 406 879 c 2
 475 1084 l 2
EndSplineSet
Layer: 2
SplineSet
503 1074 m 2
 522.333333333 1130.66666667 549.666666667 1118.33333333 585 1037 c 1
 665.666666667 832.333333333 719.666666667 635.666666667 747 447 c 0
 783.666666667 183 778 -20 730 -162 c 0
 722.666666667 -183.333333333 710 -192.333333333 692 -189 c 128
 674 -185.666666667 665 -171.666666667 665 -147 c 0
 669 203 598.333333333 506.666666667 453 764 c 0
 429.666666667 804.666666667 423.333333333 839.666666667 434 869 c 2
 503 1074 l 2
EndSplineSet
EndChar
StartChar: uni0662
Encoding: 1634 1634 259
Width: 1200
Flags: HW
LayerCount: 3
Fore
SplineSet
251 1074 m 2
 277.67 1186 322.33 1182.83 385 1064.5 c 128
 447.67 946.17 529.33 887 630 887 c 0
 770.67 887.67 856 950.33 886 1075 c 0
 895.33 1115 914 1134 942 1132 c 256
 969.33 1130.67 983.83 1112.17 985.5 1076.5 c 128
 987.17 1040.83 981.5 986.17 968.5 912.5 c 128
 955.5 838.83 930.67 776 894 724 c 0
 825.33 624.67 717.33 582 570 596 c 1
 642.67 288 657.33 34.67 614 -164 c 0
 608.67 -189.33 598.67 -205.67 584 -213 c 128
 569.33 -220.33 555.17 -218.33 541.5 -207 c 128
 527.83 -195.67 520.33 -177 519 -151 c 0
 496.33 198.33 400.33 497 231 745 c 1
 203 791 193 831.33 201 866 c 2
 251 1074 l 2
EndSplineSet
Layer: 2
SplineSet
280 1067 m 2
 294.666666667 1129 321.333333333 1122.66666667 360 1048 c 24
 426.666666667 920 516.666666667 856.333333333 630 857 c 0
 791.333333333 857.666666667 881.333333333 929 900 1071 c 0
 903.333333333 1095.66666667 914.5 1108 933.5 1108 c 128
 952.5 1108 964.666666667 1100.33333333 970 1085 c 128
 975.333333333 1069.66666667 971.666666667 1023.66666667 959 947 c 128
 946.333333333 870.333333333 918.666666667 801.666666667 876 741 c 0
 808 641.666666667 692.666666667 605 530 631 c 1
 616.666666667 307.666666667 640 44.6666666667 600 -158 c 0
 597.333333333 -171.333333333 590.333333333 -180.5 579 -185.5 c 128
 567.666666667 -190.5 557.666666667 -189.333333333 549 -182 c 128
 540.333333333 -174.666666667 535.333333333 -163.666666667 534 -149 c 0
 511.333333333 203.666666667 418.666666667 507 256 761 c 0
 232 799 223.333333333 831.666666667 230 859 c 2
 280 1067 l 2
EndSplineSet
EndChar
StartChar: uni0663
Encoding: 1635 1635 260
Width: 1200
Flags: HW
LayerCount: 3
Fore
SplineSet
1028 1148 m 1
 1066 1148 1083.67 1119.67 1081 1063 c 0
 1077 959.67 1059.67 859.5 1029 762.5 c 128
 998.33 665.5 946 613.33 872 606 c 0
 806 599.33 738 617.67 668 661 c 1
 612 607.67 550.67 578.33 484 573 c 1
 557.33 245 572 -1 528 -165 c 0
 522 -187.67 511.67 -201.67 497 -207 c 0
 457.67 -220.33 436.33 -201 433 -149 c 0
 411.67 191.67 316.33 488.67 147 742 c 0
 114.33 790.67 102.33 832.33 111 867 c 2
 162 1075 l 2
 184 1165.67 225.67 1166.67 287 1078 c 1
 362.33 967.33 407.33 907 422 897 c 0
 449.33 878.33 491.67 871.33 549 876 c 0
 628.33 882 679.33 948.33 702 1075 c 0
 708.67 1114.33 727 1132 757 1128 c 0
 777 1125.33 790 1112.67 796 1090 c 128
 802 1067.33 799.67 1027.33 789 970 c 0
 784.33 944.67 801.67 923.67 841 907 c 0
 860.33 899 875.67 894.67 887 894 c 0
 939.67 891.33 969.67 956.67 977 1090 c 0
 979 1129.33 996 1148.67 1028 1148 c 1
EndSplineSet
Layer: 2
SplineSet
997 1088 m 0
 998.333333333 1112.66666667 1009.66666667 1125 1031 1125 c 128
 1052.33333333 1125 1062.33333333 1104.66666667 1061 1064 c 0
 1057.66666667 980.666666667 1042.33333333 888.333333333 1015 787 c 0
 979 653.666666667 896.666666667 607.333333333 768 648 c 0
 728 660.666666667 693.333333333 678 664 700 c 1
 599.333333333 629.333333333 526.666666667 597 446 603 c 1
 531.333333333 257 554 3.33333333333 514 -158 c 0
 510.666666667 -171.333333333 503.333333333 -180.333333333 492 -185 c 128
 480.666666667 -189.666666667 470.666666667 -188.666666667 462 -182 c 0
 454 -175.333333333 449.333333333 -163.666666667 448 -147 c 0
 425.333333333 217 333.333333333 519 172 759 c 0
 144 800.333333333 133.333333333 834 140 860 c 2
 191 1068 l 2
 203 1116 226.666666667 1113.66666667 262 1061 c 24
 341.333333333 944.333333333 389.666666667 881 407 871 c 0
 445 849 493.333333333 840.666666667 552 846 c 0
 633.333333333 853.333333333 688 927.666666667 716 1069 c 0
 721.333333333 1095.66666667 732 1108.33333333 748 1107 c 128
 764 1105.66666667 774.166666667 1096.33333333 778.5 1079 c 128
 782.833333333 1061.66666667 780 1027.16666667 770 975.5 c 128
 760 923.833333333 792 887.666666667 866 867 c 1
 944 846.333333333 987.666666667 920 997 1088 c 0
EndSplineSet
EndChar
StartChar: uni0664
Encoding: 1636 1636 261
Width: 1200
Flags: HW
LayerCount: 3
Fore
SplineSet
591 1131 m 0
 625 1163 656.666666667 1161.66666667 686 1127 c 0
 700 1110.33333333 704.666666667 1091.66666667 700 1071 c 2
 663 914 l 1
 657 893.333333333 640.666666667 877.666666667 614 867 c 1
 528.666666667 843 480.333333333 819 469 795 c 0
 466.333333333 789 470 782.666666667 480 776 c 0
 566 720.666666667 655.333333333 681 748 657 c 0
 802.666666667 643 820.666666667 614.666666667 802 572 c 2
 755 463 l 2
 743.666666667 437 716.666666667 409.333333333 674 380 c 0
 592.666666667 324.666666667 532.666666667 273.666666667 494 227 c 0
 483.333333333 213.666666667 488.666666667 200.333333333 510 187 c 0
 631.333333333 114.333333333 754.666666667 70 880 54 c 0
 922.666666667 48 935 22.3333333333 917 -23 c 2
 853 -184 l 2
 839.666666667 -218 813.666666667 -233 775 -229 c 0
 612.333333333 -211 471.666666667 -160.666666667 353 -78 c 1
 314.333333333 -49.3333333333 303.666666667 -3 321 61 c 2
 369 235 l 1
 383.666666667 285 435 351 523 433 c 1
 461.666666667 459.666666667 402.5 492.166666667 345.5 530.5 c 128
 288.5 568.833333333 279.333333333 629.333333333 318 712 c 2
 383 851 l 2
 429.666666667 950.333333333 499 1043.66666667 591 1131 c 0
EndSplineSet
Layer: 2
SplineSet
597 1110 m 0
 605.666666667 1118.66666667 616.666666667 1123 630 1123 c 0
 644 1123 655 1118.33333333 663 1109 c 128
 671 1099.66666667 673.666666667 1089.33333333 671 1078 c 2
 634 921 l 2
 631.333333333 910.333333333 621.333333333 901.666666667 604 895 c 0
 526.666666667 867.666666667 479.333333333 837.333333333 462 804 c 0
 450.666666667 782 458 762.666666667 484 746 c 0
 577.333333333 686 663 646.666666667 741 628 c 0
 774.333333333 620 782 595.666666667 764 555 c 2
 728 475 l 2
 714 443.666666667 695.333333333 420.333333333 672 405 c 0
 592.666666667 351.666666667 530.666666667 298.666666667 486 246 c 24
 457.333333333 212 460 184 494 162 c 0
 608 89.3333333333 726.333333333 45.3333333333 849 30 c 0
 887.666666667 25.3333333333 899.333333333 5 884 -31 c 2
 825 -172 l 2
 816.333333333 -192.666666667 800.666666667 -201.666666667 778 -199 c 0
 616 -181.666666667 475.666666667 -131.333333333 357 -48 c 0
 329.666666667 -28.6666666667 323 6.66666666667 337 58 c 2
 383 227 l 2
 397 277 457.333333333 349 564 443 c 1
 490.666666667 469.666666667 416.333333333 508.666666667 341 560 c 0
 302.333333333 586 298.666666667 632.333333333 330 699 c 2
 395 838 l 2
 435.666666667 925.333333333 503 1016 597 1110 c 0
EndSplineSet
EndChar
StartChar: uni0665
Encoding: 1637 1637 262
Width: 1200
Flags: HW
LayerCount: 3
Fore
SplineSet
801 449 m 0
 701.67 561.67 600 613.67 496 605 c 1
 432 601 394.67 551.33 384 456 c 1
 376 394.67 386.67 347.67 416 315 c 1
 460 263 533.33 249 636 273 c 1
 710.67 289.67 769.33 318 812 358 c 1
 838 380 834.33 410.33 801 449 c 0
461 858 m 0
 509.67 913.33 564.33 933.33 625 918 c 0
 721.67 893.33 804.67 845 874 773 c 0
 975.33 667 1003.33 507 958 293 c 0
 934.67 183 888 97 818 35 c 1
 745.33 -19.67 653.83 -46.83 543.5 -46.5 c 128
 433.17 -46.17 352.33 -22.17 301 25.5 c 128
 249.67 73.17 224 155.67 224 273 c 1
 222.67 481 301.67 676 461 858 c 0
EndSplineSet
Layer: 2
SplineSet
484 818 m 0
 524 864.666666667 568.666666667 881.666666667 618 869 c 0
 708.666666667 846.333333333 786.666666667 800.666666667 852 732 c 0
 942.666666667 636 968.333333333 491.666666667 929 299 c 0
 909.666666667 203 866.666666667 129.666666667 800 79 c 128
 733.333333333 28.3333333333 648.333333333 3 545 3 c 128
 441.666666667 3 367.333333333 24 322 66 c 128
 276.666666667 108 254 177 254 273 c 0
 252.666666667 461.666666667 329.333333333 643.333333333 484 818 c 0
801 449 m 0
 701.666666667 561.666666667 600 613.666666667 496 605 c 0
 432 601 394.666666667 551.333333333 384 456 c 0
 376 394.666666667 386.666666667 347.666666667 416 315 c 0
 460 263 533.333333333 249 636 273 c 0
 710.666666667 289.666666667 769.333333333 318 812 358 c 0
 838 380 834.333333333 410.333333333 801 449 c 0
EndSplineSet
EndChar
StartChar: uni0666
Encoding: 1638 1638 265
Width: 1200
Flags: HW
LayerCount: 3
Fore
SplineSet
200 1085 m 2
 218.666666667 1181.66666667 261.333333333 1180.83333333 328 1082.5 c 128
 394.666666667 984.166666667 529 963.333333333 731 1020 c 0
 795 1038 824.333333333 1016.66666667 819 956 c 0
 795.666666667 696.666666667 859 438.666666667 1009 182 c 1
 1031.66666667 139.333333333 1039.66666667 97.6666666667 1033 57 c 2
 998 -139 l 2
 979.333333333 -243 939 -249.666666667 877 -159 c 1
 743 111 681 401.666666667 691 713 c 1
 463.666666667 663.666666667 298.333333333 698 195 816 c 0
 169 845.333333333 159.666666667 878 167 914 c 2
 200 1085 l 2
EndSplineSet
Layer: 2
SplineSet
227 1069 m 2
 237.666666667 1123.66666667 262.666666667 1122.66666667 302 1066 c 0
 380.666666667 950 531.666666667 925.666666667 755 993 c 0
 791 1003.66666667 807.333333333 992.333333333 804 959 c 0
 778 693.666666667 837.666666667 430 983 168 c 0
 1002.33333333 132.666666667 1009 97.3333333333 1003 62 c 2
 968 -134 l 2
 956 -200 934.666666667 -203.666666667 904 -145 c 0
 761.333333333 126.333333333 695.333333333 415.666666667 706 723 c 0
 706.666666667 741.666666667 703 750 695 748 c 0
 479.666666667 692.666666667 320.333333333 722 217 836 c 0
 197.666666667 857.333333333 190.666666667 881.333333333 196 908 c 2
 227 1069 l 2
EndSplineSet
EndChar
StartChar: uni0667
Encoding: 1639 1639 266
Width: 1200
Flags: HW
LayerCount: 3
Fore
SplineSet
651 -165 m 0
 645 -189 634.83 -205.5 620.5 -214.5 c 128
 606.17 -223.5 593.33 -221.83 582 -209.5 c 128
 570.67 -197.17 564.33 -180 563 -158 c 0
 560.33 -95.33 518.33 40.67 437 250 c 0
 397.67 350.67 298.67 538.67 140 814 c 0
 130 831.33 127.33 854.33 132 883 c 2
 166 1089 l 2
 171.33 1121 183.83 1140.67 203.5 1148 c 128
 223.17 1155.33 243 1141.67 263 1107 c 0
 407.67 855 532 561.67 636 227 c 1
 701.33 529 807.33 806.67 954 1060 c 0
 971.33 1090 990.33 1106 1011 1108 c 0
 1039.67 1111.33 1055.67 1093.67 1059 1055 c 2
 1071 857 l 2
 1072.33 836.33 1065 811 1049 781 c 1
 881.67 543 749 227.67 651 -165 c 0
EndSplineSet
Layer: 2
SplineSet
637 -158 m 0
 633.666666667 -172.666666667 627.166666667 -182.333333333 617.5 -187 c 128
 607.833333333 -191.666666667 599 -191 591 -185 c 128
 583 -179 578.666666667 -169.333333333 578 -156 c 0
 573.333333333 -64 532.5 74.5 455.5 259.5 c 128
 378.5 444.5 282 634.333333333 166 829 c 0
 159.333333333 840.333333333 158 856.666666667 162 878 c 2
 188 1045 l 2
 198.666666667 1116.33333333 215 1132 237 1092 c 24
 379.666666667 838.666666667 507 549.666666667 619 225 c 0
 634.333333333 181.666666667 646.333333333 179 655 217 c 0
 710.333333333 465 819 741.666666667 981 1047 c 0
 990.333333333 1067 1000.33333333 1077.5 1011 1078.5 c 128
 1021.66666667 1079.5 1027.66666667 1071 1029 1053 c 2
 1041 855 l 2
 1041.66666667 839 1035.66666667 819.333333333 1023 796 c 0
 930.333333333 640.666666667 853.833333333 488.5 793.5 339.5 c 128
 733.166666667 190.5 681 24.6666666667 637 -158 c 0
EndSplineSet
EndChar
StartChar: uni0668
Encoding: 1640 1640 267
Width: 1200
Flags: HW
LayerCount: 3
Fore
SplineSet
549 1098 m 0
 555 1122 565.17 1138.5 579.5 1147.5 c 128
 593.83 1156.5 606.67 1154.83 618 1142.5 c 128
 629.33 1130.17 635.67 1113 637 1091 c 0
 639.67 1028.33 681.67 892.33 763 683 c 0
 802.33 582.33 901.33 394.33 1060 119 c 0
 1070 101.67 1072.67 78.67 1068 50 c 2
 1034 -156 l 2
 1028.67 -188 1016.17 -207.67 996.5 -215 c 128
 976.83 -222.33 957 -208.67 937 -174 c 0
 792.33 78 668 371.33 564 706 c 1
 498.67 404 392.67 126.33 246 -127 c 0
 228.67 -157 209.67 -173 189 -175 c 0
 160.33 -178.33 144.33 -160.67 141 -122 c 2
 129 76 l 2
 127.67 96.67 135 122 151 152 c 1
 318.33 390 451 705.33 549 1098 c 0
EndSplineSet
Layer: 2
SplineSet
563 1080 m 0
 566.333333333 1094.66666667 572.833333333 1104.33333333 582.5 1109 c 128
 592.166666667 1113.66666667 601 1113 609 1107 c 128
 617 1101 621.333333333 1091.33333333 622 1078 c 0
 626.666666667 986 667.5 847.5 744.5 662.5 c 128
 821.5 477.5 918 287.666666667 1034 93 c 0
 1040.66666667 81.6666666667 1042 65.3333333333 1038 44 c 2
 1012 -123 l 2
 1001.33333333 -194.333333333 985 -210 963 -170 c 24
 820.333333333 83.3333333333 693 372.333333333 581 697 c 0
 565.666666667 740.333333333 553.666666667 743 545 705 c 0
 489.666666667 457 381 180.333333333 219 -125 c 0
 209.666666667 -145 199.666666667 -155.5 189 -156.5 c 128
 178.333333333 -157.5 172.333333333 -149 171 -131 c 2
 159 67 l 2
 158.333333333 83 164.333333333 102.666666667 177 126 c 0
 269.666666667 281.333333333 346.166666667 433.5 406.5 582.5 c 128
 466.833333333 731.5 519 897.333333333 563 1080 c 0
EndSplineSet
EndChar
StartChar: uni0669
Encoding: 1641 1641 268
Width: 1200
Flags: HW
LayerCount: 3
Fore
SplineSet
659 712 m 0
 635.67 784.67 593.67 830 533 848 c 1
 459.67 868 410.33 838 385 758 c 0
 371 714 380.33 681.67 413 661 c 0
 458.33 632.33 532.33 621 635 627 c 0
 668.33 629 676.33 657.33 659 712 c 0
695 365 m 1
 389 343 231 426.67 221 616 c 1
 216.33 722 288.33 867.33 437 1052 c 1
 523 1162.67 607 1180.67 689 1106 c 0
 781 1022.67 830.67 860.33 838 619 c 0
 842.67 464.33 880.33 320.33 951 187 c 0
 974.33 143.67 983 103.67 977 67 c 2
 940 -149 l 2
 934.67 -179.67 928.33 -198.33 921 -205 c 0
 883.67 -241 851 -224 823 -154 c 0
 821.67 -150.67 820.67 -148.67 820 -148 c 0
 752.67 31.33 711 202.33 695 365 c 1
EndSplineSet
Layer: 2
SplineSet
450 1023 m 0
 544.666666667 1138.33333333 632.333333333 1138.66666667 713 1024 c 0
 777.666666667 932 812.666666667 796.666666667 818 618 c 0
 823.333333333 442 859 293.666666667 925 173 c 0
 945 136.333333333 952.333333333 102.666666667 947 72 c 2
 910 -144 l 2
 898.666666667 -210.666666667 878 -208 848 -136 c 24
 768.666666667 50.6666666667 723.666666667 228.333333333 713 397 c 1
 413.666666667 368.333333333 259.666666667 441.666666667 251 617 c 0
 246.333333333 712.333333333 312.666666667 847.666666667 450 1023 c 0
659 712 m 0
 635.666666667 784.666666667 593.666666667 830 533 848 c 0
 459.666666667 868 410.333333333 838 385 758 c 0
 371 714 380.333333333 681.666666667 413 661 c 0
 458.333333333 632.333333333 532.333333333 621 635 627 c 0
 668.333333333 629 676.333333333 657.333333333 659 712 c 0
EndSplineSet
EndChar
StartChar: uni066B
Encoding: 1643 1643 333
Width: 614
Flags: HW
LayerCount: 3
Fore
SplineSet
267.582579729 305.883484054 m 1
 284.13614283 381.960791705 334.88431802 396.026242732 419.827105299 348.079837135 c 0
 520.831453137 290.793789108 560.608833252 190.390910214 539.159245643 46.8712004533 c 128
 517.709658035 -96.6485093069 468.073414251 -218.137614356 390.250514292 -317.596114694 c 128
 312.427614333 -417.054615033 225.812459399 -469.178272544 130.405049491 -473.967087227 c 0
 89.9609214819 -475.892998084 64.6546688843 -473.996587472 54.4862916982 -468.277855391 c 128
 44.3179145121 -462.559123309 36.9636499435 -456.799276686 32.4234979926 -450.998315521 c 0
 14.2765342244 -424.491328785 27.6021610702 -395.060180399 72.4003785301 -362.704870362 c 0
 247.939939922 -234.901783149 360.807304673 -88.5361589136 411.002472783 76.3920023431 c 1
 407.352593876 77.7166900307 403.645560408 78.7962183856 399.881372377 79.6305874079 c 2
 303.998848147 99.606113289 l 2
 272.01766948 106.002349022 252.393531466 124.004926423 245.126434107 153.613845492 c 0
 242.461897871 165.713277995 242.272575667 178.096303792 244.558467495 190.762922881 c 2
 267.582579729 305.883484054 l 1
EndSplineSet
Layer: 2
SplineSet
297 300 m 18
 307 350 343 357.333333333 405 322 c 0
 494.333333333 271.333333333 529.666666667 184 511 60 c 0
 489.666666667 -84 442.333333333 -203 369 -297 c 128
 295.666666667 -391 215.666666667 -440 129 -444 c 0
 45 -448 32 -429 90 -387 c 0
 174.666666667 -325.666666667 248.666666667 -255.333333333 312 -176 c 0
 370 -105.333333333 413 -22.6666666667 441 72 c 0
 446.333333333 90.6666666667 434.666666667 103 406 109 c 10
 310 129 l 18
 280 135 268 153.666666667 274 185 c 10
 297 300 l 18
EndSplineSet
EndChar
StartChar: uni066C
Encoding: 1644 1644 334
Width: 614
Flags: HW
LayerCount: 3
Fore
SplineSet
346.417420271 432.116515946 m 1
 329.86385717 356.039208295 279.11568198 341.973757268 194.172894701 389.920162865 c 0
 93.1685468578 447.206210896 53.3911667417 547.60908979 74.8407543526 691.128799549 c 128
 96.2903419635 834.648509308 145.926585749 956.137614355 223.749485708 1055.59611469 c 128
 301.572385667 1155.05461503 388.187540601 1207.17827254 483.594950509 1211.96708723 c 0
 524.039078518 1213.89299808 549.345331116 1211.99658747 559.513708302 1206.27785539 c 128
 569.682085488 1200.55912331 577.036350056 1194.79927669 581.576502007 1188.99831552 c 0
 599.72402216 1162.49168689 586.401530539 1133.06281061 541.609027144 1100.7116867 c 0
 364.403381606 971.556171159 251.523195452 825.19222263 202.968468683 661.619841113 c 1
 206.64440662 660.284685046 210.361126266 659.201208873 214.118627623 658.369412592 c 2
 310.001151853 638.393886711 l 2
 341.98233052 631.997650978 361.606468534 613.995073577 368.873565893 584.386154508 c 0
 371.538102129 572.286722005 371.727424333 559.903696208 369.441532505 547.237077119 c 2
 346.417420271 432.116515946 l 1
EndSplineSet
Layer: 2
SplineSet
317 438 m 18
 307 388 271 380.666666667 209 416 c 0
 119.666666667 466.666666667 84.3333333333 554 103 678 c 0
 124.333333333 822 171.666666667 941 245 1035 c 128
 318.333333333 1129 398.333333333 1178 485 1182 c 0
 569 1186 582 1167 524 1125 c 0
 444 1067 370 996.666666667 302 914 c 0
 242.666666667 841.333333333 199.666666667 758.666666667 173 666 c 0
 167.666666667 647.333333333 179.333333333 635 208 629 c 10
 304 609 l 18
 334 603 346 584.333333333 340 553 c 10
 317 438 l 18
EndSplineSet
EndChar
StartChar: uni066D
Encoding: 1645 1645 337
Width: 1116
Flags: HW
LayerCount: 3
Fore
SplineSet
-4.87 789 m 1
 424.28 789 l 1
 558 1196.14 l 1
 691.72 789 l 1
 1120.87 789 l 1
 774.26 535.61 l 1
 907.01 127.79 l 1
 558 379.99 l 1
 208.99 127.79 l 1
 341.74 535.61 l 1
 -4.87 789 l 1
EndSplineSet
Layer: 2
SplineSet
87 759 m 1
 446 759 l 1
 558 1100 l 1
 670 759 l 1
 1029 759 l 1
 739 547 l 1
 850 206 l 1
 558 417 l 1
 266 206 l 1
 377 547 l 1
 87 759 l 1
EndSplineSet
EndChar
StartChar: uni0670
Encoding: 1648 1648 255
Width: 0
GlyphClass: 4
Flags: HW
AnchorPoint: "TashkilAbove" 395 1640 mark 0
AnchorPoint: "MarkAbove" 389 1640 mark 0
AnchorPoint: "TashkilTashkilAbove2" 245 2520 basemark 0
AnchorPoint: "HamzaAbove" 313 1984 mark 0
AnchorPoint: "TashkilTashkilAbove" 400 1776 mark 0
AnchorPoint: "AlefAbove" 395 1640 mark 0
LayerCount: 3
Fore
SplineSet
227 2383 m 1
 241 2419.67 262 2421 290 2387 c 1
 422.67 2239 468.33 2052 427 1826 c 1
 422.33 1806 413.33 1795.33 400 1794 c 0
 373.33 1790 358.67 1800.67 356 1826 c 0
 338 1965.33 286 2087.67 200 2193 c 0
 186 2211 182 2230.67 188 2252 c 2
 227 2383 l 1
EndSplineSet
Layer: 2
SplineSet
241 2379 m 2
 247.666666667 2400.33333333 260.333333333 2399.66666667 279 2377 c 0
 409 2233.66666667 453.333333333 2051 412 1829 c 0
 409.333333333 1815.66666667 402.666666667 1808.33333333 392 1807 c 0
 379.333333333 1805 372.333333333 1812 371 1828 c 0
 353 1970 300 2095 212 2203 c 0
 200.666666667 2216.33333333 197.333333333 2231.33333333 202 2248 c 2
 241 2379 l 2
EndSplineSet
EndChar
StartChar: uni06D4
Encoding: 1748 1748 4621
Width: 1007
Flags: HW
LayerCount: 3
Fore
SplineSet
836 215 m 1
 853.33 213.67 866.33 209.33 875 202 c 0
 894.33 184 892.67 162.67 870 138 c 2
 751 9 l 1
 726.33 -16.33 692 -29.33 648 -30 c 1
 172 -30 l 1
 154.67 -28.67 141.67 -24.33 133 -17 c 0
 113.67 1 115.33 22.33 138 47 c 2
 257 176 l 1
 281.67 201.33 316 214.33 360 215 c 1
 836 215 l 1
EndSplineSet
Layer: 2
SplineSet
836 185 m 0
 860 184.333333333 864 175.333333333 848 158 c 10
 729 29 l 18
 711 9.66666666667 684 0 648 0 c 0
 172 0 l 0
 148 0.666666666667 144 9.66666666667 160 27 c 10
 279 156 l 18
 297 175.333333333 324 185 360 185 c 0
 836 185 l 0
EndSplineSet
EndChar
StartChar: uni06D6
Encoding: 1750 1750 4596
Width: 0
GlyphClass: 4
Flags: HW
AnchorPoint: "MarkAbove" 499 2600 mark 0
LayerCount: 3
Fore
SplineSet
197 3127 m 0
 195.666666667 3166.33333333 193.333333333 3208.66666667 190 3254 c 0
 180 3406 179.666666667 3488.66666667 189 3502 c 2
 213 3538 l 2
 227 3558.66666667 239.666666667 3569.66666667 251 3571 c 0
 269 3572.33333333 279 3557 281 3525 c 0
 281 3523 281 3523 281 3522 c 0
 291.666666667 3286.66666667 303.833333333 3153.16666667 317.5 3121.5 c 128
 331.166666667 3089.83333333 351.333333333 3075.5 378 3078.5 c 128
 404.666666667 3081.5 437 3104 475 3146 c 0
 494.333333333 3166.66666667 512 3172.33333333 528 3163 c 0
 565.333333333 3139.66666667 592.333333333 3124.33333333 609 3117 c 1
 621.666666667 3127.66666667 645 3149 679 3181 c 1
 764.333333333 3257 839.333333333 3298 904 3304 c 1
 946.666666667 3307.33333333 979 3292 1001 3258 c 1
 1021.66666667 3222.66666667 1019 3174.66666667 993 3114 c 1
 951.666666667 3025.33333333 888 2974 802 2960 c 1
 700 2947.33333333 597 2967 493 3019 c 1
 469 2990.33333333 453 2973 445 2967 c 0
 393.666666667 2921 342.666666667 2919.33333333 292 2962 c 1
 272 2980.66666667 256 3004 244 3032 c 1
 232.666666667 2993.33333333 216.833333333 2958.16666667 196.5 2926.5 c 128
 176.166666667 2894.83333333 144.333333333 2863.33333333 101 2832 c 1
 274.333333333 2811.33333333 474 2810.33333333 700 2829 c 1
 734 2833.66666667 827.666666667 2842.66666667 981 2856 c 0
 993 2856.66666667 1004 2853.66666667 1014 2847 c 128
 1024 2840.33333333 1022.66666667 2827 1010 2807 c 2
 964 2738 l 2
 953.333333333 2722 941 2713 927 2711 c 0
 846.333333333 2699 705.333333333 2689.5 504 2682.5 c 128
 302.666666667 2675.5 152.666666667 2679.33333333 54 2694 c 1
 15.3333333333 2700.66666667 -7 2719.33333333 -13 2750 c 1
 -19 2791.33333333 -10.1666666667 2831.5 13.5 2870.5 c 128
 37.1666666667 2909.5 62.6666666667 2939 90 2959 c 0
 162.666666667 3011.66666667 198.333333333 3067.66666667 197 3127 c 0
892 3152 m 1
 851.333333333 3194 781.666666667 3177 683 3101 c 1
 749.666666667 3091 822 3091.66666667 900 3103 c 1
 903.333333333 3125.66666667 900.666666667 3142 892 3152 c 1
EndSplineSet
Layer: 2
SplineSet
212 3127 m 0
 210.666666667 3165.66666667 207.666666667 3221.33333333 203 3294 c 0
 201.666666667 3312.66666667 199 3362.33333333 195 3443 c 0
 193.666666667 3469 195.666666667 3486 201 3494 c 2
 225 3530 l 2
 250.333333333 3568 264 3565 266 3521 c 0
 276.666666667 3283 288.333333333 3149.33333333 301 3120 c 0
 319 3078 344.666666667 3058.66666667 378 3062 c 0
 409.333333333 3065.33333333 445.333333333 3090 486 3136 c 0
 499.333333333 3151.33333333 510.666666667 3156 520 3150 c 24
 566 3121.33333333 596.333333333 3104.66666667 611 3100 c 1
 615 3102 641 3125.33333333 689 3170 c 0
 771.666666667 3244 843.666666667 3283.66666667 905 3289 c 0
 941.666666667 3292.33333333 969.333333333 3279.33333333 988 3250 c 0
 1006.66666667 3220 1003.66666667 3176.66666667 979 3120 c 0
 940.333333333 3036 880.666666667 2987.66666667 800 2975 c 0
 698 2961.66666667 594.333333333 2982.66666667 489 3038 c 1
 461 3004.66666667 443 2984.66666667 435 2978 c 0
 389.666666667 2937.33333333 345.333333333 2935.66666667 302 2973 c 1
 272.666666667 2999.66666667 252.666666667 3039.33333333 242 3092 c 1
 232 3032 213.666666667 2981 187 2939 c 0
 161 2897.66666667 118.666666667 2859 60 2823 c 1
 123.333333333 2813 204.666666667 2806.66666667 304 2804 c 0
 439.333333333 2800 572 2803.33333333 702 2814 c 0
 734.666666667 2818.66666667 828 2827.66666667 982 2841 c 0
 1004.66666667 2843 1009.66666667 2834.33333333 997 2815 c 2
 951 2746 l 2
 943.666666667 2734.66666667 935 2728 925 2726 c 0
 845.666666667 2714 701 2704.33333333 491 2697 c 0
 299 2690.33333333 154 2694.33333333 56 2709 c 0
 25.3333333333 2713.66666667 7.33333333333 2728 2 2752 c 1
 -4 2789.33333333 3.66666666667 2825.66666667 25 2861 c 0
 48.3333333333 2899.66666667 73 2928.33333333 99 2947 c 0
 176.333333333 3001.66666667 214 3061.66666667 212 3127 c 0
903 3162 m 0
 853 3215.33333333 768 3192 648 3092 c 1
 726.666666667 3074.66666667 815 3074 913 3090 c 1
 920.333333333 3122.66666667 917 3146.66666667 903 3162 c 0
EndSplineSet
EndChar
StartChar: uni06D7
Encoding: 1751 1751 4599
Width: 0
GlyphClass: 4
Flags: HW
AnchorPoint: "MarkAbove" 499 2600 mark 0
LayerCount: 3
Fore
SplineSet
597 3148 m 1
 595.67 3162 593.33 3172.33 590 3179 c 1
 568 3135 536.67 3112 496 3110 c 0
 426 3108 389 3149 385 3233 c 1
 384.33 3275.67 395 3315.17 417 3351.5 c 128
 439 3387.83 456.67 3411.33 470 3422 c 0
 516 3458.67 562.83 3447.17 610.5 3387.5 c 128
 658.17 3327.83 681 3259.33 679 3182 c 1
 677 3137.33 664 3095 640 3055 c 0
 588 2971.67 517 2930.33 427 2931 c 128
 337 2931.67 276.33 2966 245 3034 c 1
 233.67 2994.67 217.67 2959 197 2927 c 128
 176.33 2895 144.33 2863.33 101 2832 c 1
 157.67 2825.33 245.17 2820.5 363.5 2817.5 c 128
 481.83 2814.5 595.33 2818.67 704 2830 c 0
 898 2849.33 999.33 2856.33 1008 2851 c 1
 1022 2841.67 1022.67 2827 1010 2807 c 2
 964 2738 l 2
 953.33 2722 941 2713 927 2711 c 0
 846.33 2699 705.33 2689.5 504 2682.5 c 128
 302.67 2675.5 152.67 2679.33 54 2694 c 1
 15.33 2700.67 -7 2719.33 -13 2750 c 1
 -19 2791.33 -10.17 2831.5 13.5 2870.5 c 128
 37.17 2909.5 62.67 2939 90 2959 c 0
 162.67 3011 198.33 3067 197 3127 c 0
 195.67 3166.33 193.33 3208.67 190 3254 c 0
 180 3406 179.67 3488.67 189 3502 c 2
 213 3538 l 2
 227 3558.67 239.67 3569.67 251 3571 c 0
 269 3572.33 279 3557 281 3525 c 0
 281 3523 281 3523 281 3522 c 0
 291.67 3286.67 304.17 3153.17 318.5 3121.5 c 128
 332.83 3089.83 370.17 3074.17 430.5 3074.5 c 128
 490.83 3074.83 546.33 3099.33 597 3148 c 1
427 3694 m 1
 440.33 3709.33 470 3701.33 516 3670 c 1
 550 3720 l 2
 556 3729.33 565.67 3731.67 579 3727 c 128
 592.33 3722.33 620.67 3706 664 3678 c 1
 675.33 3668.67 677.67 3658 671 3646 c 2
 614 3557 l 1
 604.67 3545 595.17 3543 585.5 3551 c 128
 575.83 3559 556.67 3571.67 528 3589 c 1
 491 3530 l 2
 485 3520.67 478.83 3517.5 472.5 3520.5 c 128
 466.17 3523.5 462.33 3525.17 461 3525.5 c 128
 459.67 3525.83 454.5 3528.33 445.5 3533 c 128
 436.5 3537.67 412.67 3553.33 374 3580 c 1
 364.67 3588 363 3597 369 3607 c 1
 427 3694 l 1
EndSplineSet
Layer: 2
SplineSet
419 3058 m 0
 493 3058.66666667 557.333333333 3086.66666667 612 3142 c 1
 610.666666667 3164 607 3179.66666667 601 3189 c 0
 591.666666667 3203 584.666666667 3204.66666667 580 3194 c 0
 561.333333333 3149.33333333 533 3126.33333333 495 3125 c 0
 434.333333333 3123 402.666666667 3159.33333333 400 3234 c 0
 398.666666667 3273.33333333 413 3317.66666667 443 3367 c 0
 491 3445 544.333333333 3447.33333333 603 3374 c 0
 645.666666667 3320.66666667 666 3256.66666667 664 3182 c 0
 662.666666667 3140 650.333333333 3100.33333333 627 3063 c 0
 578.333333333 2984.33333333 509 2945.33333333 419 2946 c 0
 321 2946 262 2994.66666667 242 3092 c 1
 232 3032 213.666666667 2981 187 2939 c 0
 161 2897.66666667 118.666666667 2859 60 2823 c 1
 123.333333333 2813 204.666666667 2806.66666667 304 2804 c 0
 462 2800 594.666666667 2803.33333333 702 2814 c 0
 812.666666667 2825.33333333 906 2834.33333333 982 2841 c 0
 1004.66666667 2843 1009.66666667 2834.33333333 997 2815 c 2
 951 2746 l 2
 943.666666667 2734.66666667 935 2728 925 2726 c 0
 845.666666667 2714 701 2704.33333333 491 2697 c 0
 299 2690.33333333 154 2694.33333333 56 2709 c 0
 25.3333333333 2713.66666667 7.33333333333 2728 2 2752 c 1
 -4 2789.33333333 3.66666666667 2825.66666667 25 2861 c 0
 48.3333333333 2899.66666667 73 2928.33333333 99 2947 c 0
 176.333333333 3001.66666667 214 3061.66666667 212 3127 c 0
 210.666666667 3165.66666667 207.666666667 3221.33333333 203 3294 c 0
 201.666666667 3312.66666667 199 3362.33333333 195 3443 c 0
 193.666666667 3469 195.666666667 3486 201 3494 c 2
 225 3530 l 2
 250.333333333 3568 264 3565 266 3521 c 0
 276.666666667 3283 288.333333333 3149.33333333 301 3120 c 0
 319.666666667 3078.66666667 359 3058 419 3058 c 0
439 3685 m 2
 441 3688.33333333 444.333333333 3689 449 3687 c 0
 475.666666667 3678.33333333 499.333333333 3665.66666667 520 3649 c 1
 562 3712 l 2
 564.666666667 3715.33333333 568 3716 572 3714 c 0
 584 3710 612 3693.66666667 656 3665 c 0
 660 3662.33333333 660.666666667 3658.66666667 658 3654 c 2
 601 3565 l 2
 598.333333333 3561 594.333333333 3561.66666667 589 3567 c 0
 585 3571 563 3585 523 3609 c 1
 478 3538 l 2
 476.666666667 3536 472.666666667 3536.66666667 466 3540 c 0
 449.333333333 3548 421.666666667 3565.33333333 383 3592 c 0
 380.333333333 3594 379.666666667 3596.33333333 381 3599 c 2
 439 3685 l 2
EndSplineSet
EndChar
StartChar: uni06D8
Encoding: 1752 1752 4608
Width: 0
GlyphClass: 4
Flags: HW
AnchorPoint: "MarkAbove" 429 2600 mark 0
LayerCount: 3
Fore
SplineSet
418 2903 m 1
 339.333333333 2769.66666667 232.333333333 2687.33333333 97 2656 c 1
 59 2648 36.3333333333 2652.33333333 29 2669 c 1
 18.3333333333 2695.66666667 31 2718 67 2736 c 0
 192.333333333 2798.66666667 286.333333333 2875.33333333 349 2966 c 1
 379 3136 433 3221 511 3221 c 1
 602.333333333 3219.66666667 648.333333333 3140 649 2982 c 0
 649 2979.33333333 648.666666667 2977.33333333 648 2976 c 2
 613 2899 l 1
 605.666666667 2884.33333333 593.333333333 2877.33333333 576 2878 c 0
 514 2880.66666667 461.333333333 2889 418 2903 c 1
EndSplineSet
Layer: 2
SplineSet
411 2921 m 1
 335 2785 229.333333333 2701.66666667 94 2671 c 0
 64.6666666667 2664.33333333 47.6666666667 2665.66666667 43 2675 c 0
 35 2693 45.3333333333 2709 74 2723 c 0
 203.333333333 2787 299.666666667 2866 363 2960 c 1
 391.666666667 3126 442 3208 514 3206 c 0
 594 3203.33333333 634 3128.66666667 634 2982 c 9
 599 2905 l 2
 595 2896.33333333 587.666666667 2892.33333333 577 2893 c 0
 510.333333333 2895.66666667 455 2905 411 2921 c 1
EndSplineSet
EndChar
StartChar: uni06D9
Encoding: 1753 1753 4605
Width: 0
GlyphClass: 4
Flags: HW
AnchorPoint: "MarkAbove" 389 2600 mark 0
LayerCount: 3
Fore
SplineSet
466 3034 m 1
 506.67 3145.33 520 3297.67 506 3491 c 0
 504 3525 506 3547 512 3557 c 0
 528.67 3587 538.67 3604.67 542 3610 c 0
 549.33 3620.67 558.17 3624.83 568.5 3622.5 c 128
 578.83 3620.17 585.67 3614 589 3604 c 1
 600.33 3560.67 612.67 3531.67 626 3517 c 0
 640.67 3501 639.67 3483.67 623 3465 c 2
 594 3436 l 1
 599.33 3244 569.33 3081.33 504 2948 c 1
 525.33 2891.33 537.33 2838.67 540 2790 c 128
 542.67 2741.33 527.67 2712.33 495 2703 c 1
 419 2684.33 336.67 2682 248 2696 c 0
 232.67 2698.67 223 2704.33 219 2713 c 0
 203.67 2752.33 206.33 2786.33 227 2815 c 1
 237 2827 247.83 2832.33 259.5 2831 c 128
 271.17 2829.67 283 2828.33 295 2827 c 1
 345.67 2856.33 387 2894.33 419 2941 c 1
 344.33 3096.33 253.33 3227.33 146 3334 c 1
 140 3323.33 135.67 3316.67 133 3314 c 0
 115 3304.67 99 3307.33 85 3322 c 2
 3 3410 l 1
 -11 3427.33 -16.67 3446.67 -14 3468 c 2
 1 3572 l 2
 4.33 3589.33 12.33 3599 25 3601 c 1
 44.33 3602.33 74 3580.33 114 3535 c 0
 273.33 3353.67 390.67 3186.67 466 3034 c 1
451 2861 m 1
 441 2847.67 430.67 2835.33 420 2824 c 1
 435.33 2824.67 448.33 2826.33 459 2829 c 1
 457 2839 454.33 2849.67 451 2861 c 1
EndSplineSet
Layer: 2
SplineSet
467 2997 m 1
 519 3111.66666667 537 3276.66666667 521 3492 c 0
 519 3522.66666667 520.333333333 3542 525 3550 c 0
 541.666666667 3580 551.5 3597.5 554.5 3602.5 c 128
 557.5 3607.5 561.333333333 3609.5 566 3608.5 c 128
 570.666666667 3607.5 573.666666667 3604.66666667 575 3600 c 0
 587 3554 598.833333333 3524.5 610.5 3511.5 c 128
 622.166666667 3498.5 622.666666667 3486.66666667 612 3476 c 2
 579 3442 l 1
 585.666666667 3246.66666667 555.333333333 3082.33333333 488 2949 c 1
 510.666666667 2891.66666667 523.333333333 2840.33333333 526 2795 c 1
 528.666666667 2750.33333333 517 2724.66666667 491 2718 c 0
 417.666666667 2699.33333333 337.333333333 2697 250 2711 c 0
 240.666666667 2712.33333333 235 2715 233 2719 c 1
 219 2753 221 2782 239 2806 c 0
 245 2814 250.333333333 2817.33333333 255 2816 c 0
 270.333333333 2814.66666667 285 2813.33333333 299 2812 c 0
 300 2813 l 0
 356 2844.33333333 401.333333333 2886.66666667 436 2940 c 1
 356.666666667 3107.33333333 258.666666667 3246.66666667 142 3358 c 1
 125 3327 l 1
 114.333333333 3320.33333333 104.666666667 3322 96 3332 c 1
 14 3420 l 1
 2.66666666667 3433.33333333 -1.66666666667 3448.66666667 1 3466 c 2
 16 3570 l 2
 17.3333333333 3580.66666667 21 3586 27 3586 c 0
 43 3587.33333333 87.3333333333 3544.33333333 160 3457 c 0
 302 3287 404.333333333 3133.66666667 467 2997 c 1
456 2894 m 1
 435.333333333 2863.33333333 412 2835 386 2809 c 0
 385 2808 l 1
 427 2807.33333333 457 2810.66666667 475 2818 c 1
 473 2840.66666667 466.666666667 2866 456 2894 c 1
EndSplineSet
EndChar
StartChar: uni06DA
Encoding: 1754 1754 4604
Width: 0
GlyphClass: 4
Flags: HW
AnchorPoint: "MarkAbove" 399 2600 mark 0
LayerCount: 3
Fore
SplineSet
357 3197 m 1
 364.333333333 3205 379 3205.16666667 401 3197.5 c 128
 423 3189.83333333 446.666666667 3174.66666667 472 3152 c 1
 480 3142.66666667 481.666666667 3133 477 3123 c 1
 420 3033 l 2
 412 3021 402.833333333 3019 392.5 3027 c 128
 382.166666667 3035 353 3053.33333333 305 3082 c 0
 294.333333333 3088 292 3097 298 3109 c 1
 357 3197 l 1
688 3565 m 2
 660 3501 l 2
 655.333333333 3489.66666667 646.666666667 3483.33333333 634 3482 c 0
 448 3456.66666667 318 3420 244 3372 c 1
 102 3278 46.3333333333 3166.33333333 77 3037 c 1
 95 2965.66666667 149 2910 239 2870 c 1
 290.333333333 2848 371.666666667 2833.5 483 2826.5 c 128
 594.333333333 2819.5 698 2820.33333333 794 2829 c 0
 811.333333333 2830.33333333 823.666666667 2826.5 831 2817.5 c 128
 838.333333333 2808.5 838.666666667 2799 832 2789 c 128
 825.333333333 2779 817.333333333 2772.66666667 808 2770 c 0
 761.333333333 2756 720.833333333 2738.83333333 686.5 2718.5 c 128
 652.166666667 2698.16666667 629 2687.33333333 617 2686 c 0
 381.666666667 2665.33333333 210.666666667 2694.16666667 104 2772.5 c 128
 -2.66666666667 2850.83333333 -37.3333333333 2973 -0 3139 c 1
 35.3333333333 3290.33333333 121 3404.33333333 257 3481 c 1
 174.333333333 3495.66666667 111.666666667 3490.66666667 69 3466 c 0
 60.3333333333 3462 52 3460.66666667 44 3462 c 1
 32.6666666667 3465.33333333 27 3475 27 3491 c 128
 27 3507 31 3526 39 3548 c 0
 57 3595.33333333 99.3333333333 3621 166 3625 c 1
 198.666666667 3626.33333333 248.333333333 3620.5 315 3607.5 c 128
 381.666666667 3594.5 437.5 3588.33333333 482.5 3589 c 128
 527.5 3589.66666667 569.5 3593.16666667 608.5 3599.5 c 128
 647.5 3605.83333333 672.666666667 3606.66666667 684 3602 c 128
 695.333333333 3597.33333333 696.666666667 3585 688 3565 c 2
EndSplineSet
Layer: 2
SplineSet
369 3188 m 2
 371 3191.33333333 374.333333333 3192 379 3190 c 0
 410.333333333 3179.33333333 438 3163 462 3141 c 0
 465.333333333 3137.66666667 466 3134.33333333 464 3131 c 2
 407 3041 l 2
 405 3037.66666667 401.166666667 3038.33333333 395.5 3043 c 128
 389.833333333 3047.66666667 362.333333333 3065 313 3095 c 0
 309.666666667 3097 309 3099.33333333 311 3102 c 2
 369 3188 l 2
674 3571 m 2
 646 3507 l 2
 642.666666667 3500.33333333 638.333333333 3497 633 3497 c 0
 444.333333333 3471.66666667 312 3434.33333333 236 3385 c 0
 87.3333333333 3287.66666667 29.3333333333 3170.66666667 62 3034 c 0
 80 2958 137 2898.66666667 233 2856 c 0
 285 2833.33333333 367.5 2818.5 480.5 2811.5 c 128
 593.5 2804.5 698.333333333 2805.33333333 795 2814 c 0
 807 2815.33333333 814.833333333 2813.83333333 818.5 2809.5 c 128
 822.166666667 2805.16666667 822.166666667 2800.33333333 818.5 2795 c 128
 814.833333333 2789.66666667 810 2786 804 2784 c 0
 756 2770 718.333333333 2754.66666667 691 2738 c 0
 650.333333333 2714 625.333333333 2701.66666667 616 2701 c 0
 384 2680.33333333 216.666666667 2707.5 114 2782.5 c 128
 11.3333333333 2857.5 -21.8333333333 2975.16666667 14.5 3135.5 c 128
 50.8333333333 3295.83333333 146.333333333 3413 301 3487 c 1
 194.333333333 3513 114.333333333 3510.33333333 61 3479 c 0
 56.3333333333 3476.33333333 51.8333333333 3475.5 47.5 3476.5 c 128
 43.1666666667 3477.5 41 3480 41 3484 c 0
 41.6666666667 3502.66666667 45.6666666667 3522.33333333 53 3543 c 0
 67.6666666667 3584.33333333 105.666666667 3606.66666667 167 3610 c 0
 197.666666667 3611.33333333 246.333333333 3605.5 313 3592.5 c 152
 379.666666667 3579.5 436 3573.33333333 482 3574 c 128
 528 3574.66666667 584.666666667 3580.66666667 652 3592 c 0
 674.666666667 3596 682 3589 674 3571 c 2
EndSplineSet
EndChar
StartChar: uni06DB
Encoding: 1755 1755 4601
Width: 0
GlyphClass: 4
Flags: HW
AnchorPoint: "MarkAbove" 379 2600 mark 0
LayerCount: 3
Fore
SplineSet
253 3020 m 1
 328.33 3096.67 372.33 3131.67 385 3125 c 0
 427 3101 462.67 3070.33 492 3033 c 1
 500 3021 499.67 3009.67 491 2999 c 1
 391 2891 l 1
 379 2879.67 367.83 2879.83 357.5 2891.5 c 128
 347.17 2903.17 313 2935.33 255 2988 c 0
 243.67 2997.33 243 3008 253 3020 c 1
496 2922 m 1
 505.33 2930.67 516 2931.67 528 2925 c 1
 570.67 2900.33 606 2869.67 634 2833 c 1
 642 2821 641.67 2809.67 633 2799 c 1
 533 2692 l 2
 522.33 2681.33 512.5 2680.5 503.5 2689.5 c 128
 494.5 2698.5 459 2731.33 397 2788 c 1
 387 2798.67 386.33 2809.33 395 2820 c 1
 496 2922 l 1
209 2922 m 1
 218.33 2930.67 229 2931.33 241 2924 c 0
 282.33 2900 317.67 2869.67 347 2833 c 1
 355 2821 354.67 2809.67 346 2799 c 1
 246 2692 l 2
 236 2682 226.33 2681.17 217 2689.5 c 128
 207.67 2697.83 172 2730.67 110 2788 c 1
 100 2798.67 99.33 2809.33 108 2820 c 1
 209 2922 l 1
EndSplineSet
Layer: 2
SplineSet
364 3111 m 2
 367.333333333 3115 372 3115.33333333 378 3112 c 0
 418 3089.33333333 452 3060 480 3024 c 0
 484 3018.66666667 484 3013.66666667 480 3009 c 2
 380 2901 l 2
 376 2897 370.833333333 2898.83333333 364.5 2906.5 c 128
 358.166666667 2914.16666667 325 2945 265 2999 c 0
 261 3002.33333333 260.666666667 3005.66666667 264 3009 c 2
 364 3111 l 2
507 2911 m 2
 510.333333333 2914.33333333 515 2914.66666667 521 2912 c 0
 561 2889.33333333 594.666666667 2860 622 2824 c 0
 626 2818.66666667 626 2813.66666667 622 2809 c 2
 522 2702 l 2
 518.666666667 2698 513.666666667 2699.66666667 507 2707 c 0
 506.333333333 2707.66666667 473 2738.33333333 407 2799 c 0
 403.666666667 2802.33333333 403.333333333 2805.66666667 406 2809 c 2
 507 2911 l 2
220 2911 m 2
 224 2915 228.333333333 2915.33333333 233 2912 c 0
 273 2889.33333333 307 2860 335 2824 c 0
 339 2818.66666667 339 2813.66666667 335 2809 c 2
 235 2702 l 2
 232.333333333 2698.66666667 227 2700.33333333 219 2707 c 0
 218.333333333 2707.66666667 185.333333333 2738.33333333 120 2799 c 0
 116.666666667 2802.33333333 116.333333333 2805.66666667 119 2809 c 2
 220 2911 l 2
EndSplineSet
EndChar
StartChar: uni06DC
Encoding: 1756 1756 4603
Width: 0
GlyphClass: 4
Flags: HW
AnchorPoint: "MarkAbove" 589 2600 mark 0
AnchorPoint: "SeenAbove" 510 2700 mark 0
LayerCount: 3
Fore
SplineSet
994 3430 m 1
 1024.66666667 3428 1039.83333333 3394.66666667 1039.5 3330 c 128
 1039.16666667 3265.33333333 1024.66666667 3209.66666667 996 3163 c 0
 986 3147.66666667 973 3138 957 3134 c 1
 919.666666667 3127.33333333 877.666666667 3136.66666667 831 3162 c 1
 795 3107.33333333 747 3081.66666667 687 3085 c 1
 682.333333333 3021.66666667 671.5 2965.33333333 654.5 2916 c 128
 637.5 2866.66666667 607.333333333 2824.66666667 564 2790 c 1
 470 2717.33333333 367 2682.66666667 255 2686 c 0
 113 2690.66666667 25.3333333333 2750.66666667 -8 2866 c 1
 -17.3333333333 2899.33333333 -16 2945.66666667 -4 3005 c 128
 8 3064.33333333 32.3333333333 3128 69 3196 c 0
 75 3206 83.3333333333 3211.16666667 94 3211.5 c 128
 104.666666667 3211.83333333 112 3207.66666667 116 3199 c 0
 120.666666667 3189.66666667 121 3180.66666667 117 3172 c 0
 69.6666666667 3080 50 3019.33333333 58 2990 c 0
 86 2894.66666667 155.666666667 2845.33333333 267 2842 c 1
 423.666666667 2838.66666667 535.666666667 2888 603 2990 c 1
 605.666666667 3048 590.333333333 3112.33333333 557 3183 c 0
 551 3196.33333333 550 3207.33333333 554 3216 c 0
 571.333333333 3252.66666667 585 3278.33333333 595 3293 c 0
 606.333333333 3309.66666667 616.666666667 3314 626 3306 c 128
 635.333333333 3298 645.333333333 3284.83333333 656 3266.5 c 128
 666.666666667 3248.16666667 674.666666667 3236.66666667 680 3232 c 1
 716 3225.33333333 752 3237 788 3267 c 1
 801.333333333 3279 814.666666667 3312 828 3366 c 0
 831.333333333 3377.33333333 837.333333333 3385.33333333 846 3390 c 1
 856 3393.33333333 865 3392.33333333 873 3387 c 0
 888.333333333 3377 891.666666667 3353.33333333 883 3316 c 0
 883 3314.66666667 882.666666667 3314 882 3314 c 0
 904.666666667 3300 929 3292.66666667 955 3292 c 1
 955 3292.66666667 954.5 3293.66666667 953.5 3295 c 128
 952.5 3296.33333333 951 3298.66666667 949 3302 c 0
 945.666666667 3310 944.333333333 3314.66666667 945 3316 c 2
 967 3407 l 1
 972.333333333 3421.66666667 981.333333333 3429.33333333 994 3430 c 1
EndSplineSet
Layer: 2
SplineSet
982 3403 m 2
 984 3411 988 3415 994 3415 c 128
 1000 3415 1005 3411.66666667 1009 3405 c 0
 1019.66666667 3387.66666667 1025 3361 1025 3325 c 0
 1025 3267 1011 3215.66666667 983 3171 c 0
 975.666666667 3159 966 3151.66666667 954 3149 c 0
 917.333333333 3141.66666667 874.666666667 3152.66666667 826 3182 c 1
 790.666666667 3118.66666667 739.666666667 3091.66666667 673 3101 c 1
 669 3033 658.666666667 2974.33333333 642 2925 c 128
 625.333333333 2875.66666667 596.333333333 2834.66666667 555 2802 c 24
 464.333333333 2731.33333333 364.333333333 2697.66666667 255 2701 c 0
 120.333333333 2704.33333333 37.3333333333 2760.66666667 6 2870 c 0
 -2.66666666667 2900.66666667 -1.16666666667 2944.66666667 10.5 3002 c 128
 22.1666666667 3059.33333333 46 3121.66666667 82 3189 c 0
 84.6666666667 3194.33333333 88.5 3197.16666667 93.5 3197.5 c 128
 98.5 3197.83333333 102 3196 104 3192 c 128
 106 3188 106 3183.66666667 104 3179 c 0
 54.6666666667 3083 34.6666666667 3018.66666667 44 2986 c 0
 72.6666666667 2883.33333333 147 2830.33333333 267 2827 c 0
 431 2823 548 2875.66666667 618 2985 c 1
 622 3045.66666667 606.333333333 3114 571 3190 c 0
 567 3198 566 3204.66666667 568 3210 c 0
 584.666666667 3246 598.666666667 3272.66666667 610 3290 c 0
 613.333333333 3294.66666667 617 3295.16666667 621 3291.5 c 128
 625 3287.83333333 633.5 3275 646.5 3253 c 128
 659.5 3231 669.333333333 3219.33333333 676 3218 c 0
 716.666666667 3209.33333333 757.333333333 3221.66666667 798 3255 c 0
 814 3268.33333333 829 3304.33333333 843 3363 c 0
 844.333333333 3369.66666667 847.333333333 3374 852 3376 c 128
 856.666666667 3378 861 3377.66666667 865 3375 c 0
 873 3369.66666667 873.333333333 3347 866 3307 c 1
 897.333333333 3283.66666667 932.333333333 3274 971 3278 c 1
 971.666666667 3290 969.833333333 3298.5 965.5 3303.5 c 128
 961.166666667 3308.5 959.666666667 3313 961 3317 c 2
 982 3403 l 2
EndSplineSet
EndChar
StartChar: uni06DD
Encoding: 1757 1757 4558
Width: 2620
Flags: HW
LayerCount: 3
Fore
SplineSet
2028 -281 m 1
 2313.33333333 -167 2456 40 2456 340 c 0
 2456 562.666666667 2375.66666667 735 2215 857 c 1
 2155 901 2092.33333333 935.666666667 2027 961 c 1
 2024.33333333 904.333333333 1999.66666667 869 1953 855 c 128
 1906.33333333 841 1861.66666667 848.666666667 1819 878 c 1
 1788.33333333 903.333333333 1787.66666667 922 1817 934 c 1
 1835.66666667 940.666666667 1845.66666667 948.666666667 1847 958 c 1
 1844.33333333 976.666666667 1830.33333333 994.333333333 1805 1011 c 1
 1627 1024.33333333 1493.33333333 994.666666667 1404 922 c 1
 1426 882 1416.66666667 851 1376 829 c 1
 1349.33333333 817.666666667 1327.33333333 821.666666667 1310 841 c 1
 1292.66666667 821.666666667 1267.33333333 820 1234 836 c 128
 1200.66666667 852 1194.66666667 880.666666667 1216 922 c 1
 1125.33333333 995.333333333 991.333333333 1025 814 1011 c 1
 788 994.333333333 774 976.666666667 772 958 c 1
 773.333333333 948.666666667 780 941.666666667 792 937 c 0
 830 922.333333333 832.666666667 902.666666667 800 878 c 1
 754 846.666666667 707.666666667 839.333333333 661 856 c 1
 616.333333333 875.333333333 593.333333333 910.333333333 592 961 c 1
 527.333333333 935 465 900.333333333 405 857 c 1
 243.666666667 734.333333333 163.166666667 561.833333333 163.5 339.5 c 128
 163.833333333 117.166666667 244.333333333 -55.3333333333 405 -178 c 1
 465 -221.333333333 527.333333333 -255.666666667 592 -281 c 1
 594.666666667 -225.666666667 618.333333333 -190.333333333 663 -175 c 1
 713.666666667 -161 759.666666667 -169 801 -199 c 1
 809 -205.666666667 814.833333333 -215.333333333 818.5 -228 c 128
 822.166666667 -240.666666667 812.666666667 -250.333333333 790 -257 c 1
 779.333333333 -261 773.333333333 -268 772 -278 c 1
 775.333333333 -298 789.333333333 -316 814 -332 c 1
 992.666666667 -344.666666667 1126.66666667 -314.666666667 1216 -242 c 1
 1194 -202 1203.33333333 -171 1244 -149 c 1
 1270.66666667 -137.666666667 1292.66666667 -141.666666667 1310 -161 c 1
 1327.33333333 -141.666666667 1352.66666667 -140 1386 -156 c 128
 1419.33333333 -172 1425.33333333 -200.666666667 1404 -242 c 1
 1494 -314.666666667 1628 -344.666666667 1806 -332 c 1
 1831.33333333 -315.333333333 1845.33333333 -297.333333333 1848 -278 c 1
 1846 -266.666666667 1840.33333333 -259.833333333 1831 -257.5 c 128
 1821.66666667 -255.166666667 1812.5 -248.5 1803.5 -237.5 c 128
 1794.5 -226.5 1800 -213.666666667 1820 -199 c 1
 1865.33333333 -167.666666667 1911.33333333 -160 1958 -176 c 1
 2002.66666667 -194 2026 -229 2028 -281 c 1
1290 -266 m 0
 1196.66666667 -334.666666667 1150.33333333 -403.333333333 1151 -472 c 1
 1155 -531.333333333 1208 -600.666666667 1310 -680 c 1
 1412.66666667 -600.666666667 1465.66666667 -531.333333333 1469 -472 c 1
 1469 -402 1422.66666667 -333.333333333 1330 -266 c 0
 1322.66666667 -260 1316 -254.333333333 1310 -249 c 1
 1304 -255 1297.33333333 -260.666666667 1290 -266 c 0
1839 -600 m 1
 1822.33333333 -616 1802 -624.333333333 1778 -625 c 128
 1754 -625.666666667 1734 -617.833333333 1718 -601.5 c 128
 1702 -585.166666667 1693.33333333 -564.833333333 1692 -540.5 c 128
 1690.66666667 -516.166666667 1698.66666667 -495.666666667 1716 -479 c 0
 1754 -443 1794.66666667 -442 1838 -476 c 1
 1854.66666667 -490.666666667 1863 -510.833333333 1863 -536.5 c 128
 1863 -562.166666667 1855 -583.333333333 1839 -600 c 1
902 -600 m 1
 885.333333333 -616 865 -624.333333333 841 -625 c 128
 817 -625.666666667 797 -617.833333333 781 -601.5 c 128
 765 -585.166666667 756.333333333 -564.833333333 755 -540.5 c 128
 753.666666667 -516.166666667 761.666666667 -495.666666667 779 -479 c 0
 817 -443 857.666666667 -442 901 -476 c 1
 917.666666667 -490.666666667 926 -510.833333333 926 -536.5 c 128
 926 -562.166666667 918 -583.333333333 902 -600 c 1
1839 1156 m 1
 1822.33333333 1140 1802 1131.66666667 1778 1131 c 128
 1754 1130.33333333 1734 1138.16666667 1718 1154.5 c 128
 1702 1170.83333333 1693.33333333 1191.16666667 1692 1215.5 c 128
 1690.66666667 1239.83333333 1698.66666667 1260.33333333 1716 1277 c 0
 1754 1313 1794.66666667 1314 1838 1280 c 1
 1854.66666667 1265.33333333 1863 1245.16666667 1863 1219.5 c 128
 1863 1193.83333333 1855 1172.66666667 1839 1156 c 1
902 1156 m 1
 885.333333333 1140 865 1131.66666667 841 1131 c 128
 817 1130.33333333 797 1138.16666667 781 1154.5 c 128
 765 1170.83333333 756.333333333 1191.16666667 755 1215.5 c 128
 753.666666667 1239.83333333 761.666666667 1260.33333333 779 1277 c 0
 817 1313 857.666666667 1314 901 1280 c 1
 917.666666667 1265.33333333 926 1245.16666667 926 1219.5 c 128
 926 1193.83333333 918 1172.66666667 902 1156 c 1
1614 -415 m 1
 1623.33333333 -449.666666667 1619.5 -488 1602.5 -530 c 128
 1585.5 -572 1536.83333333 -621.5 1456.5 -678.5 c 128
 1376.16666667 -735.5 1331.66666667 -767.666666667 1323 -775 c 128
 1314.33333333 -782.333333333 1305.5 -782.166666667 1296.5 -774.5 c 128
 1287.5 -766.833333333 1242.83333333 -734.5 1162.5 -677.5 c 128
 1082.16666667 -620.5 1033.83333333 -571 1017.5 -529 c 128
 1001.16666667 -487 997.333333333 -449 1006 -415 c 1
 964 -419.666666667 924 -422 886 -422 c 0
 684 -419.333333333 506.666666667 -361 354 -247 c 0
 166.666666667 -107 73 88.5 73 339.5 c 128
 73 590.5 166.666666667 786.333333333 354 927 c 1
 508 1039.66666667 685.333333333 1097.33333333 886 1100 c 0
 924.666666667 1100 964.666666667 1098 1006 1094 c 1
 996.666666667 1128.66666667 1000.33333333 1167.16666667 1017 1209.5 c 128
 1033.66666667 1251.83333333 1082.16666667 1301.5 1162.5 1358.5 c 128
 1242.83333333 1415.5 1287.5 1447.66666667 1296.5 1455 c 128
 1305.5 1462.33333333 1314.5 1462.33333333 1323.5 1455 c 128
 1332.5 1447.66666667 1377.33333333 1415.33333333 1458 1358 c 128
 1538.66666667 1300.66666667 1587 1251 1603 1209 c 128
 1619 1167 1622.66666667 1128.66666667 1614 1094 c 1
 1656 1098 1696 1100 1734 1100 c 0
 1935.33333333 1097.33333333 2112.66666667 1039.66666667 2266 927 c 1
 2453.33333333 785.666666667 2547 589.666666667 2547 339 c 128
 2547 88.3333333333 2453.33333333 -107 2266 -247 c 0
 2112.66666667 -361 1935.33333333 -419.333333333 1734 -422 c 0
 1695.33333333 -422 1655.33333333 -419.666666667 1614 -415 c 1
1310 929 m 1
 1316 935.666666667 1322.66666667 941.333333333 1330 946 c 1
 1422 1015.33333333 1468.33333333 1084.33333333 1469 1153 c 1
 1465 1214.33333333 1412 1283.33333333 1310 1360 c 1
 1207.33333333 1282.66666667 1154.33333333 1213.66666667 1151 1153 c 1
 1151.66666667 1082.33333333 1198 1013.33333333 1290 946 c 0
 1298 940.666666667 1304.66666667 935 1310 929 c 1
EndSplineSet
Layer: 2
SplineSet
2006 988 m 1
 2011.33333333 976.666666667 2011.33333333 957.666666667 2006 931 c 128
 2000.66666667 904.333333333 1982.33333333 884.666666667 1951 872 c 1
 1907.66666667 858.666666667 1867 865.333333333 1829 892 c 1
 1812.33333333 904.666666667 1810.33333333 913.333333333 1823 918 c 24
 1849.66666667 927.333333333 1863.66666667 940.666666667 1865 958 c 1
 1863.66666667 984 1845.66666667 1007.33333333 1811 1028 c 1
 1618.33333333 1044 1475 1009.66666667 1381 925 c 1
 1406.33333333 889 1402 862.333333333 1368 845 c 1
 1348.66666667 839 1334.5 840.666666667 1325.5 850 c 128
 1316.5 859.333333333 1311.33333333 869 1310 879 c 1
 1308.66666667 869 1303.5 859.333333333 1294.5 850 c 128
 1285.5 840.666666667 1271.33333333 839 1252 845 c 1
 1218 862.333333333 1213.66666667 889 1239 925 c 1
 1145 1009.66666667 1001.33333333 1044 808 1028 c 1
 773.333333333 1007.33333333 755.333333333 984 754 958 c 1
 755.333333333 940.666666667 769.333333333 927.333333333 796 918 c 24
 808.666666667 913.333333333 806.666666667 904.666666667 790 892 c 1
 752 865.333333333 711.333333333 858.666666667 668 872 c 1
 636.666666667 884.666666667 618.333333333 904.333333333 613 931 c 128
 607.666666667 957.666666667 607.666666667 976.666666667 613 988 c 1
 537 961.333333333 464.333333333 922.333333333 395 871 c 1
 229 745.666666667 146 568.666666667 146 340 c 128
 146 111.333333333 229 -66 395 -192 c 1
 464.333333333 -242.666666667 537 -281.333333333 613 -308 c 1
 607.666666667 -297.333333333 607.666666667 -278.333333333 613 -251 c 128
 618.333333333 -223.666666667 636.666666667 -204 668 -192 c 1
 711.333333333 -179.333333333 752 -186.333333333 790 -213 c 1
 805.333333333 -225 804 -234 786 -240 c 1
 766 -244.666666667 755.333333333 -257.333333333 754 -278 c 1
 756 -304.666666667 774 -328.333333333 808 -349 c 1
 1002 -363.666666667 1145.66666667 -329 1239 -245 c 1
 1213.66666667 -209 1218 -182.333333333 1252 -165 c 1
 1271.33333333 -159 1285.5 -160.666666667 1294.5 -170 c 128
 1303.5 -179.333333333 1308.66666667 -189 1310 -199 c 1
 1311.33333333 -189 1316.5 -179.333333333 1325.5 -170 c 128
 1334.5 -160.666666667 1348.66666667 -159 1368 -165 c 1
 1402 -182.333333333 1406.33333333 -209 1381 -245 c 1
 1474.33333333 -329 1618 -363.666666667 1812 -349 c 1
 1846 -328.333333333 1864 -304.666666667 1866 -278 c 1
 1864.66666667 -257.333333333 1854 -244.666666667 1834 -240 c 1
 1816 -234 1814.66666667 -225 1830 -213 c 1
 1868 -186.333333333 1908.66666667 -179.333333333 1952 -192 c 1
 1983.33333333 -204 2001.66666667 -223.666666667 2007 -251 c 128
 2012.33333333 -278.333333333 2012.33333333 -297.333333333 2007 -308 c 1
 2083 -281.333333333 2155.66666667 -242.666666667 2225 -192 c 1
 2391 -66 2474 111.333333333 2474 340 c 128
 2474 568.666666667 2391 745.666666667 2225 871 c 1
 2155.66666667 922.333333333 2082.66666667 961.333333333 2006 988 c 1
1280 -252 m 0
 1181.33333333 -324 1132.66666667 -397.666666667 1134 -473 c 1
 1136.66666667 -539.666666667 1195.33333333 -616 1310 -702 c 1
 1424.66666667 -616 1483.33333333 -539.666666667 1486 -473 c 1
 1487.33333333 -397.666666667 1438.66666667 -324 1340 -252 c 0
 1322.66666667 -239.333333333 1312.66666667 -226 1310 -212 c 1
 1307.33333333 -226 1297.33333333 -239.333333333 1280 -252 c 0
1709 -539 m 0
 1707.66666667 -520.333333333 1714.33333333 -504 1729 -490 c 0
 1742.33333333 -477.333333333 1758.66666667 -470.666666667 1778 -470 c 0
 1793.33333333 -469.333333333 1809.66666667 -476 1827 -490 c 0
 1839.66666667 -500.666666667 1846.33333333 -517 1847 -539 c 256
 1847 -558.333333333 1840.33333333 -574.666666667 1827 -588 c 0
 1814.33333333 -600.666666667 1798 -607.333333333 1778 -608 c 0
 1758.66666667 -608.666666667 1742.33333333 -602 1729 -588 c 0
 1717 -576 1710.33333333 -559.666666667 1709 -539 c 0
772 -539 m 0
 770.666666667 -520.333333333 777.333333333 -504 792 -490 c 0
 805.333333333 -477.333333333 821.666666667 -470.666666667 841 -470 c 0
 856.333333333 -469.333333333 872.666666667 -476 890 -490 c 0
 902.666666667 -500.666666667 909.333333333 -517 910 -539 c 256
 910 -558.333333333 903.333333333 -574.666666667 890 -588 c 0
 877.333333333 -600.666666667 861 -607.333333333 841 -608 c 0
 821.666666667 -608.666666667 805.333333333 -602 792 -588 c 0
 780 -576 773.333333333 -559.666666667 772 -539 c 0
1709 1217 m 0
 1707.66666667 1235.66666667 1714.33333333 1252 1729 1266 c 0
 1742.33333333 1278.66666667 1758.66666667 1285.33333333 1778 1286 c 0
 1793.33333333 1286.66666667 1809.66666667 1280 1827 1266 c 0
 1839.66666667 1255.33333333 1846.33333333 1239 1847 1217 c 256
 1847 1197.66666667 1840.33333333 1181.33333333 1827 1168 c 0
 1814.33333333 1155.33333333 1798 1148.66666667 1778 1148 c 0
 1758.66666667 1147.33333333 1742.33333333 1154 1729 1168 c 0
 1717 1180 1710.33333333 1196.33333333 1709 1217 c 0
772 1217 m 0
 770.666666667 1235.66666667 777.333333333 1252 792 1266 c 0
 805.333333333 1278.66666667 821.666666667 1285.33333333 841 1286 c 0
 856.333333333 1286.66666667 872.666666667 1280 890 1266 c 0
 902.666666667 1255.33333333 909.333333333 1239 910 1217 c 256
 910 1197.66666667 903.333333333 1181.33333333 890 1168 c 0
 877.333333333 1155.33333333 861 1148.66666667 841 1148 c 0
 821.666666667 1147.33333333 805.333333333 1154 792 1168 c 0
 780 1180 773.333333333 1196.33333333 772 1217 c 0
1310 -764 m 1
 1300.66666667 -755.333333333 1256 -722.666666667 1176 -666 c 128
 1096 -609.333333333 1047.5 -559.333333333 1030.5 -516 c 128
 1013.5 -472.666666667 1014.33333333 -432.333333333 1033 -395 c 1
 982.333333333 -401 933.333333333 -404 886 -404 c 0
 688 -402 514 -345 364 -233 c 0
 181.333333333 -96.3333333333 90 94.5 90 339.5 c 128
 90 584.5 181.333333333 775.666666667 364 913 c 1
 514.666666667 1024.33333333 688.666666667 1081 886 1083 c 0
 932.666666667 1083 981.666666667 1080 1033 1074 c 1
 1014.33333333 1112 1013.33333333 1152.66666667 1030 1196 c 128
 1046.66666667 1239.33333333 1095 1289.33333333 1175 1346 c 128
 1255 1402.66666667 1300 1435.33333333 1310 1444 c 1
 1320 1435.33333333 1365 1402.66666667 1445 1346 c 128
 1525 1289.33333333 1573.33333333 1239.33333333 1590 1196 c 128
 1606.66666667 1152.66666667 1605.66666667 1112 1587 1074 c 1
 1638.33333333 1080 1687.33333333 1083 1734 1083 c 0
 1931.33333333 1081 2105.33333333 1024.33333333 2256 913 c 1
 2438.66666667 775.666666667 2530 584.5 2530 339.5 c 128
 2530 94.5 2438.66666667 -96.3333333333 2256 -233 c 0
 2106 -345 1932 -402 1734 -404 c 0
 1686.66666667 -404 1637.66666667 -401 1587 -395 c 1
 1605.66666667 -432.333333333 1606.5 -472.666666667 1589.5 -516 c 128
 1572.5 -559.333333333 1524 -609.333333333 1444 -666 c 128
 1364 -722.666666667 1319.33333333 -755.333333333 1310 -764 c 1
1310 892 m 1
 1312.66666667 906 1322.66666667 919.333333333 1340 932 c 0
 1437.33333333 1004.66666667 1486 1078.33333333 1486 1153 c 1
 1483.33333333 1221.66666667 1424.66666667 1298 1310 1382 c 1
 1195.33333333 1298 1136.66666667 1221.66666667 1134 1153 c 1
 1133.33333333 1077 1182 1003.33333333 1280 932 c 0
 1297.33333333 919.333333333 1307.33333333 906 1310 892 c 1
EndSplineSet
EndChar
StartChar: uni06DE
Encoding: 1758 1758 4590
Width: 1336
Flags: HW
LayerCount: 3
Fore
SplineSet
668 948 m 1
 744 947.33 777.67 899 769 803 c 1
 741 519 l 1
 923 740 l 1
 985 814 1043 824.33 1097 771 c 1
 1151 716.33 1140.67 658 1066 596 c 1
 845 414 l 1
 1130 442 l 1
 1226 450.67 1274.33 417 1275 341 c 1
 1274.33 264.33 1226 230.33 1130 239 c 1
 846 267 l 1
 1066 86 l 1
 1140 24 1150.33 -34 1097 -88 c 1
 1042.33 -142 984.33 -132 923 -58 c 1
 741 162 l 1
 769 -122 l 1
 777.67 -218 744 -266.33 668 -267 c 1
 591.33 -266.33 557.33 -218 566 -122 c 1
 594 162 l 1
 412 -58 l 1
 350 -132 292 -142 238 -88 c 1
 184.67 -34 195 24 269 86 c 1
 489 267 l 1
 205 239 l 1
 109 230.33 60.67 264.33 60 341 c 1
 60.67 417 109 450.67 205 442 c 1
 490 414 l 1
 269 596 l 1
 195 658 184.67 716.33 238 771 c 1
 292 824.33 350 814 412 740 c 1
 594 519 l 1
 566 803 l 1
 557.33 899 591.33 947.33 668 948 c 1
EndSplineSet
Layer: 2
SplineSet
947 720 m 2
 994.333333333 778 1037.33333333 787.666666667 1076 749 c 0
 1115.33333333 709.666666667 1106 666.333333333 1048 619 c 2
 751 374 l 1
 1134 411 l 2
 1208.66666667 418.333333333 1246 394.666666667 1246 340 c 0
 1246 284.666666667 1208.66666667 260.666666667 1134 268 c 2
 752 305 l 1
 1048 61 l 2
 1106 13.6666666667 1115.66666667 -29.6666666667 1077 -69 c 0
 1037.66666667 -108.333333333 994.333333333 -98.6666666667 947 -40 c 2
 702 257 l 1
 739 -126 l 2
 746.333333333 -200.666666667 722.666666667 -238 668 -238 c 0
 612.666666667 -238 588.666666667 -200.666666667 596 -126 c 2
 633 256 l 1
 389 -41 l 2
 341.666666667 -99 298.333333333 -108.333333333 259 -69 c 0
 220.333333333 -30.3333333333 230 13 288 61 c 2
 585 305 l 1
 202 268 l 2
 127.333333333 260.666666667 90 284.666666667 90 340 c 0
 90 394.666666667 127.333333333 418.333333333 202 411 c 2
 585 374 l 1
 288 619 l 2
 230 666.333333333 220.666666667 709.666666667 260 749 c 0
 298.666666667 787.666666667 341.666666667 778 389 720 c 2
 633 424 l 1
 596 806 l 2
 588.666666667 880.666666667 612.666666667 918 668 918 c 0
 722.666666667 918 746.333333333 880.666666667 739 806 c 2
 702 422 l 1
 947 720 l 2
EndSplineSet
EndChar
StartChar: uni06DF
Encoding: 1759 1759 4582
Width: 0
GlyphClass: 4
Flags: HW
AnchorPoint: "MarkAbove" 368 1640 mark 0
AnchorPoint: "TashkilAbove" 372 1640 mark 0
LayerCount: 3
Fore
SplineSet
425 1842 m 0
 449.67 1847.33 447.83 1861.33 419.5 1884 c 128
 391.17 1906.67 369.33 1918.33 354 1919 c 0
 323.33 1919.67 306.67 1906.33 304 1879 c 0
 302.67 1865 308 1855 320 1849 c 0
 348.67 1835 383.67 1832.67 425 1842 c 0
234 1853 m 0
 236.67 1901 250.67 1943 276 1979 c 0
 318.67 2038.33 372.67 2045 438 1999 c 1
 488.67 1961 512.17 1916.5 508.5 1865.5 c 128
 504.83 1814.5 488.33 1775.33 459 1748 c 128
 429.67 1720.67 383.83 1712.17 321.5 1722.5 c 128
 259.17 1732.83 230 1776.33 234 1853 c 0
EndSplineSet
Layer: 2
SplineSet
276 1950 m 0
 314.666666667 2020 365.666666667 2032.33333333 429 1987 c 0
 475.666666667 1953 497.666666667 1915.33333333 495 1874 c 0
 491 1822 474.666666667 1782.66666667 446 1756 c 0
 428 1738.66666667 395.666666667 1731.33333333 349 1734 c 0
 268.333333333 1736.66666667 236 1786 252 1882 c 0
 256.666666667 1907.33333333 264.666666667 1930 276 1950 c 0
425 1842 m 0
 449.666666667 1847.33333333 447 1862 417 1886 c 0
 390.333333333 1907.33333333 369.333333333 1918.33333333 354 1919 c 0
 323.333333333 1919.66666667 306.666666667 1906.33333333 304 1879 c 0
 302.666666667 1865 308 1855 320 1849 c 0
 348.666666667 1835 383.666666667 1832.66666667 425 1842 c 0
EndSplineSet
EndChar
StartChar: uni06E0
Encoding: 1760 1760 4583
Width: 0
GlyphClass: 4
Flags: HW
AnchorPoint: "MarkAbove" 368 1640 mark 0
AnchorPoint: "TashkilAbove" 372 1640 mark 0
LayerCount: 3
Fore
SplineSet
442 1993 m 0
 442 2073.66666667 438 2128.33333333 430 2157 c 256
 420.666666667 2193.66666667 398.666666667 2212 364 2212 c 0
 333.333333333 2211.33333333 312 2193 300 2157 c 256
 292 2131.66666667 288 2077 288 1993 c 0
 288 1911 292 1855.66666667 300 1827 c 256
 310.666666667 1791 332 1773 364 1773 c 0
 398.666666667 1772.33333333 420.666666667 1790.33333333 430 1827 c 256
 438 1855.66666667 442 1911 442 1993 c 0
192.5 1993 m 128
 192.833333333 2075 210.833333333 2140.66666667 246.5 2190 c 128
 282.166666667 2239.33333333 322 2264 366 2264 c 128
 410 2264 449.833333333 2239 485.5 2189 c 128
 521.166666667 2139 538.833333333 2073.16666667 538.5 1991.5 c 128
 538.166666667 1909.83333333 520.166666667 1844.16666667 484.5 1794.5 c 128
 448.833333333 1744.83333333 409 1720 365 1720 c 128
 321 1720 281.166666667 1745 245.5 1795 c 128
 209.833333333 1845 192.166666667 1911 192.5 1993 c 128
EndSplineSet
Layer: 2
SplineSet
442 1993 m 0
 442 2073.66666667 438 2128.33333333 430 2157 c 256
 420.666666667 2193.66666667 398.666666667 2212 364 2212 c 0
 333.333333333 2211.33333333 312 2193 300 2157 c 256
 292 2131.66666667 288 2077 288 1993 c 0
 288 1911 292 1855.66666667 300 1827 c 256
 310.666666667 1791 332 1773 364 1773 c 0
 398.666666667 1772.33333333 420.666666667 1790.33333333 430 1827 c 256
 438 1855.66666667 442 1911 442 1993 c 0
207 1993 m 0
 207 2071.66666667 223.666666667 2134 257 2180 c 256
 290.333333333 2226.66666667 326 2250 364 2250 c 0
 404 2250 440.666666667 2226.66666667 474 2180 c 256
 507.333333333 2133.33333333 524 2071 524 1993 c 0
 524 1913.66666667 507.333333333 1850.66666667 474 1804 c 256
 440.666666667 1757.33333333 404 1734 364 1734 c 0
 326 1734 290.333333333 1757.33333333 257 1804 c 256
 223.666666667 1850.66666667 207 1913.66666667 207 1993 c 0
EndSplineSet
EndChar
StartChar: uni06E1
Encoding: 1761 1761 4552
Width: 0
GlyphClass: 4
Flags: HW
AnchorPoint: "TashkilTashkilAbove" 366 2190 basemark 0
AnchorPoint: "MarkAbove" 368 1640 mark 0
AnchorPoint: "TashkilAbove" 372 1640 mark 0
AnchorPoint: "TashkilAboveDot" 372 1640 mark 0
LayerCount: 3
Fore
SplineSet
537 2053 m 2
 579 2042.33333333 591 2013.33333333 573 1966 c 0
 563.666666667 1942.66666667 542.166666667 1914 508.5 1880 c 128
 474.833333333 1846 445.333333333 1818.66666667 420 1798 c 0
 366 1754 284.333333333 1745 175 1771 c 0
 157.666666667 1775 148.833333333 1786.33333333 148.5 1805 c 128
 148.166666667 1823.66666667 158 1834.33333333 178 1837 c 1
 270 1845 346.666666667 1869.66666667 408 1911 c 1
 341.333333333 1934.33333333 280.666666667 1933.66666667 226 1909 c 1
 208 1901.66666667 193.333333333 1906 182 1922 c 128
 170.666666667 1938 171 1953.66666667 183 1969 c 0
 217 2011 249.666666667 2044 281 2068 c 128
 312.333333333 2092 355.666666667 2097.33333333 411 2084 c 2
 537 2053 l 2
EndSplineSet
Layer: 2
SplineSet
533 2038 m 2
 564.333333333 2030 573 2007.66666667 559 1971 c 0
 551 1949.66666667 538.333333333 1930.33333333 521 1913 c 0
 472.333333333 1864.33333333 434.666666667 1829.33333333 408 1808 c 0
 386.666666667 1790 362.666666667 1778.66666667 336 1774 c 0
 291.333333333 1767.33333333 238.666666667 1771.33333333 178 1786 c 0
 166.666666667 1788.66666667 161.666666667 1796 163 1808 c 1
 165.666666667 1816.66666667 171 1821.33333333 179 1822 c 0
 285 1830.66666667 371.666666667 1861.66666667 439 1915 c 1
 397 1933 359 1942.66666667 325 1944 c 0
 288.333333333 1945.33333333 253.333333333 1938.33333333 220 1923 c 0
 209.333333333 1918.33333333 201.333333333 1919.66666667 196 1927 c 0
 187.333333333 1939 187 1949.66666667 195 1959 c 0
 228.333333333 2000.33333333 258 2031 284 2051 c 0
 315.333333333 2075.66666667 356.333333333 2081.66666667 407 2069 c 2
 533 2038 l 2
EndSplineSet
EndChar
StartChar: uni06E2
Encoding: 1762 1762 4592
Width: 0
GlyphClass: 4
Flags: HW
AnchorPoint: "MarkAbove" 318 1640 mark 0
AnchorPoint: "TashkilTashkilAbove2" 450 2150 mark 0
AnchorPoint: "TashkilTashkilAbove" 450 2150 mark 0
AnchorPoint: "TashkilAbove" 320 1640 mark 0
AnchorPoint: "TashkilAboveDot" 320 1640 mark 0
LayerCount: 3
Fore
SplineSet
260 2166 m 1
 236 2184.66666667 211 2184.66666667 185 2166 c 128
 159 2147.33333333 142 2138.66666667 134 2140 c 1
 118.666666667 2144 118.333333333 2166 133 2206 c 128
 147.666666667 2246 170.333333333 2278.66666667 201 2304 c 128
 231.666666667 2329.33333333 274 2326.66666667 328 2296 c 1
 366.666666667 2272.66666667 397 2240.33333333 419 2199 c 0
 427 2184.33333333 429.666666667 2169.66666667 427 2155 c 2
 416 2086 l 1
 411.333333333 2064.66666667 396 2052 370 2048 c 0
 229.333333333 2029.33333333 150.666666667 1997.66666667 134 1953 c 1
 190 1801 220.333333333 1691 225 1623 c 0
 227 1587.66666667 217.333333333 1568 196 1564 c 1
 174 1562 159 1577.33333333 151 1610 c 128
 143 1642.66666667 125.333333333 1696 98 1770 c 128
 70.6666666667 1844 59 1909 63 1965 c 1
 73 2062.33333333 138.666666667 2129.33333333 260 2166 c 1
EndSplineSet
Layer: 2
SplineSet
171 2158 m 0
 141 2134 132 2138.66666667 144 2172 c 0
 159.333333333 2216 180.666666667 2252.33333333 208 2281 c 128
 235.333333333 2309.66666667 272.666666667 2310.33333333 320 2283 c 0
 356 2261.66666667 384.666666667 2231.33333333 406 2192 c 0
 412 2181.33333333 414 2169.66666667 412 2157 c 2
 401 2089 l 2
 398.333333333 2074.33333333 387.333333333 2065.66666667 368 2063 c 0
 214.666666667 2042.33333333 131.333333333 2005.66666667 118 1953 c 1
 174.666666667 1799.66666667 205.333333333 1689.33333333 210 1622 c 0
 212 1595.33333333 206.666666667 1581 194 1579 c 0
 180.666666667 1577 171.333333333 1587.66666667 166 1611 c 0
 158 1645 140.666666667 1698.33333333 114 1771 c 0
 86 1845.66666667 74 1910 78 1964 c 1
 86.6666666667 2064.66666667 151.666666667 2128.66666667 273 2156 c 1
 244.333333333 2189.33333333 210.333333333 2190 171 2158 c 0
EndSplineSet
EndChar
StartChar: uni06E4
Encoding: 1764 1764 4591
Width: 0
GlyphClass: 4
Flags: HW
AnchorPoint: "AlefAbove" 0 1300 mark 0
AnchorPoint: "TashkilTashkilAbove" 0 1658 mark 0
AnchorPoint: "MarkAbove" 0 1600 mark 0
AnchorPoint: "TashkilTashkilAbove2" 0 1658 mark 0
AnchorPoint: "TashkilAbove" 0 1658 mark 0
LayerCount: 3
Fore
SplineSet
317 1856 m 0
 345.666666667 1863.33333333 364.666666667 1854.5 374 1829.5 c 128
 383.333333333 1804.5 377 1784.66666667 355 1770 c 0
 236.333333333 1692 46.3333333333 1656.33333333 -215 1663 c 1
 -239.666666667 1610.33333333 -264.666666667 1593.33333333 -290 1612 c 1
 -365 1690 l 2
 -379 1704 -380.333333333 1721.5 -369 1742.5 c 128
 -357.666666667 1763.5 -339.333333333 1788 -314 1816 c 0
 -300.666666667 1830 -281.333333333 1835 -256 1831 c 0
 -64 1800.33333333 127 1808.66666667 317 1856 c 0
EndSplineSet
Layer: 2
SplineSet
321 1841 m 0
 341 1846.33333333 354.166666667 1840.5 360.5 1823.5 c 128
 366.833333333 1806.5 362.333333333 1792.66666667 347 1782 c 0
 229.666666667 1704.66666667 39 1670 -225 1678 c 1
 -234.333333333 1656 -244 1639.66666667 -254 1629 c 128
 -264 1618.33333333 -272.333333333 1616.33333333 -279 1623 c 2
 -355 1701 l 1
 -369.666666667 1715 -352.333333333 1750 -303 1806 c 0
 -293.666666667 1816 -278.666666667 1819.33333333 -258 1816 c 0
 -64 1784.66666667 129 1793 321 1841 c 0
EndSplineSet
EndChar
StartChar: uni06E5
Encoding: 1765 1765 4594
Width: 682
Flags: HW
AnchorPoint: "TashkilAbove" 400 855 basechar 0
LayerCount: 3
Fore
SplineSet
509 339 m 1
 493.666666667 374.333333333 477 394.333333333 459 399 c 0
 441.666666667 403 429 399 421 387 c 24
 414.333333333 377 417 366.666666667 429 356 c 0
 442.333333333 344 469 338.333333333 509 339 c 1
500 193 m 1
 464.666666667 192.333333333 435.666666667 194.666666667 413 200 c 0
 344.333333333 217.333333333 321.666666667 273.666666667 345 369 c 0
 357 417.666666667 380 464 414 508 c 1
 432.666666667 531.333333333 455.166666667 543 481.5 543 c 128
 507.833333333 543 532 529.666666667 554 503 c 0
 608.666666667 433.666666667 621.666666667 331.666666667 593 197 c 0
 573.666666667 108.333333333 534.333333333 36 475 -20 c 1
 437 -54.6666666667 398.333333333 -75.6666666667 359 -83 c 0
 265.666666667 -99 181 -85.3333333333 105 -42 c 0
 77 -26 68 -10.6666666667 78 4 c 128
 88 18.6666666667 105 25.6666666667 129 25 c 0
 203.666666667 23 275.666666667 36.5 345 65.5 c 128
 414.333333333 94.5 466 137 500 193 c 1
EndSplineSet
Layer: 2
SplineSet
509 339 m 1
 493.666666667 374.333333333 477 394.333333333 459 399 c 0
 441.666666667 403 429 399 421 387 c 24
 414.333333333 377 417 366.666666667 429 356 c 0
 442.333333333 344 469 338.333333333 509 339 c 1
516 210 m 1
 493.333333333 206 464 206.666666667 428 212 c 0
 360 223.333333333 337.333333333 274.333333333 360 365 c 0
 371.333333333 411.666666667 393.333333333 456.333333333 426 499 c 0
 441.333333333 519 459 529 479 529 c 0
 502.333333333 529 523.333333333 517.333333333 542 494 c 0
 594 429.333333333 606 331.333333333 578 200 c 0
 560 114.666666667 522.333333333 45 465 -9 c 0
 429.666666667 -41.6666666667 393.333333333 -61.3333333333 356 -68 c 0
 266.666666667 -84 185.333333333 -71 112 -29 c 0
 93.3333333333 -18.3333333333 86.6666666667 -9 92 -1 c 256
 97.3333333333 7 109.333333333 10.6666666667 128 10 c 0
 204.666666667 7.33333333333 275.666666667 20.3333333333 341 49 c 0
 423.666666667 84.3333333333 482 138 516 210 c 1
EndSplineSet
EndChar
StartChar: uni06E6
Encoding: 1766 1766 4595
Width: 834
Flags: HW
AnchorPoint: "TashkilAbove" 419 855 basechar 0
LayerCount: 3
Fore
SplineSet
381 455 m 0
 407.666666667 514.333333333 441.666666667 544.333333333 483 545 c 1
 535.666666667 543.666666667 570 512.666666667 586 452 c 0
 595.333333333 411.333333333 599 361.666666667 597 303 c 1
 595 275.666666667 584.666666667 261.666666667 566 261 c 1
 547.333333333 261.666666667 535.666666667 274.333333333 531 299 c 1
 522.333333333 359.666666667 502.333333333 390.333333333 471 391 c 1
 448.333333333 391 424.333333333 367 399 319 c 0
 360.333333333 247 285 183 173 127 c 1
 321.666666667 99.6666666667 496.666666667 104.333333333 698 141 c 0
 740 148.333333333 762 142 764 122 c 0
 765.333333333 108 759.666666667 96.3333333333 747 87 c 128
 734.333333333 77.6666666667 713.166666667 61.5 683.5 38.5 c 128
 653.833333333 15.5 626 2 600 -2 c 0
 523.333333333 -14.6666666667 440.833333333 -20.3333333333 352.5 -19 c 128
 264.166666667 -17.6666666667 208 -13.3333333333 184 -6 c 128
 160 1.33333333333 143.333333333 7.33333333333 134 12 c 0
 78.6666666667 41.3333333333 66.8333333333 85.8333333333 98.5 145.5 c 128
 130.166666667 205.166666667 162.666666667 244.333333333 196 263 c 0
 286.666666667 317 348.333333333 381 381 455 c 0
EndSplineSet
Layer: 2
SplineSet
395 449 m 0
 418.333333333 503 447.666666667 530 483 530 c 0
 528.333333333 530 557.666666667 502.666666667 571 448 c 0
 580.333333333 409.333333333 584 361.333333333 582 304 c 0
 581.333333333 285.333333333 575.833333333 276 565.5 276 c 128
 555.166666667 276 548.666666667 284.333333333 546 301 c 0
 536.666666667 370.333333333 511.666666667 405.333333333 471 406 c 0
 442.333333333 406 414 379.333333333 386 326 c 0
 348 254 270.333333333 190 153 134 c 0
 139 127.333333333 134.333333333 122.333333333 139 119 c 1
 295 84.3333333333 482.333333333 86.6666666667 701 126 c 0
 753 136 761.666666667 124.333333333 727 91 c 0
 725.666666667 90.3333333333 709.666666667 78 679 54 c 128
 648.333333333 30 621.333333333 16.3333333333 598 13 c 0
 522.666666667 0.333333333333 441.166666667 -5.33333333333 353.5 -4 c 128
 265.833333333 -2.66666666667 205 3 171 13 c 1
 98.3333333333 36.3333333333 79.3333333333 80.3333333333 114 145 c 0
 142.666666667 197.666666667 172.333333333 232.666666667 203 250 c 0
 297 305.333333333 361 371.666666667 395 449 c 0
EndSplineSet
EndChar
StartChar: uni06E8
Encoding: 1768 1768 4606
Width: 0
GlyphClass: 4
Flags: HW
AnchorPoint: "TashkilTashkilAbove" 260 2558 basemark 0
AnchorPoint: "MarkAbove" 288 1640 mark 0
AnchorPoint: "NoonAbove" 290 1640 mark 0
LayerCount: 3
Fore
SplineSet
252 2479 m 1
 259.333333333 2487.66666667 268.333333333 2490 279 2486 c 0
 317 2472.66666667 347 2455.33333333 369 2434 c 1
 377.666666667 2424.66666667 379 2414.66666667 373 2404 c 2
 316 2315 l 2
 308 2303.66666667 298.833333333 2301.66666667 288.5 2309 c 128
 278.166666667 2316.33333333 248.666666667 2334.33333333 200 2363 c 0
 189.333333333 2369 187 2378 193 2390 c 1
 252 2479 l 1
497 2298 m 0
 525.666666667 2244.66666667 548.833333333 2180.83333333 566.5 2106.5 c 128
 584.166666667 2032.16666667 588.666666667 1967.66666667 580 1913 c 128
 571.333333333 1858.33333333 558 1816.66666667 540 1788 c 0
 490.666666667 1712 406.666666667 1668 288 1656 c 1
 201.333333333 1648 135 1665.33333333 89 1708 c 1
 43 1752 22.1666666667 1811.16666667 26.5 1885.5 c 128
 30.8333333333 1959.83333333 56 2029 102 2093 c 0
 113.333333333 2109.66666667 125.333333333 2113 138 2103 c 0
 151.333333333 2093 153 2078.66666667 143 2060 c 0
 97.6666666667 1982.66666667 88.3333333333 1921.33333333 115 1876 c 1
 143 1830 202 1807.33333333 292 1808 c 128
 382 1808.66666667 457 1840.33333333 517 1903 c 1
 517 1905 l 0
 517 1940.33333333 505.833333333 1988.16666667 483.5 2048.5 c 128
 461.166666667 2108.83333333 441 2152.33333333 423 2179 c 1
 415.666666667 2191.66666667 414 2203.66666667 418 2215 c 2
 453 2300 l 2
 455.666666667 2306.66666667 459 2311.33333333 463 2314 c 0
 475 2322 486.333333333 2317 497 2299 c 0
 497 2298 l 0
EndSplineSet
Layer: 2
SplineSet
264 2469 m 2
 266 2472.33333333 269.333333333 2473.33333333 274 2472 c 0
 305.333333333 2461.33333333 333.333333333 2445 358 2423 c 0
 361.333333333 2419.66666667 362 2416 360 2412 c 2
 303 2323 l 2
 301 2319.66666667 297.166666667 2320.16666667 291.5 2324.5 c 128
 285.833333333 2328.83333333 258 2346 208 2376 c 0
 204.666666667 2378 204 2380.33333333 206 2383 c 2
 264 2469 l 2
484 2291 m 1
 512 2239.66666667 534.666666667 2177.5 552 2104.5 c 128
 569.333333333 2031.5 572.666666667 1960.66666667 562 1892 c 0
 556 1855.33333333 544.333333333 1823.33333333 527 1796 c 0
 481 1724 401 1682.33333333 287 1671 c 0
 205 1663 142.5 1679 99.5 1719 c 128
 56.5 1759 37 1814.33333333 41 1885 c 128
 45 1955.66666667 69.3333333333 2022 114 2084 c 0
 120 2092.66666667 125.666666667 2095 131 2091 c 128
 136.333333333 2087 136 2079.33333333 130 2068 c 0
 81.3333333333 1986 72 1919.33333333 102 1868 c 128
 132 1816.66666667 191.333333333 1791 280 1791 c 1
 383.333333333 1792.33333333 466.666666667 1827 530 1895 c 0
 531.333333333 1896.33333333 532 1899.66666667 532 1905 c 0
 532.666666667 1941.66666667 521.5 1991 498.5 2053 c 128
 475.5 2115 454.333333333 2159.66666667 435 2187 c 0
 429.666666667 2195 428.333333333 2201.66666667 431 2207 c 2
 467 2295 l 2
 470.333333333 2305.66666667 476 2304.33333333 484 2291 c 1
EndSplineSet
EndChar
